<svg width="18" height="17" viewBox="0 0 18 17" fill="none" xmlns="http://www.w3.org/2000/svg">
    <path d="M1 1H3.05128L5.92308 9.8H14.9487L17 3.4H3.87179" stroke="#0DB85A" stroke-width="2" stroke-linecap="round"
          stroke-linejoin="round"/>
    <path d="M7.35889 15.65C8.26871 15.65 9.03453 14.9267 9.03453 14C9.03453 13.0733 8.26871 12.35 7.35889 12.35C6.44907 12.35 5.68325 13.0733 5.68325 14C5.68325 14.9267 6.44907 15.65 7.35889 15.65Z"
          fill="#0DB85A" fill-opacity="0.01" stroke="#0DB85A" stroke-width="1.3"/>
    <path d="M13.5127 15.65C14.4225 15.65 15.1883 14.9267 15.1883 14C15.1883 13.0733 14.4225 12.35 13.5127 12.35C12.6029 12.35 11.8371 13.0733 11.8371 14C11.8371 14.9267 12.6029 15.65 13.5127 15.65Z"
          fill="#0DB85A" fill-opacity="0.01" stroke="#0DB85A" stroke-width="1.3"/>
</svg>
