<svg width="16" height="19" viewBox="0 0 16 19" fill="none" xmlns="http://www.w3.org/2000/svg">
<path d="M11.2662 6.86303L9.92463 6.81384L9.63379 14.7532L10.9753 14.8022L11.2662 6.86303Z" fill="black"/>
<rect x="7.32861" y="6.83844" width="1.34239" height="7.93938" fill="black"/>
<path d="M6.36625 14.753L6.07541 6.8136L4.73389 6.86282L5.02477 14.8022L6.36625 14.753Z" fill="black"/>
<path fill-rule="evenodd" clip-rule="evenodd" d="M0.0126953 4.87035V3.5285H15.9873V4.87035H14.5659L13.4562 17.4754C13.426 17.8218 13.1356 18.0877 12.7877 18.0877H3.1897C2.84182 18.0877 2.55161 17.822 2.52118 17.4756L1.41149 4.87035H0.0126953ZM3.80433 16.7459H12.1729L13.2184 4.87035H2.75904L3.80433 16.7459Z" fill="black"/>
<path d="M10.1814 0.958313H5.81892C5.20528 0.958313 4.70605 1.45331 4.70605 2.06175V4.15831H6.0415V2.28244H9.95885V4.15831H11.2943V2.06175C11.2943 1.45331 10.7951 0.958313 10.1814 0.958313Z" fill="black"/>
</svg>
