<svg display="none" xmlns="http://www.w3.org/2000/svg">
    <symbol id="TelephoneIcon" viewBox="0 0 14 14">
        <g> <path fill="currentColor"
                  d="M11 14s.475 0 0 0c-1.914-.077-4.724-2.404-7-4C2.401 7.718.077 4.906 0 3-.025 1.718 2.018.222 2 0c.494-.11 1.106-.05 1 0 .52.522 2.08 2.891 2 3 .421.427.394.827 0 1 .057.467-.36 1.202-1 2 .65-.2 1.19.52 2 2 1.48.812 2.194 1.348 2 2 .79-.642 1.525-1.062 2-1 .152-.392.558-.423 1 0 .107-.088 2.47 1.485 3 2-.137-.24-.026-.03 0 0 .018.464-.058.73 0 1-.235-.021-1.71 2-3 2 .494 0 0 0 0 0z"/>
            />
        </g>
    </symbol>
    <symbol id="CategoryBurger" viewBox="0 0 21 14">
        <g>
            <path fill="currentColor"
                  d="M0 1a1 1 0 0 1 1-1h19a1 1 0 0 1 0 2H1a1 1 0 0 1-1-1z"
            />
            <path fill="currentColor"
                  d="M0 7a1 1 0 0 1 1-1h19a1 1 0 0 1 0 2H1a1 1 0 0 1-1-1z"
            />
            <path fill="currentColor"
                  d="M0 13a1 1 0 0 1 1-1h19a1 1 0 0 1 0 2H1a1 1 0 0 1-1-1z"
            />
        </g>
    </symbol>
    <symbol id="AccountUser" viewBox="0 0 24 24">
        <g>
            <path fill="currentColor"
                  d="M12.6981 9.22281C11.7645 10.1594 10.6221 10.6341 9.30268 10.6341C7.98356 10.6341 6.8412 10.1592 5.90738 9.22296C4.97386 8.28653 4.50049 7.14059 4.50049 5.81689C4.50049 4.4935 4.97386 3.34756 5.90738 2.41113C6.84089 1.4747 7.9831 1 9.30268 1C10.622 1 11.7643 1.4747 12.698 2.41098C13.6317 3.34772 14.1049 4.49365 14.1049 5.81689C14.1049 7.14059 13.6315 8.28638 12.6981 9.22281ZM9.30268 2.17203C8.29022 2.17203 7.44995 2.5213 6.73365 3.23984C6.0172 3.95853 5.66886 4.80157 5.66886 5.81689C5.66886 6.83252 6.0172 7.67557 6.73365 8.3941C7.45025 9.11264 8.29052 9.46207 9.30268 9.46207C10.315 9.46207 11.1554 9.11279 11.8719 8.3941C12.5882 7.67542 12.9365 6.83252 12.9365 5.81689C12.9365 4.80157 12.5882 3.95853 11.8719 3.23984C11.1554 2.5213 10.315 2.17203 9.30268 2.17203Z"
            />
            <path fill="currentColor"
                  d="M12.6981 9.22281L12.8752 9.39931L12.8752 9.39929L12.6981 9.22281ZM5.90738 9.22296L5.73032 9.39946L5.73037 9.39951L5.90738 9.22296ZM5.90738 2.41113L5.73032 2.23463L5.90738 2.41113ZM12.698 2.41098L12.8751 2.23449L12.875 2.23445L12.698 2.41098ZM6.73365 3.23984L6.9107 3.41634L6.73365 3.23984ZM6.73365 8.3941L6.55662 8.57062L6.55664 8.57064L6.73365 8.3941ZM11.8719 8.3941L12.0489 8.5706L12.0489 8.57059L11.8719 8.3941ZM11.8719 3.23984L12.0489 3.06336L12.0489 3.06332L11.8719 3.23984ZM9.30268 10.8841C10.6887 10.8841 11.8947 10.3828 12.8752 9.39931L12.5211 9.04631C11.6342 9.93595 10.5555 10.3841 9.30268 10.3841V10.8841ZM5.73037 9.39951C6.71095 10.3827 7.91694 10.8841 9.30268 10.8841V10.3841C8.05018 10.3841 6.97144 9.93581 6.08439 9.04642L5.73037 9.39951ZM4.25049 5.81689C4.25049 7.20669 4.75004 8.41612 5.73032 9.39946L6.08443 9.04646C5.19768 8.15694 4.75049 7.0745 4.75049 5.81689H4.25049ZM5.73032 2.23463C4.75005 3.21797 4.25049 4.4274 4.25049 5.81689H4.75049C4.75049 4.5596 5.19768 3.47716 6.08443 2.58763L5.73032 2.23463ZM9.30268 0.75C7.91652 0.75 6.71064 1.25125 5.73032 2.23463L6.08443 2.58763C6.97114 1.69815 8.04969 1.25 9.30268 1.25V0.75ZM12.875 2.23445C11.8946 1.25125 10.6885 0.75 9.30268 0.75V1.25C10.5554 1.25 11.6341 1.69815 12.521 2.58751L12.875 2.23445ZM14.3549 5.81689C14.3549 4.42755 13.8555 3.21814 12.8751 2.23449L12.5209 2.58747C13.4078 3.4773 13.8549 4.55975 13.8549 5.81689H14.3549ZM12.8752 9.39929C13.8553 8.41596 14.3549 7.2067 14.3549 5.81689H13.8549C13.8549 7.07449 13.4077 8.15679 12.5211 9.04632L12.8752 9.39929ZM6.9107 3.41634C7.58021 2.74474 8.35682 2.42203 9.30268 2.42203V1.92203C8.22362 1.92203 7.31969 2.29786 6.5566 3.06334L6.9107 3.41634ZM5.91886 5.81689C5.91886 4.86771 6.241 4.08814 6.9107 3.41634L6.5566 3.06334C5.79341 3.82891 5.41886 4.73544 5.41886 5.81689H5.91886ZM6.91069 8.21758C6.24101 7.54595 5.91886 6.7664 5.91886 5.81689H5.41886C5.41886 6.89864 5.7934 7.80518 6.55662 8.57062L6.91069 8.21758ZM9.30268 9.21207C8.35717 9.21207 7.58053 8.88923 6.91067 8.21757L6.55664 8.57064C7.31998 9.33605 8.22388 9.71207 9.30268 9.71207V9.21207ZM11.6948 8.2176C11.0251 8.88936 10.2484 9.21207 9.30268 9.21207V9.71207C10.3816 9.71207 11.2857 9.33623 12.0489 8.5706L11.6948 8.2176ZM12.6865 5.81689C12.6865 6.76639 12.3644 7.54581 11.6948 8.21762L12.0489 8.57059C12.812 7.80502 13.1865 6.89865 13.1865 5.81689H12.6865ZM11.6948 3.41632C12.3644 4.08813 12.6865 4.8677 12.6865 5.81689H13.1865C13.1865 4.73545 12.812 3.82893 12.0489 3.06336L11.6948 3.41632ZM9.30268 2.42203C10.2484 2.42203 11.0252 2.74474 11.6948 3.41636L12.0489 3.06332C11.2857 2.29786 10.3816 1.92203 9.30268 1.92203V2.42203Z"
            />
            <path fill="currentColor"
                  d="M17.5436 15.1154C17.6238 15.5643 17.6782 15.9894 17.7051 16.3791C17.7318 16.76 17.7453 17.1575 17.7454 17.5605C17.7454 18.6048 17.4146 19.4503 16.762 20.0731C16.1175 20.6882 15.2651 21.0001 14.2284 21.0001H4.62832C3.59137 21.0001 2.73893 20.6882 2.09458 20.0731C1.44217 19.4498 1.11133 18.6046 1.11133 17.5606C1.11133 17.159 1.12471 16.7615 1.15118 16.3796C1.17811 15.989 1.23241 15.5637 1.31273 15.1154C1.39365 14.6631 1.49785 14.2357 1.62243 13.8449C1.75142 13.4407 1.92665 13.042 2.14311 12.6598C2.36763 12.2632 2.63169 11.9179 2.92801 11.6335C3.23817 11.3358 3.61769 11.0967 4.05607 10.9226C4.49309 10.7489 4.97742 10.6609 5.49582 10.6609C5.69935 10.6609 5.89618 10.7447 6.27601 10.9929C6.51345 11.1481 6.78726 11.3251 7.08981 11.519C7.35053 11.686 7.70449 11.8424 8.14106 11.9838C8.56773 12.1222 9.00065 12.1924 9.42778 12.1924C9.85521 12.1924 10.2881 12.1222 10.7145 11.9838C11.1515 11.8422 11.5053 11.6858 11.7665 11.5189C12.0719 11.3231 12.3456 11.1461 12.5795 10.9931C12.9597 10.7448 13.1565 10.661 13.36 10.661C13.8783 10.661 14.3628 10.7489 14.7999 10.9224C15.2386 11.0968 15.618 11.3359 15.9278 11.6333C16.2242 11.9176 16.4882 12.2631 16.7129 12.6598C16.9297 13.042 17.1047 13.4409 17.2337 13.8448C17.3585 14.2356 17.4627 14.6631 17.5436 15.1154ZM14.2283 19.8281C14.9654 19.8281 15.5307 19.6305 15.9564 19.224C16.374 18.8254 16.5769 18.2813 16.5771 17.5606C16.5769 17.1848 16.5644 16.8149 16.5396 16.4611V16.4608C16.5156 16.1129 16.4663 15.7299 16.3936 15.3223C16.3218 14.9208 16.2301 14.5439 16.121 14.2021C16.0167 13.8752 15.874 13.5509 15.6971 13.2389C15.5284 12.941 15.3343 12.6857 15.1201 12.4802C14.9198 12.2879 14.6673 12.1303 14.3699 12.0122C14.0946 11.903 13.7853 11.8431 13.4495 11.8341C13.4086 11.856 13.3357 11.8978 13.2177 11.9748C12.9775 12.132 12.7084 12.3059 12.3952 12.5067C12.0497 12.7277 11.6054 12.9268 11.0739 13.0991C10.5314 13.275 9.97751 13.3644 9.42793 13.3644C8.87835 13.3644 8.32466 13.275 7.78177 13.0989C7.25074 12.927 6.80627 12.7277 6.46128 12.507C6.15523 12.311 5.87838 12.1318 5.6382 11.9748C5.52016 11.8976 5.4473 11.856 5.40638 11.8341C5.07067 11.8431 4.76142 11.903 4.48625 12.0122C4.18872 12.1303 3.93621 12.2878 3.73588 12.4802C3.5217 12.6859 3.32761 12.9412 3.15892 13.2387C2.98216 13.5509 2.83963 13.875 2.73513 14.2023C2.62622 14.5436 2.53465 14.9207 2.4627 15.3224C2.38983 15.7292 2.3407 16.1121 2.31667 16.4606C2.29203 16.8158 2.2797 17.1859 2.2797 17.5606C2.2797 18.2811 2.48262 18.8254 2.90017 19.2241C3.32578 19.6305 3.89103 19.8281 4.62832 19.8281H14.2283Z"
            />
            <path fill="currentColor"
                  d="M17.7051 16.3791L17.4557 16.3964L17.4557 16.3966L17.7051 16.3791ZM17.5436 15.1154L17.7897 15.0714L17.7897 15.0714L17.5436 15.1154ZM17.7454 17.5605H17.9954V17.5604L17.7454 17.5605ZM16.762 20.0731L16.9346 20.254L16.9346 20.254L16.762 20.0731ZM2.09458 20.0731L1.92188 20.2539L1.92196 20.254L2.09458 20.0731ZM1.15118 16.3796L1.40058 16.3969L1.40059 16.3968L1.15118 16.3796ZM1.31273 15.1154L1.55881 15.1595L1.55882 15.1594L1.31273 15.1154ZM1.62243 13.8449L1.38426 13.7689L1.38424 13.769L1.62243 13.8449ZM2.14311 12.6598L2.36065 12.783L2.36066 12.783L2.14311 12.6598ZM2.92801 11.6335L2.75489 11.4531L2.75489 11.4531L2.92801 11.6335ZM4.05607 10.9226L4.14835 11.1549L4.14839 11.1549L4.05607 10.9226ZM6.27601 10.9929L6.13923 11.2022L6.13924 11.2022L6.27601 10.9929ZM7.08981 11.519L6.95489 11.7295L6.955 11.7296L7.08981 11.519ZM8.14106 11.9838L8.21819 11.746L8.21811 11.746L8.14106 11.9838ZM10.7145 11.9838L10.6374 11.746L10.6373 11.746L10.7145 11.9838ZM11.7665 11.5189L11.9011 11.7295L11.9014 11.7294L11.7665 11.5189ZM12.5795 10.9931L12.4428 10.7838L12.4427 10.7839L12.5795 10.9931ZM14.7999 10.9224L14.8923 10.6901L14.8922 10.6901L14.7999 10.9224ZM15.9278 11.6333L15.7547 11.8137L15.7548 11.8137L15.9278 11.6333ZM16.7129 12.6598L16.4954 12.783L16.4954 12.7831L16.7129 12.6598ZM17.2337 13.8448L17.4719 13.7688L17.4719 13.7687L17.2337 13.8448ZM15.9564 19.224L15.7838 19.0431L15.7838 19.0431L15.9564 19.224ZM16.5771 17.5606L16.8271 17.5607V17.5605L16.5771 17.5606ZM16.5396 16.4611H16.2896V16.4698L16.2903 16.4785L16.5396 16.4611ZM16.5396 16.4608H16.7896V16.4521L16.7891 16.4435L16.5396 16.4608ZM16.3936 15.3223L16.6397 15.2784L16.6397 15.2783L16.3936 15.3223ZM16.121 14.2021L16.3592 14.1262L16.3592 14.1261L16.121 14.2021ZM15.6971 13.2389L15.4796 13.3621L15.4796 13.3622L15.6971 13.2389ZM15.1201 12.4802L14.947 12.6606L14.947 12.6606L15.1201 12.4802ZM14.3699 12.0122L14.4622 11.7799L14.4621 11.7798L14.3699 12.0122ZM13.4495 11.8341L13.4562 11.5842L13.3901 11.5825L13.3318 11.6135L13.4495 11.8341ZM13.2177 11.9748L13.081 11.7655L13.0808 11.7656L13.2177 11.9748ZM12.3952 12.5067L12.5299 12.7174L12.5301 12.7172L12.3952 12.5067ZM11.0739 13.0991L10.9969 12.8613L10.9968 12.8613L11.0739 13.0991ZM7.78177 13.0989L7.8589 12.8611L7.85879 12.8611L7.78177 13.0989ZM6.46128 12.507L6.32642 12.7176L6.32658 12.7177L6.46128 12.507ZM5.6382 11.9748L5.50135 12.184L5.5014 12.1841L5.6382 11.9748ZM5.40638 11.8341L5.52401 11.6135L5.46572 11.5825L5.39968 11.5842L5.40638 11.8341ZM4.48625 12.0122L4.57848 12.2446L4.5785 12.2446L4.48625 12.0122ZM3.73588 12.4802L3.90905 12.6605L3.90906 12.6605L3.73588 12.4802ZM3.15892 13.2387L2.94144 13.1154L2.94136 13.1155L3.15892 13.2387ZM2.73513 14.2023L2.49697 14.1263L2.49696 14.1263L2.73513 14.2023ZM2.4627 15.3224L2.70878 15.3665L2.70878 15.3665L2.4627 15.3224ZM2.31667 16.4606L2.56607 16.4779L2.56608 16.4778L2.31667 16.4606ZM2.90017 19.2241L2.72752 19.4049L2.72754 19.4049L2.90017 19.2241ZM17.9545 16.3619C17.9269 15.9618 17.8712 15.5277 17.7897 15.0714L17.2975 15.1593C17.3763 15.6009 17.4295 16.017 17.4557 16.3964L17.9545 16.3619ZM17.9954 17.5604C17.9953 17.1519 17.9816 16.7486 17.9545 16.3617L17.4557 16.3966C17.4819 16.7713 17.4953 17.163 17.4954 17.5606L17.9954 17.5604ZM16.9346 20.254C17.6445 19.5764 17.9954 18.6613 17.9954 17.5605H17.4954C17.4954 18.5482 17.1847 19.3241 16.5894 19.8923L16.9346 20.254ZM14.2284 21.2501C15.3181 21.2501 16.2361 20.9207 16.9346 20.254L16.5894 19.8923C15.999 20.4557 15.2121 20.7501 14.2284 20.7501V21.2501ZM4.62832 21.2501H14.2284V20.7501H4.62832V21.2501ZM1.92196 20.254C2.6204 20.9207 3.53839 21.2501 4.62832 21.2501V20.7501C3.64436 20.7501 2.85746 20.4557 2.26721 19.8923L1.92196 20.254ZM0.861328 17.5606C0.861328 18.6612 1.21226 19.5759 1.92188 20.2539L2.26728 19.8924C1.67209 19.3237 1.36133 18.548 1.36133 17.5606H0.861328ZM0.90178 16.3623C0.874894 16.7503 0.861328 17.1535 0.861328 17.5606H1.36133C1.36133 17.1645 1.37453 16.7727 1.40058 16.3969L0.90178 16.3623ZM1.06664 15.0713C0.984979 15.5271 0.929408 15.9615 0.901773 16.3624L1.40059 16.3968C1.4268 16.0165 1.47984 15.6003 1.55881 15.1595L1.06664 15.0713ZM1.38424 13.769C1.25596 14.1714 1.14926 14.6095 1.06663 15.0714L1.55882 15.1594C1.63803 14.7167 1.73973 14.3001 1.86062 13.9209L1.38424 13.769ZM1.92557 12.5366C1.70095 12.9332 1.51868 13.3477 1.38426 13.7689L1.86059 13.9209C1.98416 13.5337 2.15236 13.1508 2.36065 12.783L1.92557 12.5366ZM2.75489 11.4531C2.43926 11.7561 2.16073 12.1212 1.92555 12.5366L2.36066 12.783C2.57452 12.4052 2.82413 12.0797 3.10113 11.8138L2.75489 11.4531ZM3.9638 10.6902C3.49832 10.8751 3.09058 11.1309 2.75489 11.4531L3.10113 11.8138C3.38576 11.5406 3.73705 11.3183 4.14835 11.1549L3.9638 10.6902ZM5.49582 10.4109C4.94904 10.4109 4.43302 10.5038 3.96376 10.6902L4.14839 11.1549C4.55317 10.9941 5.0058 10.9109 5.49582 10.9109V10.4109ZM6.41278 10.7837C6.03132 10.5343 5.77968 10.4109 5.49582 10.4109V10.9109C5.61901 10.9109 5.76104 10.955 6.13923 11.2022L6.41278 10.7837ZM7.22472 11.3086C6.92263 11.1149 6.64946 10.9383 6.41277 10.7836L6.13924 11.2022C6.37744 11.3579 6.65188 11.5353 6.95489 11.7295L7.22472 11.3086ZM8.21811 11.746C7.79305 11.6083 7.4609 11.4598 7.22461 11.3085L6.955 11.7296C7.24016 11.9122 7.61594 12.0765 8.064 12.2217L8.21811 11.746ZM9.42778 11.9424C9.02813 11.9424 8.62122 11.8767 8.21819 11.746L8.06392 12.2216C8.51425 12.3677 8.97316 12.4424 9.42778 12.4424V11.9424ZM10.6373 11.746C10.2346 11.8767 9.82774 11.9424 9.42778 11.9424V12.4424C9.88268 12.4424 10.3416 12.3677 10.7917 12.2216L10.6373 11.746ZM11.6319 11.3082C11.395 11.4596 11.0629 11.6081 10.6374 11.746L10.7916 12.2217C11.2401 12.0763 11.6157 11.912 11.9011 11.7295L11.6319 11.3082ZM12.4427 10.7839C12.2095 10.9364 11.9366 11.113 11.6316 11.3084L11.9014 11.7294C12.2073 11.5333 12.4817 11.3558 12.7164 11.2023L12.4427 10.7839ZM13.36 10.411C13.0762 10.411 12.8246 10.5345 12.4428 10.7838L12.7163 11.2024C13.0948 10.9552 13.2368 10.911 13.36 10.911V10.411ZM14.8922 10.6901C14.4228 10.5038 13.9066 10.411 13.36 10.411V10.911C13.85 10.911 14.3028 10.9941 14.7077 11.1548L14.8922 10.6901ZM16.101 11.453C15.7656 11.1311 15.358 10.8753 14.8923 10.6901L14.7076 11.1547C15.1192 11.3184 15.4704 11.5408 15.7547 11.8137L16.101 11.453ZM16.9304 12.5366C16.6951 12.1211 16.4166 11.7558 16.1009 11.4529L15.7548 11.8137C16.0317 12.0794 16.2813 12.405 16.4954 12.783L16.9304 12.5366ZM17.4719 13.7687C17.3375 13.3479 17.1554 12.9333 16.9304 12.5365L16.4954 12.7831C16.7039 13.1508 16.872 13.5338 16.9956 13.9208L17.4719 13.7687ZM17.7897 15.0714C17.7071 14.6096 17.6004 14.1712 17.4719 13.7688L16.9956 13.9208C17.1166 14.2999 17.2183 14.7167 17.2975 15.1594L17.7897 15.0714ZM15.7838 19.0431C15.4155 19.3947 14.9181 19.5781 14.2283 19.5781V20.0781C15.0127 20.0781 15.6458 19.8662 16.1291 19.4048L15.7838 19.0431ZM16.3271 17.5606C16.3269 18.231 16.1402 18.7029 15.7838 19.0431L16.1291 19.4048C16.6077 18.9479 16.8269 18.3315 16.8271 17.5607L16.3271 17.5606ZM16.2903 16.4785C16.3146 16.8262 16.3269 17.1903 16.3271 17.5607L16.8271 17.5605C16.8269 17.1793 16.8143 16.8036 16.789 16.4436L16.2903 16.4785ZM16.2896 16.4608V16.4611H16.7896V16.4608H16.2896ZM16.1475 15.3662C16.2189 15.7666 16.2669 16.1406 16.2902 16.478L16.7891 16.4435C16.7643 16.0851 16.7137 15.6931 16.6397 15.2784L16.1475 15.3662ZM15.8829 14.2781C15.9882 14.6082 16.0774 14.9742 16.1475 15.3663L16.6397 15.2783C16.5662 14.8674 16.472 14.4797 16.3592 14.1262L15.8829 14.2781ZM15.4796 13.3622C15.6484 13.6599 15.784 13.9683 15.8829 14.2782L16.3592 14.1261C16.2494 13.782 16.0996 13.442 15.9146 13.1156L15.4796 13.3622ZM14.947 12.6606C15.1412 12.8469 15.321 13.0821 15.4796 13.3621L15.9146 13.1157C15.7358 12.7999 15.5274 12.5245 15.2932 12.2998L14.947 12.6606ZM14.2776 12.2446C14.5494 12.3525 14.7732 12.4938 14.947 12.6606L15.2932 12.2998C15.0664 12.0821 14.7852 11.9081 14.4622 11.7799L14.2776 12.2446ZM13.4428 12.084C13.7532 12.0924 14.033 12.1475 14.2777 12.2446L14.4621 11.7798C14.1561 11.6584 13.8175 11.5939 13.4562 11.5842L13.4428 12.084ZM13.3543 12.1842C13.4678 12.1101 13.5342 12.0723 13.5671 12.0547L13.3318 11.6135C13.2829 11.6396 13.2036 11.6855 13.081 11.7655L13.3543 12.1842ZM12.5301 12.7172C12.8437 12.5161 13.1135 12.3417 13.3545 12.184L13.0808 11.7656C12.8414 11.9222 12.573 12.0958 12.2603 12.2963L12.5301 12.7172ZM11.151 13.3369C11.696 13.1603 12.1613 12.9531 12.5299 12.7174L12.2605 12.2961C11.9382 12.5023 11.5149 12.6934 10.9969 12.8613L11.151 13.3369ZM9.42793 13.6144C10.0047 13.6144 10.5846 13.5206 11.151 13.3369L10.9968 12.8613C10.4781 13.0295 9.95029 13.1144 9.42793 13.1144V13.6144ZM7.70464 13.3367C8.27142 13.5206 8.85111 13.6144 9.42793 13.6144V13.1144C8.90559 13.1144 8.37789 13.0295 7.8589 12.8611L7.70464 13.3367ZM6.32658 12.7177C6.6947 12.9531 7.16019 13.1604 7.70475 13.3368L7.85879 12.8611C7.3413 12.6935 6.91784 12.5023 6.59598 12.2964L6.32658 12.7177ZM5.5014 12.1841C5.74231 12.3416 6.01981 12.5211 6.32642 12.7176L6.59614 12.2965C6.29065 12.1008 6.01445 11.9221 5.77499 11.7656L5.5014 12.1841ZM5.28874 12.0547C5.32177 12.0723 5.38815 12.11 5.50135 12.184L5.77505 11.7656C5.65216 11.6852 5.57282 11.6396 5.52401 11.6135L5.28874 12.0547ZM4.5785 12.2446C4.82298 12.1475 5.10277 12.0924 5.41308 12.084L5.39968 11.5842C5.03856 11.5939 4.69986 11.6584 4.394 11.7799L4.5785 12.2446ZM3.90906 12.6605C4.08274 12.4937 4.3065 12.3525 4.57848 12.2446L4.39401 11.7798C4.07093 11.9081 3.78968 12.0819 3.5627 12.2999L3.90906 12.6605ZM3.37639 13.362C3.53495 13.0823 3.71477 12.8471 3.90905 12.6605L3.56271 12.2999C3.32863 12.5247 3.12026 12.8 2.94144 13.1154L3.37639 13.362ZM2.97329 14.2783C3.07233 13.9681 3.20781 13.6598 3.37647 13.3619L2.94136 13.1155C2.75651 13.442 2.60693 13.7819 2.49697 14.1263L2.97329 14.2783ZM2.70878 15.3665C2.77907 14.974 2.86817 14.6078 2.9733 14.2783L2.49696 14.1263C2.38427 14.4795 2.29022 14.8674 2.21661 15.2784L2.70878 15.3665ZM2.56608 16.4778C2.58939 16.1398 2.63723 15.766 2.70878 15.3665L2.21661 15.2784C2.14244 15.6925 2.09202 16.0844 2.06726 16.4434L2.56608 16.4778ZM2.5297 17.5606C2.5297 17.1912 2.54185 16.827 2.56607 16.4779L2.06727 16.4433C2.0422 16.8046 2.0297 17.1805 2.0297 17.5606H2.5297ZM3.07282 19.0433C2.71638 18.7029 2.5297 18.2309 2.5297 17.5606H2.0297C2.0297 18.3314 2.24887 18.9479 2.72752 19.4049L3.07282 19.0433ZM4.62832 19.5781C3.93832 19.5781 3.44091 19.3947 3.07281 19.0433L2.72754 19.4049C3.21066 19.8662 3.84375 20.0781 4.62832 20.0781V19.5781ZM14.2283 19.5781H4.62832V20.0781H14.2283V19.5781Z"
            />
        </g>
    </symbol>
    <symbol id="MessageRegister" viewBox="0 0 20 16">
        <g>
            <path fill="currentColor"
                  d="M2 0H18C19.1046 0 20 0.8954 20 2V14C20 15.1045 19.1046 16 18 16H2C0.89543 16 0 15.1045 0 14V2C0 0.8954 0.89543 0 2 0ZM10 7.00003L18 2H2L10 7.00003ZM2 14H18V4.37L10 9.35863L2 4.37V14Z"
            />
        </g>
    </symbol>
    <symbol id="TelephoneRegister" viewBox="0 0 21 20">
        <g>
            <path fill="currentColor"
                  d="M2.5916 1.29212C2.64199 1.22366 2.71737 1.12404 2.76199 1.07635C2.84198 0.990196 2.95545 0.901733 3.10699 0.806734C3.34275 0.660196 3.74891 0.56481 4.07275 0.580194C4.65545 0.607887 5.06545 0.738657 5.32583 0.980579C5.43083 1.07712 7.77237 3.64673 7.79083 3.66789L7.82814 3.71404L7.83433 3.72108C7.90867 3.80567 8.0586 3.97628 8.16891 4.2025C8.48737 4.85519 8.36314 5.69212 7.86275 6.2302L6.91699 7.25404C6.77852 7.40404 6.66775 7.55558 6.64429 7.60327C6.64337 7.60624 6.64199 7.60965 6.64047 7.61343C6.63884 7.61749 6.63704 7.62195 6.63545 7.62673C6.63968 7.63673 6.64737 7.65096 6.66275 7.66558L13.0774 13.6267C13.1051 13.626 13.1481 13.6229 13.2101 13.6113C13.2689 13.5971 13.4354 13.4975 13.5251 13.4013L14.4808 12.3783C14.6681 12.176 14.9108 12.0163 15.1804 11.9198C15.6047 11.7683 16.0689 11.7748 16.4881 11.939C16.6481 12.0017 16.8054 12.0921 16.9562 12.2079L16.9774 12.2217C16.9951 12.234 19.7762 14.4129 19.8993 14.5271C20.0654 14.6833 20.2043 14.9156 20.3254 15.2402C20.4139 15.4775 20.4274 15.7383 20.4274 15.8729C20.4274 15.9937 20.4166 16.174 20.367 16.3452C20.2697 16.6802 20.147 16.9244 19.992 17.0917C19.9304 17.1571 19.7708 17.2929 19.7708 17.2929C19.0297 17.9417 17.8628 18.8233 16.5701 19.2867C16.0101 19.4875 15.4651 19.5956 14.9508 19.6083C11.8662 19.6921 7.47237 15.8387 6.19891 14.6556C4.92583 13.4721 0.761985 9.37135 0.619677 6.28596C0.535831 4.44327 1.65506 2.53404 2.5916 1.29212ZM6.90237 4.40558C6.79083 4.28327 4.65968 1.94904 4.52852 1.81596L4.52726 1.8155C4.5076 1.80824 4.34938 1.74977 4.01737 1.73366C3.91814 1.72866 3.75929 1.76558 3.70814 1.79173L3.70245 1.79531C3.66924 1.81617 3.62926 1.8413 3.60198 1.86712C3.58909 1.88235 3.56705 1.91277 3.54929 1.93727C3.54373 1.94494 3.5386 1.95202 3.53429 1.95789L3.50314 1.99943C2.68968 3.07866 1.7016 4.71366 1.77237 6.23289C1.86929 8.34019 4.64045 11.6321 6.98468 13.8098C9.32852 15.9879 12.8139 18.5117 14.9212 18.4544C15.3135 18.4448 15.7366 18.3594 16.1804 18.2002C17.3031 17.7979 18.3447 17.0075 19.0212 16.4156C19.0231 16.414 19.0264 16.4112 19.0306 16.4077C19.0559 16.3864 19.1174 16.3348 19.1493 16.3029C19.1493 16.3027 19.1499 16.3017 19.151 16.2998C19.1602 16.284 19.2054 16.2066 19.2589 16.0229C19.2647 16.004 19.2735 15.9521 19.2735 15.8725C19.2735 15.7621 19.2558 15.6737 19.2447 15.6437C19.1689 15.4412 19.114 15.374 19.1086 15.3673C19.1083 15.367 19.1082 15.3668 19.1081 15.3667C18.9785 15.2575 16.587 13.3779 16.3204 13.1713C16.3031 13.1606 16.2839 13.1471 16.2601 13.1287C16.2351 13.109 16.1589 13.0494 16.0674 13.0137C15.9104 12.9521 15.7289 12.9494 15.5697 13.0063C15.4743 13.041 15.3897 13.0956 15.3258 13.1644L14.3685 14.1894C14.1608 14.4117 13.7751 14.681 13.4189 14.7467C12.9581 14.8317 12.5997 14.7587 12.3531 14.5298L5.87391 8.50866C5.62852 8.2775 5.48929 7.97135 5.47775 7.64289C5.47814 7.47096 5.5116 7.32289 5.58237 7.15289C5.68929 6.89789 5.95852 6.59173 6.06929 6.47212L7.01622 5.44712C7.20083 5.24827 7.24545 4.94366 7.1316 4.70981C7.08775 4.62058 7.01275 4.53635 6.98083 4.50058L6.90237 4.40558Z"
            />
        </g>
    </symbol>
    <symbol id="AddressRegister" viewBox="0 0 21 20">
        <g>
            <path fill="currentColor"
                  d="M19.4789 8.69751C19.4794 8.69797 19.4798 8.69858 19.4805 8.69904C20.1969 9.41696 20.1966 10.5844 19.4794 11.3019C19.1313 11.6499 18.669 11.8414 18.1774 11.8414H17.8758V17.8452C17.8758 19.0334 16.9092 20 15.7208 20H12.529C12.2054 20 11.9431 19.7375 11.9431 19.4141V14.707C11.9431 14.1649 11.5021 13.7239 10.96 13.7239H9.07732C8.53518 13.7239 8.09405 14.1649 8.09405 14.707V19.4141C8.09405 19.7375 7.83175 20 7.50811 20H4.31627C3.12807 20 2.16128 19.0334 2.16128 17.8452V11.8414H1.83626C1.81719 11.8414 1.79827 11.8405 1.77935 11.8387C1.31716 11.8187 0.88503 11.6292 0.557729 11.3017C-0.158671 10.5853 -0.159892 9.42001 0.55422 8.70178L0.56246 8.69339L8.7166 0.539398C9.0645 0.191498 9.52685 0 10.0186 0C10.5104 0 10.9728 0.191498 11.3205 0.539398L19.4789 8.69751ZM18.1774 10.6696C18.356 10.6696 18.5242 10.5998 18.6507 10.4733C18.911 10.2129 18.9115 9.78912 18.6519 9.52774L18.6481 9.52408L10.4918 1.36795C10.3653 1.24146 10.1973 1.17188 10.0186 1.17188C9.8398 1.17188 9.6718 1.24146 9.54546 1.36795L1.38735 9.52576L1.38689 9.52621C1.38674 9.52637 1.38674 9.52652 1.38659 9.52652C1.12566 9.7876 1.12566 10.2122 1.38659 10.4732C1.50927 10.596 1.67299 10.6653 1.84755 10.6683C1.85686 10.6685 1.86587 10.6689 1.87502 10.6696H2.74721C3.07085 10.6696 3.33315 10.9319 3.33315 11.2555V17.8452C3.33315 18.3871 3.77428 18.8281 4.31627 18.8281H6.92217V14.707C6.92217 13.5188 7.88897 12.552 9.07732 12.552H10.96C12.1483 12.552 13.115 13.5188 13.115 14.707V18.8281H15.7208C16.263 18.8281 16.704 18.3871 16.704 17.8452V11.2555C16.704 10.9319 16.9663 10.6696 17.2899 10.6696H18.1774Z"
            />
        </g>
    </symbol>
    <symbol id="CityRegister" viewBox="0 0 22 22">
        <g>
            <path fill="currentColor" fill-rule="evenodd" clip-rule="evenodd"
                  d="M13.3744 12.9336H18.2391L21.9958 22H0L3.75674 12.9336H8.62161L6.08713 8.88966C5.5052 7.96684 5.1972 6.89816 5.1972 5.80078C5.1972 2.60229 7.79933 0 10.998 0C14.1965 0 16.7988 2.60229 16.7988 5.80078C16.7988 6.89816 16.4906 7.96684 15.9078 8.89117L13.3744 12.9336ZM18.9803 18.0898H14.9333L15.2675 20.7109H20.0664L18.9803 18.0898ZM13.9679 20.7109H8.02156L8.34735 18.0898H13.6339L13.9679 20.7109ZM14.769 16.8008H18.4462L17.3778 14.2227H14.4404L14.769 16.8008ZM6.48627 5.80078C6.48627 3.31296 8.51016 1.28906 10.998 1.28906C13.4856 1.28906 15.5097 3.31296 15.5097 5.80078C15.5097 6.65445 15.2704 7.48529 14.8165 8.20502L10.998 14.298L7.17847 8.20367C6.72562 7.48529 6.48627 6.65445 6.48627 5.80078ZM12.5665 14.2227L10.998 16.7254L9.42946 14.2227H8.82806L8.50748 16.8008H13.4695L13.1409 14.2227H12.5665ZM4.61797 14.2227H7.5291L7.20851 16.8008H3.54962L4.61797 14.2227ZM7.04839 18.0898H3.01553L1.9294 20.7109H6.72243L7.04839 18.0898Z"
            />
            <path fill="currentColor"
                  d="M10.998 2.57812C12.775 2.57812 14.2207 4.02379 14.2207 5.80078C14.2207 7.57777 12.775 9.02344 10.998 9.02344C9.22105 9.02344 7.77539 7.57777 7.77539 5.80078C7.77539 4.02379 9.22105 2.57812 10.998 2.57812ZM10.998 3.86719C9.93188 3.86719 9.06445 4.73462 9.06445 5.80078C9.06445 6.86694 9.93188 7.73438 10.998 7.73438C12.0642 7.73438 12.9316 6.86694 12.9316 5.80078C12.9316 4.73462 12.0642 3.86719 10.998 3.86719Z"
            />
        </g>
    </symbol>
    <symbol id="ZoneRegister" viewBox="0 0 28 20">
        <g>
            <path fill="currentColor"
                  d="M6.90041 3.94261L7.42446 3.9725L7.89566 3.99929L8.47753 4.03251L8.6503 4.06365L8.85825 4.09252L8.96155 4.09687L9.05323 3.98184L9.11377 3.91873L9.16137 3.86878L9.1515 3.81233L9.07779 3.76443L8.96193 3.60494L8.89598 3.02806L8.85477 2.53277L8.99269 2.3782L9.15093 2.26605L9.37917 1.92774L9.50161 1.82319L9.6821 1.73666L10.285 1.71403L10.5389 1.64732L10.6215 1.53752L10.7551 1.25968L10.7992 1.0331L10.8741 0.929389L10.964 0.8522L11.0563 0.855189L11.2348 0.921973L11.3705 0.959054L11.4672 1.00945L11.555 1.08948L11.6407 1.22876L11.6539 1.32041L11.6933 1.37372L11.7614 1.37474L11.8121 1.37554L11.8465 1.35533L11.8692 1.30868L11.8516 1.24651L11.7351 1.06871L11.4786 0.746027L11.3111 0.614578L11.2277 0.543254L11.207 0.47594L11.3157 0.373324L11.4212 0.314865L11.6063 0.358794L11.8519 0.382632L11.9612 0.3314L12.0736 0.0720215L12.3528 0.346876L12.6439 0.654497L12.7507 0.711254L12.9586 0.743832L13.1315 0.755449L13.2037 0.788519L13.282 0.86813L13.4355 1.20375L13.5894 1.2915L13.7811 1.35495L14.3982 1.34946L14.5878 1.36653L14.7427 1.52424L14.8391 1.58905L14.8804 1.64471L14.87 1.71415L14.8321 1.80201L14.8272 1.97137L14.8172 2.10229L14.7681 2.16442L14.7532 2.2225L14.7944 2.27328L15.0803 2.39788L15.1766 2.53144L15.249 2.59134L15.2662 2.67424L15.2178 2.72941L15.0836 2.7019L15.0182 2.78923V2.94562L15.1141 3.09239L15.1418 3.22656L15.0785 3.35563L15.0046 3.53744L15.0019 3.66612L15.046 3.73964L15.2646 3.87226L15.7697 4.20668L15.8858 4.22102L16.3638 4.14337L16.5862 4.13569L16.717 4.18734L17.0868 4.23486L17.2044 4.28814L17.3294 4.29174L17.5008 4.27622L17.6169 4.12661L17.6761 4.09252L17.7281 4.06762L17.8337 4.0638L18.126 4.15889L18.4338 4.35931L18.6377 4.54196L18.7381 4.70708L18.8649 5.06461L19.0184 5.61318L19.2035 5.98252L19.4205 6.17386L19.5729 6.52466L19.7048 7.28876L19.7873 7.44484L19.871 7.52604L20.119 7.74618L20.6264 8.10999L20.9261 8.32438L21.3892 8.66643L21.8134 8.97912L22.2387 9.46076L22.3237 9.53099L22.6978 9.79082L23.1143 10.0567L23.4058 9.99662L23.8449 10.4049L24.0236 10.5562L24.0991 10.6078L24.4175 10.7686L24.9245 11.1043L25.5642 11.5844L25.9867 11.8615L26.1016 11.8938L26.2157 11.8922L26.338 11.8327L26.4704 11.7857L26.6964 11.8473L26.9413 11.958L27.0964 12.042L27.2757 12.1639L27.4178 12.279L27.5255 12.3322L27.8915 12.4327L27.9544 12.493L27.9942 12.5602L28 12.6298L27.7946 12.9953L27.7663 13.4604L27.765 13.8098L27.788 14.0834L27.6882 14.0927L27.4473 14.0346L26.9682 13.9189L26.5568 13.6869L26.288 13.5351L26.2461 13.5558L26.1256 13.6595L26.0428 13.7871L25.977 14.034L25.872 14.3247L25.3741 14.3356L24.9502 14.3575L24.6767 14.4674L24.4088 14.6196L24.3416 14.7996L24.2836 15.033L24.1275 15.562L23.9853 16.043L23.9126 16.3544L23.8041 16.5673L23.5009 16.8477L23.157 17.0362L22.9744 17.1247L22.8936 17.2347L22.8757 17.3384L22.811 17.3701L22.6691 17.3515L22.5194 17.3695L22.1908 17.478L21.835 17.6112L21.4085 17.7444L21.1654 17.7443L21.0684 17.7742L21.0261 17.841L21.0684 17.9674L21.1096 18.0608L21.1472 18.1826L21.0473 18.2811L20.9777 18.4496L20.9232 18.7458L20.7719 18.8344L20.5297 18.9784L20.2616 19.1677L20.1931 19.2064L20.0395 19.2599L19.8861 19.2436L19.747 19.2159L19.596 19.2645L19.4399 19.4103L19.3673 19.3662L19.3309 19.2186L19.2522 19.1227L19.0077 18.9058L18.7982 18.7509L18.7075 18.7407L18.5152 18.7804L18.275 18.8096L18.0794 18.7784L17.9244 18.7166L17.6848 18.5036L17.5975 18.3889L17.5321 18.3007L17.3683 18.3247L17.3224 18.2284L17.3159 18.116L17.3617 17.9793L17.3488 17.722L17.257 17.5368L17.1522 17.4562L17.1652 17.3998L17.211 17.2708L17.27 17.1578L17.2693 16.9346L17.1961 16.6921L17.1669 16.3418L17.1859 15.9994L17.0862 15.8267L16.2707 15.8257L15.5445 15.8388L15.5037 15.7997L15.2217 15.3668L14.9928 15.0377L14.7667 14.8433L14.2489 14.6038L14.0012 14.5037L13.7889 14.3206L13.6153 14.12L13.5705 13.8445L13.5352 13.754L13.4853 13.6806L13.4306 13.6481L13.3646 13.6555L12.7632 13.3346L12.522 13.2503L12.2949 13.3182L12.1947 13.3299L11.9972 13.2386L11.7699 13.3624L11.6728 13.3702L11.537 13.3407L11.425 13.2943L11.1223 13.002L10.8683 12.8836L10.6853 12.8077L10.3334 12.6967L9.95794 12.6387L9.76549 12.5906L9.62659 12.5265L9.59098 12.4849L9.59291 12.3773L9.58247 12.2361L9.53627 12.1331L9.44126 12.0096L9.30936 11.9172L9.08244 11.9334L8.74103 11.9257L8.4795 11.8327L8.27211 11.8162L8.02276 11.8338L7.8179 11.8343L7.67189 11.9019L7.58713 11.9807L7.53336 12.2222L7.48402 12.2583L7.39836 12.2759L7.2842 12.2634L7.04472 12.2655L6.63078 12.2227L6.11002 12.2098L5.7187 12.3317L5.40937 12.5064L5.11401 12.7037L4.76639 13.0148L4.66446 13.1527L4.45961 13.7023L4.36887 13.7812L4.25048 13.8445L4.13015 13.8556L3.89204 13.9368L3.5773 14.0707L3.36299 14.1231L2.81339 14.0956L2.78112 13.9218L2.68206 13.285L2.63389 12.64L2.63718 12.3422L2.69443 11.7433L2.69001 11.4408L2.66658 11.1661L2.6894 10.8966L2.73333 10.5929L2.75634 10.2837L2.72326 10.0678L2.61686 9.89325L2.43698 9.67716L2.40853 9.54911L2.39828 9.4062L2.22592 9.38993L2.07117 9.24191L1.9435 9.16124L1.6688 9.07171L1.53107 9.0671L1.40534 9.13297L1.3129 9.26503L1.24827 9.05677L1.24982 8.83875L1.46939 8.38742L1.60671 8.51917L1.77444 8.57203L1.98781 8.58001L2.19728 8.54505L2.1563 8.39029L2.05898 8.30239L1.93809 8.23308L1.89496 8.02856L1.91043 7.81629L1.96787 7.61533L1.90249 7.53432L1.80328 7.48419L1.57421 7.49021L1.2771 7.43704L0.977843 7.41404L0.907805 7.65113L1.07301 7.96216L0.932968 7.80941L0.801027 7.60731L0.615735 7.24294L0.496357 6.8151L0.475092 6.35208L0.57627 5.96818L0.705297 5.60709L0.783243 5.14373L0.890589 4.68752L0.997973 4.89203L1.12061 5.07517L1.29027 5.24423L1.3829 5.28456L1.66206 5.3543L1.84176 5.32811L2.03325 5.2283L2.22127 5.26103L2.37682 5.44882L2.5155 5.65904L2.72599 5.70324L3.15946 5.55132L3.36568 5.51658L3.54461 5.58613L3.6369 5.59896L3.73089 5.58726L3.64946 5.40061L3.6162 5.21914L3.7251 5.12307L4.06711 5.22512L4.28491 5.15709L4.34042 5.11876L4.38995 5.07161L4.41605 4.91451L4.40561 4.75317L4.37738 4.60102L4.31355 4.46742L4.15649 4.28031L3.54711 3.83352L3.34206 3.65496L3.17126 3.42373L3.06237 3.09666L2.97398 2.75514L2.89195 2.50117L2.67934 1.90996L2.59655 1.83958L2.49287 1.80825L2.24045 1.78967L1.9849 1.83281L1.56705 1.93474L1.32777 1.90296L1.21713 1.96603L0.943222 2.21535L0.814951 2.42883L0.635827 2.9158L0.771816 3.07241L0.769319 3.17503L0.666211 3.89088L0.72887 4.23702L0.706243 4.26264L0.65713 4.18246L0.501995 3.82902L0.228843 3.39721L0 2.73444L0.402178 2.29984L0.746086 1.99123L1.02737 1.80473L1.11326 1.7594L1.498 1.60464L1.99458 1.46498L2.36017 1.36199L2.83757 1.27413L2.99369 1.25786L3.2231 1.25968L3.40919 1.34243L3.52198 1.40705L3.92008 1.67305L4.3263 1.94435L4.67471 2.24463L4.77355 2.36696L4.82887 2.51294L4.86988 2.65601L5.16604 3.10892L5.28576 3.31597L5.45871 3.58515L5.59762 3.71599L5.73361 3.87764L5.82472 4.01071L5.92896 4.07379L6.04425 4.0988L6.30851 4.05661L6.62631 3.97261L6.8163 3.93757L6.90041 3.94261Z"
            />
        </g>
    </symbol>
    <symbol id="PasswordKey" viewBox="0 0 22 12">
        <g>
            <path fill="currentColor"
                  d="M11.6492 4.0011C10.6992 1.3111 7.89921 -0.498902 4.76921 0.121098C2.47921 0.581098 0.619207 2.4111 0.139207 4.7011C-0.680793 8.5711 2.25921 12.0011 5.99921 12.0011C8.60921 12.0011 10.8292 10.3311 11.6492 8.0011H15.9992V10.0011C15.9992 11.1011 16.8992 12.0011 17.9992 12.0011C19.0992 12.0011 19.9992 11.1011 19.9992 10.0011V8.0011C21.0992 8.0011 21.9992 7.1011 21.9992 6.0011C21.9992 4.9011 21.0992 4.0011 19.9992 4.0011H11.6492ZM5.99921 8.0011C4.89921 8.0011 3.99921 7.1011 3.99921 6.0011C3.99921 4.9011 4.89921 4.0011 5.99921 4.0011C7.09921 4.0011 7.99921 4.9011 7.99921 6.0011C7.99921 7.1011 7.09921 8.0011 5.99921 8.0011Z"
            />
            <path fill="currentColor"
                  d="M11.6492 4.0011C10.6992 1.3111 7.89921 -0.498902 4.76921 0.121098C2.47921 0.581098 0.619207 2.4111 0.139207 4.7011C-0.680793 8.5711 2.25921 12.0011 5.99921 12.0011C8.60921 12.0011 10.8292 10.3311 11.6492 8.0011H15.9992V10.0011C15.9992 11.1011 16.8992 12.0011 17.9992 12.0011C19.0992 12.0011 19.9992 11.1011 19.9992 10.0011V8.0011C21.0992 8.0011 21.9992 7.1011 21.9992 6.0011C21.9992 4.9011 21.0992 4.0011 19.9992 4.0011H11.6492ZM5.99921 8.0011C4.89921 8.0011 3.99921 7.1011 3.99921 6.0011C3.99921 4.9011 4.89921 4.0011 5.99921 4.0011C7.09921 4.0011 7.99921 4.9011 7.99921 6.0011C7.99921 7.1011 7.09921 8.0011 5.99921 8.0011Z"
            />
        </g>
    </symbol>
    <symbol id="MessageTextarea" viewBox="0 0 19 19">
        <g>
            <path fill="currentColor"
                  d="M13.775,8.63336735 L5.225,8.63336735 C4.94,8.63336735 4.75,8.82530612 4.75,9.1122449 C4.75,9.39918367 4.94,9.59112245 5.225,9.59112245 L13.775,9.59112245 C14.06,9.59112245 14.25,9.39918367 14.25,9.1122449 C14.25,8.82530612 14.06,8.63336735 13.775,8.63336735 L13.775,8.63336735 Z M17.1,0.0174489796 L1.9,0.0174489796 C0.855,0.0174489796 0,0.878265306 0,1.93295918 L0,13.4221429 C0,14.474898 0.855,15.3376531 1.9,15.3376531 L11.4,15.3376531 L14.06,18.0189796 C14.2034694,18.162449 14.345,18.2109184 14.535,18.2109184 C14.8684694,18.2109184 15.2,17.9239796 15.2,17.540102 L15.2,15.3357143 L17.1,15.3357143 C18.145,15.3357143 19,14.474898 19,13.4202041 L19,1.93102041 C19,0.878265306 18.145,0.0174489796 17.1,0.0174489796 L17.1,0.0174489796 Z M18.05,13.4202041 C18.05,13.947551 17.6215306,14.3779592 17.1,14.3779592 L15.2,14.3779592 L14.25,14.3779592 L14.25,15.3357143 L14.25,16.8673469 L12.065,14.664898 L11.78,14.3779592 L11.4,14.3779592 L1.9,14.3779592 C1.37653061,14.3779592 0.95,13.947551 0.95,13.4202041 L0.95,1.93102041 C0.95,1.40367347 1.37653061,0.973265306 1.9,0.973265306 L17.1,0.973265306 C17.6215306,0.973265306 18.05,1.40367347 18.05,1.93102041 L18.05,13.4202041 L18.05,13.4202041 Z M13.775,5.76204082 L5.225,5.76204082 C4.94,5.76204082 4.75,5.95397959 4.75,6.24091837 C4.75,6.52785714 4.94,6.71979592 5.225,6.71979592 L13.775,6.71979592 C14.06,6.71979592 14.25,6.52785714 14.25,6.24091837 C14.25,5.95204082 14.06,5.76204082 13.775,5.76204082 L13.775,5.76204082 Z"
            />
        </g>
    </symbol>

    
</svg>