<svg display="none" xmlns="http://www.w3.org/2000/svg">
    <symbol id="TelephoneIcon" viewBox="0 0 14 14">
        <g> <path fill="currentColor"
                  d="M11 14s.475 0 0 0c-1.914-.077-4.724-2.404-7-4C2.401 7.718.077 4.906 0 3-.025 1.718 2.018.222 2 0c.494-.11 1.106-.05 1 0 .52.522 2.08 2.891 2 3 .421.427.394.827 0 1 .057.467-.36 1.202-1 2 .65-.2 1.19.52 2 2 1.48.812 2.194 1.348 2 2 .79-.642 1.525-1.062 2-1 .152-.392.558-.423 1 0 .107-.088 2.47 1.485 3 2-.137-.24-.026-.03 0 0 .018.464-.058.73 0 1-.235-.021-1.71 2-3 2 .494 0 0 0 0 0z"/>
            />
        </g>
    </symbol>
    <symbol id="CategoryBurger" viewBox="0 0 21 14">
        <g>
            <path fill="currentColor"
                  d="M0 1a1 1 0 0 1 1-1h19a1 1 0 0 1 0 2H1a1 1 0 0 1-1-1z"
            />
            <path fill="currentColor"
                  d="M0 7a1 1 0 0 1 1-1h19a1 1 0 0 1 0 2H1a1 1 0 0 1-1-1z"
            />
            <path fill="currentColor"
                  d="M0 13a1 1 0 0 1 1-1h19a1 1 0 0 1 0 2H1a1 1 0 0 1-1-1z"
            />
        </g>
    </symbol>
    <symbol id="SearchIconBtn" viewBox="0 0 24 24">
        <g>
            <path fill="currentColor" d="M9.5,3A6.5,6.5 0 0,1 16,9.5C16,11.11 15.41,12.59 14.44,13.73L14.71,14H15.5L20.5,19L19,20.5L14,15.5V14.71L13.73,14.44C12.59,15.41 11.11,16 9.5,16A6.5,6.5 0 0,1 3,9.5A6.5,6.5 0 0,1 9.5,3M9.5,5C7,5 5,7 5,9.5C5,12 7,14 9.5,14C12,14 14,12 14,9.5C14,7 12,5 9.5,5Z" />

        </g>
    </symbol>
    <symbol id="SearchClose" viewBox="0 0 8 8">
        <g>
            <path fill="currentColor" stroke="#3b245a"
                  d="M1 1l5.657 5.657"
            />
            <path fill="currentColor" stroke="#3b245a"
                  d="M6.657 1L1 6.657"
            />
        </g>
    </symbol>
    <symbol id="PercentIcon" viewBox="0 0 18 15">
        <g>
            <path fill="currentColor"
                  d="M12.822.098C12.33-.128 11.73.05 11.48.493L4.049 13.69c-.25.444-.054.987.437 1.213.146.066.3.098.452.098.364 0 .715-.18.892-.493L13.26 1.31c.25-.444.054-.987-.438-1.213z"/>
            />
            <path fill="currentColor"
                  d="M3.939 5.739c-.894 0-1.621-.707-1.621-1.576 0-.868.727-1.575 1.62-1.575.894 0 1.621.707 1.621 1.575 0 .87-.727 1.576-1.62 1.576zm3.428-1.576C7.367 2.325 5.83.83 3.94.83S.51 2.325.51 4.163s1.538 3.334 3.429 3.334c1.89 0 3.428-1.496 3.428-3.334z"/>
            />
            <path fill="currentColor"
                  d="M14.229 11.581c-.894 0-1.621-.708-1.621-1.578 0-.87.727-1.578 1.62-1.578.894 0 1.621.708 1.621 1.578 0 .87-.727 1.578-1.62 1.578zm0-4.911c-1.89 0-3.429 1.495-3.429 3.333s1.538 3.334 3.429 3.334c1.89 0 3.428-1.496 3.428-3.334S16.12 6.67 14.23 6.67z"/>
            />
        </g>
    </symbol>
    <symbol id="LoginIcon" viewBox="0 0 17 20">
        <g>
            <path fill="currentColor" stroke-width=".5"
                  d="M6.16 3.017c.645-.647 1.4-.962 2.312-.962.911 0 1.667.315 2.312.962.645.648.958 1.408.958 2.323 0 .916-.313 1.675-.958 2.323-.645.648-1.401.963-2.312.963-.911 0-1.667-.315-2.312-.963-.645-.647-.958-1.407-.958-2.323 0-.915.313-1.675.958-2.323zm2.312 6.654a4.175 4.175 0 0 0 3.056-1.27 4.202 4.202 0 0 0 1.266-3.066c0-1.19-.426-2.222-1.266-3.065A4.176 4.176 0 0 0 8.472 1a4.175 4.175 0 0 0-3.056 1.27A4.202 4.202 0 0 0 4.15 5.335c0 1.192.426 2.223 1.266 3.066.84.842 1.869 1.27 3.056 1.27z"/>
            />
            <path fill="currentColor" stroke-width=".5"
                  d="M6.16 3.017c.645-.647 1.4-.962 2.312-.962.911 0 1.667.315 2.312.962.645.648.958 1.408.958 2.323 0 .916-.313 1.675-.958 2.323-.645.648-1.401.963-2.312.963-.911 0-1.667-.315-2.312-.963-.645-.647-.958-1.407-.958-2.323 0-.915.313-1.675.958-2.323zm2.312 6.654a4.175 4.175 0 0 0 3.056-1.27 4.202 4.202 0 0 0 1.266-3.066c0-1.19-.426-2.222-1.266-3.065A4.176 4.176 0 0 0 8.472 1a4.175 4.175 0 0 0-3.056 1.27A4.202 4.202 0 0 0 4.15 5.335c0 1.192.426 2.223 1.266 3.066.84.842 1.869 1.27 3.056 1.27z"/>
            />
            <path fill="currentColor" stroke-width=".5"
                  d="M12.905 17.94h-8.64c-.663 0-1.172-.177-1.555-.543-.376-.359-.558-.849-.558-1.497 0-.338.01-.67.033-.99.021-.314.066-.658.131-1.025.065-.361.147-.7.245-1.008.094-.294.223-.586.382-.867a2.98 2.98 0 0 1 .52-.683c.18-.173.407-.315.674-.42.248-.1.526-.153.829-.161.036.02.102.057.208.127l.741.479c.31.198.71.377 1.188.532.489.159.987.24 1.482.24a4.8 4.8 0 0 0 1.481-.24 5.209 5.209 0 0 0 1.19-.533c.281-.18.524-.337.74-.478.106-.07.172-.107.208-.127.303.008.58.062.829.16.267.106.495.248.675.421.193.185.367.415.52.683.158.281.287.573.38.867.099.308.181.647.246 1.008.066.367.11.712.131 1.025.023.319.034.651.034.99 0 .648-.183 1.138-.558 1.497-.384.366-.892.543-1.556.543zM15.89 13.7a8.986 8.986 0 0 0-.279-1.143 5.659 5.659 0 0 0-.469-1.067 4.02 4.02 0 0 0-.706-.924 3.114 3.114 0 0 0-1.015-.64 3.499 3.499 0 0 0-1.296-.235c-.183 0-.36.076-.703.299-.21.138-.456.297-.731.473-.235.15-.554.291-.947.419a3.75 3.75 0 0 1-1.158.187c-.385 0-.774-.063-1.158-.187a4.174 4.174 0 0 1-.946-.419c-.273-.174-.52-.334-.733-.473-.342-.224-.519-.299-.702-.299-.467 0-.902.08-1.296.236a3.112 3.112 0 0 0-1.015.64 4.02 4.02 0 0 0-.706.923 5.668 5.668 0 0 0-.469 1.067 9.006 9.006 0 0 0-.279 1.143c-.072.404-.12.786-.145 1.138-.024.344-.036.701-.036 1.063 0 .94.298 1.7.885 2.261.58.554 1.347.834 2.28.834h8.64c.933 0 1.7-.28 2.28-.834.588-.56.886-1.322.886-2.261 0-.363-.013-.72-.037-1.064-.024-.35-.073-.733-.145-1.137z"/>
            />
            <path fill="currentColor" stroke-width=".5"
                  d="M12.905 17.94h-8.64c-.663 0-1.172-.177-1.555-.543-.376-.359-.558-.849-.558-1.497 0-.338.01-.67.033-.99.021-.314.066-.658.131-1.025.065-.361.147-.7.245-1.008.094-.294.223-.586.382-.867a2.98 2.98 0 0 1 .52-.683c.18-.173.407-.315.674-.42.248-.1.526-.153.829-.161.036.02.102.057.208.127l.741.479c.31.198.71.377 1.188.532.489.159.987.24 1.482.24a4.8 4.8 0 0 0 1.481-.24 5.209 5.209 0 0 0 1.19-.533c.281-.18.524-.337.74-.478.106-.07.172-.107.208-.127.303.008.58.062.829.16.267.106.495.248.675.421.193.185.367.415.52.683.158.281.287.573.38.867.099.308.181.647.246 1.008.066.367.11.712.131 1.025v0c.023.319.034.651.034.99 0 .648-.183 1.138-.558 1.497-.384.366-.892.543-1.556.543zM15.89 13.7a8.986 8.986 0 0 0-.279-1.143 5.659 5.659 0 0 0-.469-1.067 4.02 4.02 0 0 0-.706-.924 3.114 3.114 0 0 0-1.015-.64 3.499 3.499 0 0 0-1.296-.235c-.183 0-.36.076-.703.299-.21.138-.456.297-.731.473-.235.15-.554.291-.947.419a3.75 3.75 0 0 1-1.158.187c-.385 0-.774-.063-1.158-.187a4.174 4.174 0 0 1-.946-.419c-.273-.174-.52-.334-.733-.473-.342-.224-.519-.299-.702-.299-.467 0-.902.08-1.296.236a3.112 3.112 0 0 0-1.015.64 4.02 4.02 0 0 0-.706.923 5.668 5.668 0 0 0-.469 1.067 9.006 9.006 0 0 0-.279 1.143c-.072.404-.12.786-.145 1.138-.024.344-.036.701-.036 1.063 0 .94.298 1.7.885 2.261.58.554 1.347.834 2.28.834h8.64c.933 0 1.7-.28 2.28-.834.588-.56.886-1.322.886-2.261 0-.363-.013-.72-.037-1.064-.024-.35-.073-.733-.145-1.137z"/>
            />
        </g>
    </symbol>
    <symbol id="CartIcon" viewBox="0 0 17 20">
            <g id="Page-1" stroke="none" stroke-width="1" fill="none" fill-rule="evenodd">
                <g id="Homepage" transform="translate(-522.000000, -2840.000000)" stroke="currentColor">
                    <g id="Group-19-Copy-2" transform="translate(98.000000, 2552.000000)">
                        <g id="product_1" transform="translate(280.000000, 21.000000)">
                            <g id="Group-3" transform="translate(145.000000, 268.000000)">
                                <polyline id="Path-367" stroke-width="2" stroke-linecap="round" stroke-linejoin="round" points="0 0 2.05128205 0 4.92307692 8.8 13.9487179 8.8 16 2.4 2.87179487 2.4"></polyline>
                                <ellipse id="Oval-43" stroke-width="1.3" fill-opacity="0" fill="currentColor" cx="6.35897436" cy="13" rx="1.67564103" ry="1.65"></ellipse>
                                <ellipse id="Oval-43" stroke-width="1.3" fill-opacity="0" fill="currentColor" cx="12.5128205" cy="13" rx="1.67564103" ry="1.65"></ellipse>
                            </g>
                        </g>
                    </g>
                </g>
            </g>
    </symbol>
    <symbol id="FavoriteIcon" viewBox="0 0 18 16">
        <g>
            <path fill="currentColor"
                  d="M9 15l6.485-6.206c2.018-1.93 1.975-4.744.14-6.49C13.791.56 10.825.566 9 2.321 7.175.566 4.209.56 2.375 2.304.54 4.05.497 6.864 2.515 8.794L9 15"
            />
            <path fill="currentColor"
                  d="M9 15l6.485-6.206c2.018-1.93 1.975-4.744.14-6.49C13.791.56 10.825.566 9 2.321 7.175.566 4.209.56 2.375 2.304.54 4.05.497 6.864 2.515 8.794L9 15"
            />
        </g>
    </symbol>
    <symbol id="AdvantagesIcon-1" viewBox="0 0 36 32">
        <g>
            <path fill="currentColor"
                  d="M34.85 13.996a.12.12 0 0 1 .121.118v2.764a.12.12 0 0 1-.12.115H1.15a.12.12 0 0 1-.121-.117v-2.762a.12.12 0 0 1 .12-.116zm0 4.004c.635 0 1.15-.5 1.15-1.114v-2.772c0-.615-.515-1.113-1.15-1.114H1.15C.515 13 0 13.5 0 14.114v2.773C.002 17.502.516 18 1.15 18z"
            />
            <path fill="currentColor"
                  d="M32.88 18.027l-1.86 11.638a1.538 1.538 0 0 1-1.528 1.298H7.509a1.538 1.538 0 0 1-1.53-1.299L4.12 18.027zM29.492 32a2.564 2.564 0 0 0 2.546-2.163l1.956-12.243a.512.512 0 0 0-.51-.594H3.517a.517.517 0 0 0-.51.596l1.956 12.239A2.564 2.564 0 0 0 7.51 32z"
            />
            <path fill="currentColor"
                  d="M24.52 29a.538.538 0 0 1-.514-.618l.96-6.91a.538.538 0 0 1 .32-.432.501.501 0 0 1 .519.078.553.553 0 0 1 .188.51l-.96 6.908a.526.526 0 0 1-.514.464z"
            />
            <path fill="currentColor"
                  d="M18.5 29c-.276 0-.5-.242-.5-.541V21.54c0-.299.224-.541.5-.541s.5.242.5.541v6.918c0 .299-.224.541-.5.541z"
            />
            <path fill="currentColor"
                  d="M11.481 29a.526.526 0 0 1-.512-.463l-.962-6.91a.553.553 0 0 1 .188-.509.501.501 0 0 1 .519-.078.538.538 0 0 1 .32.432l.96 6.91a.538.538 0 0 1-.513.618z"
            />
            <path fill="currentColor"
                  d="M31.49 14c-.198 0-.38-.118-.462-.303L25.71 1.877a1.398 1.398 0 0 0-1.869-.708 1.455 1.455 0 0 0-.693 1.91l4.589 10.185a.528.528 0 0 1-.048.517.505.505 0 0 1-.878-.084L22.222 3.513A2.5 2.5 0 0 1 23.413.226a2.384 2.384 0 0 1 1.858-.072 2.447 2.447 0 0 1 1.362 1.29l5.32 11.82c.073.161.06.348-.033.497a.507.507 0 0 1-.429.239z"
            />
            <path fill="currentColor"
                  d="M5.509 14a.507.507 0 0 1-.429-.239.528.528 0 0 1-.034-.497l5.32-11.82C10.923.202 12.363-.344 13.582.226a2.5 2.5 0 0 1 1.195 3.288l-4.59 10.183a.505.505 0 0 1-.674.255.523.523 0 0 1-.25-.688L13.851 3.08a1.455 1.455 0 0 0-.695-1.912 1.399 1.399 0 0 0-1.866.708L5.97 13.697A.509.509 0 0 1 5.51 14z"
            />
        </g>
    </symbol>
    <symbol id="AdvantagesIcon-2" viewBox="0 0 36 32">
        <g>
            <path fill="currentColor"
                  d="M10.9006 26.9358C11.0652 26.9791 11.2346 27.0007 11.4048 27C11.9947 26.9572 12.5714 26.8045 13.1052 26.5497C13.5434 26.3379 14.0156 26.2054 14.5 26.1582C14.9849 26.2043 15.4578 26.3358 15.8968 26.5468C16.6157 26.8336 17.3583 27.1298 18.1024 26.9323C18.8761 26.7255 19.3802 26.0817 19.8675 25.4592C20.1285 25.0728 20.4552 24.7351 20.8328 24.4614C21.2657 24.2658 21.7297 24.148 22.2034 24.1134L22.2054 24.1131C22.9795 24.0011 23.7799 23.8853 24.3354 23.3299C24.891 22.7744 25.0068 21.9739 25.1188 21.1993L25.119 21.1977C25.1529 20.7241 25.2699 20.2602 25.4646 19.8272C25.7384 19.4497 26.0761 19.1231 26.4625 18.862L26.4632 18.8615C27.0851 18.3744 27.7285 17.8704 27.9353 17.0966C28.1341 16.3543 27.8377 15.6121 27.5511 14.8945L27.5502 14.8923C27.3382 14.454 27.2056 13.9816 27.1587 13.4971C27.2057 13.0126 27.3381 12.5403 27.5497 12.1019C27.8366 11.3831 28.1328 10.6401 27.9353 9.89711C27.7284 9.1235 27.0851 8.61945 26.4625 8.13217C26.0761 7.87098 25.7383 7.54416 25.4646 7.16652C25.2692 6.73359 25.1514 6.26972 25.1165 5.79604L25.1163 5.79407C25.0043 5.02008 24.8885 4.21971 24.333 3.66429C23.7774 3.10878 22.9768 2.99303 22.2021 2.88103L22.2005 2.8808C21.727 2.84681 21.2633 2.72983 20.8303 2.53522C20.4528 2.26159 20.1261 1.9239 19.8651 1.53748C19.3777 0.914934 18.8731 0.271163 18.0994 0.0643077C17.3559 -0.133662 16.6133 0.162552 15.8949 0.449879C15.4567 0.661554 14.9844 0.793933 14.5 0.840881C14.0154 0.794514 13.5428 0.662635 13.1042 0.45136L13.1037 0.451149C12.385 0.164381 11.6431 -0.131638 10.8987 0.0657888C10.1255 0.272645 9.62086 0.915921 9.13354 1.53846C8.87256 1.92489 8.54586 2.26258 8.16827 2.53621C7.73538 2.7319 7.27142 2.84988 6.79763 2.88475C6.02344 2.99633 5.22061 3.11234 4.66466 3.66824C4.10908 4.22375 3.99332 5.02429 3.88131 5.79888L3.88108 5.80048C3.84723 6.27405 3.73024 6.73796 3.53546 7.17096C3.26166 7.54839 2.92396 7.87503 2.53761 8.13612L2.5369 8.13667C1.915 8.62377 1.27157 9.12774 1.06477 9.90156C0.865786 10.6446 1.16302 11.3876 1.45038 12.1059C1.66199 12.5442 1.79438 13.0166 1.84143 13.501C1.79438 13.9855 1.66199 14.4578 1.45038 14.8962C1.16351 15.6145 0.867268 16.3575 1.06477 17.1005C1.27164 17.8746 1.91499 18.3787 2.53761 18.866C2.92401 19.127 3.26172 19.4536 3.53546 19.8311C3.73085 20.2641 3.84867 20.7279 3.88355 21.2016L3.88383 21.2036C3.99583 21.978 4.11163 22.7789 4.66712 23.3338C5.22278 23.8889 6.02306 24.0046 6.79784 24.1167L6.79911 24.1168C7.27287 24.1516 7.73683 24.2694 8.16975 24.4649C8.54734 24.7385 8.87404 25.0762 9.13502 25.4626C9.62234 26.0852 10.127 26.7289 10.9006 26.9358ZM11.1521 1.03065C11.2337 1.00954 11.3178 0.999248 11.4021 1.00004C11.8657 1.04769 12.3176 1.17531 12.7376 1.37723C13.2907 1.64078 13.8887 1.79757 14.5001 1.83933C15.1111 1.79797 15.7089 1.64169 16.262 1.37871C16.7457 1.1128 17.2958 0.99179 17.8465 1.03016C18.3001 1.15161 18.685 1.64037 19.0907 2.15776C19.425 2.64715 19.8485 3.06922 20.3393 3.40187C20.8797 3.66549 21.465 3.82509 22.0646 3.87236C22.6279 3.88399 23.1756 4.05931 23.6408 4.37692C23.9594 4.84133 24.1357 5.38841 24.1482 5.95132C24.1954 6.55065 24.3553 7.13572 24.6196 7.6758C24.9523 8.16642 25.3747 8.58986 25.8647 8.92386C26.3825 9.32721 26.8712 9.7118 26.9932 10.1665C27.0312 10.7169 26.9101 11.2666 26.6444 11.7503C26.3806 12.3031 26.2237 12.9007 26.1819 13.5118C26.2237 14.1228 26.3806 14.7204 26.6444 15.2733C26.9101 15.7566 27.0311 16.306 26.9932 16.8561C26.8712 17.3093 26.382 17.6939 25.8642 18.0992C25.3735 18.433 24.9504 18.8565 24.6171 19.3473C24.353 19.8872 24.1932 20.4721 24.1462 21.0712C24.1344 21.634 23.9591 22.1811 23.6418 22.6461C23.1764 22.9634 22.6288 23.1385 22.0656 23.1502C21.466 23.1973 20.8807 23.3569 20.3402 23.6207C19.8494 23.9534 19.4257 24.3754 19.0912 24.8648C18.6875 25.3827 18.3026 25.8714 17.8475 25.9929C17.2966 26.0318 16.7462 25.9107 16.2625 25.6443C15.7094 25.3808 15.1114 25.224 14.5001 25.1822C13.8877 25.2236 13.2888 25.3802 12.7347 25.6438C12.251 25.909 11.7015 26.0302 11.1511 25.9929C10.697 25.8714 10.3121 25.3822 9.90646 24.8648C9.57208 24.3756 9.14851 23.9537 8.65789 23.6212C8.11728 23.3574 7.53178 23.1978 6.93202 23.1507C6.36899 23.1389 5.82155 22.9638 5.35635 22.6466C5.03882 22.1817 4.86354 21.6345 4.85188 21.0717C4.8047 20.4724 4.64479 19.8873 4.38052 19.3473C4.04784 18.8569 3.62559 18.4336 3.1359 18.0997C2.61809 17.6958 2.12893 17.3113 2.00689 16.8566C1.96889 16.3063 2.08997 15.7567 2.35572 15.2733C2.61952 14.7204 2.77643 14.1228 2.81819 13.5118C2.77643 12.9007 2.61952 12.3031 2.35572 11.7503C2.08994 11.2668 1.96886 10.7172 2.00689 10.167C2.12893 9.71426 2.61759 9.32918 3.1359 8.92435C3.62685 8.59055 4.0503 8.16711 4.38398 7.67629C4.64811 7.13636 4.80787 6.55145 4.85485 5.9523C4.86669 5.38943 5.04195 4.84212 5.35932 4.37692C5.82442 4.06005 6.37168 3.8851 6.93449 3.87335C7.5341 3.82593 8.11941 3.66615 8.65986 3.40237C9.15031 3.06976 9.57371 2.64788 9.90794 2.15875C10.3121 1.64086 10.697 1.1521 11.1521 1.03065Z"
            />
            <path fill="currentColor"
                  d="M6.00005 13C6.00005 17.9706 10.0295 22 15 22C19.9684 21.9946 23.9947 17.9683 24 13C24 8.02944 19.9706 4 15 4C10.0295 4 6.00005 8.02944 6.00005 13ZM7.00005 13C7.00005 8.58172 10.5818 5 15 5C19.4163 5.00482 22.9952 8.58372 23 13C23 17.4183 19.4183 21 15 21C10.5818 21 7.00005 17.4183 7.00005 13Z"
            />
            <path fill="currentColor"
                  d="M18.3736 34C18.1754 34 17.9978 33.8765 17.927 33.6895L14.8316 25.5082C14.8107 25.4532 14.8 25.3947 14.8001 25.3358C14.7973 25.0934 14.9728 24.8865 15.2104 24.8521C15.448 24.8178 15.674 24.9666 15.7386 25.2001L18.4869 32.4645L20.1326 29.9385C20.2456 29.7652 20.4556 29.6841 20.6543 29.7372L23.5412 30.5098L20.9387 23.6467C20.8505 23.3994 20.9743 23.1263 21.2173 23.0321C21.4604 22.938 21.7333 23.0575 21.8314 23.301L24.7685 31.0429C24.8326 31.212 24.7975 31.4032 24.6776 31.5379C24.5578 31.6727 24.3734 31.7284 24.2 31.6822L20.7422 30.7599L18.7728 33.7827C18.6844 33.9183 18.5344 34 18.3736 34Z"
            />
            <path fill="currentColor"
                  d="M10.583 34C10.4384 34 10.3034 33.9184 10.2238 33.783L8.45157 30.7646L5.33999 31.6856C5.18395 31.7317 5.01801 31.676 4.91019 31.5415C4.80237 31.407 4.7708 31.2161 4.82841 31.0472L7.4663 23.3223C7.51821 23.1568 7.64626 23.0359 7.80064 23.0067C7.95502 22.9775 8.11137 23.0446 8.20886 23.1819C8.30636 23.3192 8.32961 23.505 8.26958 23.6671L5.93201 30.5139L8.53031 29.7424C8.70908 29.6894 8.89806 29.7704 8.99972 29.9435L10.4806 32.4657L12.9632 25.1893C13.0316 24.9677 13.2323 24.8334 13.4388 24.871C13.6453 24.9086 13.7978 25.1072 13.8 25.3416C13.8001 25.4024 13.7905 25.4626 13.7717 25.5196L10.9849 33.69C10.9212 33.8767 10.7614 34 10.583 34Z"
            />
            <path fill="currentColor"
                  d="M10.2751 18C10.083 18 9.90975 17.8842 9.83622 17.7068C9.7627 17.5294 9.80333 17.3251 9.93918 17.1893L16.9831 10.145C17.1024 10.0215 17.2791 9.97203 17.4452 10.0155C17.6113 10.059 17.7411 10.1886 17.7846 10.3547C17.828 10.5207 17.7785 10.6973 17.655 10.8166L10.611 17.8618C10.5218 17.9505 10.401 18.0002 10.2751 18Z"
            />
            <path fill="currentColor"
                  d="M15.1143 17.074C15.3464 17.6345 15.8934 18 16.5001 18C17.3285 18 18 17.3284 18 16.5C18 15.8933 17.6346 15.3464 17.0741 15.1142C16.5136 14.8821 15.8684 15.0104 15.4394 15.4394C15.0104 15.8684 14.8821 16.5135 15.1143 17.074ZM16.0381 16.3087C16.1155 16.1218 16.2978 16 16.5001 16C16.7762 16 17 16.2239 17 16.5C17 16.7022 16.8782 16.8845 16.6914 16.9619C16.5046 17.0393 16.2895 16.9965 16.1465 16.8535C16.0035 16.7105 15.9607 16.4955 16.0381 16.3087Z"
            />
            <path fill="currentColor"
                  d="M11 10.5C11 11.3284 11.6716 12 12.5 12C13.3285 12 14 11.3284 14 10.5C14 9.67157 13.3285 9 12.5 9C11.6716 9 11 9.67157 11 10.5ZM12.0381 10.309C12.1155 10.1223 12.2978 10.0005 12.5001 10.0005V10C12.6328 10 12.76 10.0527 12.8538 10.1466C12.9476 10.2404 13.0002 10.3676 13 10.5003C13 10.7024 12.8782 10.8846 12.6914 10.9619C12.5046 11.0393 12.2895 10.9965 12.1465 10.8536C12.0035 10.7107 11.9607 10.4958 12.0381 10.309Z"
            />
        </g>
    </symbol>
    <symbol id="AdvantagesIcon-3" viewBox="0 0 36 32">
        <g>
            <path fill="currentColor"
                  d="M0.889497 26H26.7943C27.0047 26 27.1752 25.8255 27.1752 25.6103V6.80529C27.1752 6.59006 27.0047 6.41559 26.7943 6.41559H0.889497C0.679103 6.41559 0.508545 6.59006 0.508545 6.80529V25.6103C0.508545 25.8255 0.679103 26 0.889497 26ZM26.4133 25.2206H1.27045V7.19499H26.4133V25.2206Z"
            />
            <path fill="currentColor"
                  d="M0.889499 7.42857H26.7943C26.9386 7.42857 27.0705 7.34723 27.135 7.21847C27.1995 7.08971 27.1856 6.93562 27.099 6.82045L22.0853 0.15203C22.0134 0.0563249 21.9005 0 21.7805 0H5.90321C5.78331 0 5.6704 0.0563249 5.59845 0.15203L0.584738 6.82045C0.498161 6.93562 0.484235 7.08971 0.548765 7.21847C0.613296 7.34723 0.745205 7.42857 0.889499 7.42857ZM26.0324 6.66842H1.6514L6.09369 0.760151H21.5901L26.0324 6.66842Z"
            />
            <path fill="currentColor"
                  d="M10.2281 7.42743H16.7893V7.42857C16.9052 7.42859 17.015 7.37732 17.0884 7.28893C17.1617 7.20053 17.1908 7.08437 17.1676 6.97255L15.8167 0.304014C15.78 0.127053 15.6219 -3.68543e-05 15.4385 0H11.5789C11.3955 -3.68543e-05 11.2374 0.127053 11.2007 0.304014L9.84984 6.97141C9.82666 7.08323 9.85575 7.19939 9.92907 7.28779C10.0024 7.37618 10.1122 7.42745 10.2281 7.42743ZM16.3189 6.6674H10.6986L11.8954 0.760034H15.122L16.3189 6.6674Z"
            />
            <path fill="currentColor"
                  d="M16.5451 14.7656C16.614 14.8248 16.7003 14.8571 16.7894 14.8571C17.0026 14.8571 17.1754 14.6758 17.1754 14.4521V6.82067C17.1754 6.59695 17.0026 6.41559 16.7894 6.41559H10.228C10.0148 6.41559 9.84204 6.59695 9.84204 6.82067V14.4521C9.84206 14.6085 9.92796 14.751 10.0627 14.8181C10.1974 14.8851 10.3569 14.8647 10.4723 14.7656L13.5087 12.1613L16.5451 14.7656ZM13.753 11.3248C13.6841 11.2656 13.5978 11.2333 13.5087 11.2333C13.4197 11.2332 13.3334 11.2654 13.2644 11.3244L10.614 13.5977V7.22576H16.4034V13.5977L13.753 11.3248Z"
            />
        </g>
    </symbol>
    <symbol id="AccountUser" viewBox="0 0 24 24">
        <g>
            <path fill="currentColor"
                  d="M12.6981 9.22281C11.7645 10.1594 10.6221 10.6341 9.30268 10.6341C7.98356 10.6341 6.8412 10.1592 5.90738 9.22296C4.97386 8.28653 4.50049 7.14059 4.50049 5.81689C4.50049 4.4935 4.97386 3.34756 5.90738 2.41113C6.84089 1.4747 7.9831 1 9.30268 1C10.622 1 11.7643 1.4747 12.698 2.41098C13.6317 3.34772 14.1049 4.49365 14.1049 5.81689C14.1049 7.14059 13.6315 8.28638 12.6981 9.22281ZM9.30268 2.17203C8.29022 2.17203 7.44995 2.5213 6.73365 3.23984C6.0172 3.95853 5.66886 4.80157 5.66886 5.81689C5.66886 6.83252 6.0172 7.67557 6.73365 8.3941C7.45025 9.11264 8.29052 9.46207 9.30268 9.46207C10.315 9.46207 11.1554 9.11279 11.8719 8.3941C12.5882 7.67542 12.9365 6.83252 12.9365 5.81689C12.9365 4.80157 12.5882 3.95853 11.8719 3.23984C11.1554 2.5213 10.315 2.17203 9.30268 2.17203Z"
            />
            <path fill="currentColor"
                  d="M12.6981 9.22281L12.8752 9.39931L12.8752 9.39929L12.6981 9.22281ZM5.90738 9.22296L5.73032 9.39946L5.73037 9.39951L5.90738 9.22296ZM5.90738 2.41113L5.73032 2.23463L5.90738 2.41113ZM12.698 2.41098L12.8751 2.23449L12.875 2.23445L12.698 2.41098ZM6.73365 3.23984L6.9107 3.41634L6.73365 3.23984ZM6.73365 8.3941L6.55662 8.57062L6.55664 8.57064L6.73365 8.3941ZM11.8719 8.3941L12.0489 8.5706L12.0489 8.57059L11.8719 8.3941ZM11.8719 3.23984L12.0489 3.06336L12.0489 3.06332L11.8719 3.23984ZM9.30268 10.8841C10.6887 10.8841 11.8947 10.3828 12.8752 9.39931L12.5211 9.04631C11.6342 9.93595 10.5555 10.3841 9.30268 10.3841V10.8841ZM5.73037 9.39951C6.71095 10.3827 7.91694 10.8841 9.30268 10.8841V10.3841C8.05018 10.3841 6.97144 9.93581 6.08439 9.04642L5.73037 9.39951ZM4.25049 5.81689C4.25049 7.20669 4.75004 8.41612 5.73032 9.39946L6.08443 9.04646C5.19768 8.15694 4.75049 7.0745 4.75049 5.81689H4.25049ZM5.73032 2.23463C4.75005 3.21797 4.25049 4.4274 4.25049 5.81689H4.75049C4.75049 4.5596 5.19768 3.47716 6.08443 2.58763L5.73032 2.23463ZM9.30268 0.75C7.91652 0.75 6.71064 1.25125 5.73032 2.23463L6.08443 2.58763C6.97114 1.69815 8.04969 1.25 9.30268 1.25V0.75ZM12.875 2.23445C11.8946 1.25125 10.6885 0.75 9.30268 0.75V1.25C10.5554 1.25 11.6341 1.69815 12.521 2.58751L12.875 2.23445ZM14.3549 5.81689C14.3549 4.42755 13.8555 3.21814 12.8751 2.23449L12.5209 2.58747C13.4078 3.4773 13.8549 4.55975 13.8549 5.81689H14.3549ZM12.8752 9.39929C13.8553 8.41596 14.3549 7.2067 14.3549 5.81689H13.8549C13.8549 7.07449 13.4077 8.15679 12.5211 9.04632L12.8752 9.39929ZM6.9107 3.41634C7.58021 2.74474 8.35682 2.42203 9.30268 2.42203V1.92203C8.22362 1.92203 7.31969 2.29786 6.5566 3.06334L6.9107 3.41634ZM5.91886 5.81689C5.91886 4.86771 6.241 4.08814 6.9107 3.41634L6.5566 3.06334C5.79341 3.82891 5.41886 4.73544 5.41886 5.81689H5.91886ZM6.91069 8.21758C6.24101 7.54595 5.91886 6.7664 5.91886 5.81689H5.41886C5.41886 6.89864 5.7934 7.80518 6.55662 8.57062L6.91069 8.21758ZM9.30268 9.21207C8.35717 9.21207 7.58053 8.88923 6.91067 8.21757L6.55664 8.57064C7.31998 9.33605 8.22388 9.71207 9.30268 9.71207V9.21207ZM11.6948 8.2176C11.0251 8.88936 10.2484 9.21207 9.30268 9.21207V9.71207C10.3816 9.71207 11.2857 9.33623 12.0489 8.5706L11.6948 8.2176ZM12.6865 5.81689C12.6865 6.76639 12.3644 7.54581 11.6948 8.21762L12.0489 8.57059C12.812 7.80502 13.1865 6.89865 13.1865 5.81689H12.6865ZM11.6948 3.41632C12.3644 4.08813 12.6865 4.8677 12.6865 5.81689H13.1865C13.1865 4.73545 12.812 3.82893 12.0489 3.06336L11.6948 3.41632ZM9.30268 2.42203C10.2484 2.42203 11.0252 2.74474 11.6948 3.41636L12.0489 3.06332C11.2857 2.29786 10.3816 1.92203 9.30268 1.92203V2.42203Z"
            />
            <path fill="currentColor"
                  d="M17.5436 15.1154C17.6238 15.5643 17.6782 15.9894 17.7051 16.3791C17.7318 16.76 17.7453 17.1575 17.7454 17.5605C17.7454 18.6048 17.4146 19.4503 16.762 20.0731C16.1175 20.6882 15.2651 21.0001 14.2284 21.0001H4.62832C3.59137 21.0001 2.73893 20.6882 2.09458 20.0731C1.44217 19.4498 1.11133 18.6046 1.11133 17.5606C1.11133 17.159 1.12471 16.7615 1.15118 16.3796C1.17811 15.989 1.23241 15.5637 1.31273 15.1154C1.39365 14.6631 1.49785 14.2357 1.62243 13.8449C1.75142 13.4407 1.92665 13.042 2.14311 12.6598C2.36763 12.2632 2.63169 11.9179 2.92801 11.6335C3.23817 11.3358 3.61769 11.0967 4.05607 10.9226C4.49309 10.7489 4.97742 10.6609 5.49582 10.6609C5.69935 10.6609 5.89618 10.7447 6.27601 10.9929C6.51345 11.1481 6.78726 11.3251 7.08981 11.519C7.35053 11.686 7.70449 11.8424 8.14106 11.9838C8.56773 12.1222 9.00065 12.1924 9.42778 12.1924C9.85521 12.1924 10.2881 12.1222 10.7145 11.9838C11.1515 11.8422 11.5053 11.6858 11.7665 11.5189C12.0719 11.3231 12.3456 11.1461 12.5795 10.9931C12.9597 10.7448 13.1565 10.661 13.36 10.661C13.8783 10.661 14.3628 10.7489 14.7999 10.9224C15.2386 11.0968 15.618 11.3359 15.9278 11.6333C16.2242 11.9176 16.4882 12.2631 16.7129 12.6598C16.9297 13.042 17.1047 13.4409 17.2337 13.8448C17.3585 14.2356 17.4627 14.6631 17.5436 15.1154ZM14.2283 19.8281C14.9654 19.8281 15.5307 19.6305 15.9564 19.224C16.374 18.8254 16.5769 18.2813 16.5771 17.5606C16.5769 17.1848 16.5644 16.8149 16.5396 16.4611V16.4608C16.5156 16.1129 16.4663 15.7299 16.3936 15.3223C16.3218 14.9208 16.2301 14.5439 16.121 14.2021C16.0167 13.8752 15.874 13.5509 15.6971 13.2389C15.5284 12.941 15.3343 12.6857 15.1201 12.4802C14.9198 12.2879 14.6673 12.1303 14.3699 12.0122C14.0946 11.903 13.7853 11.8431 13.4495 11.8341C13.4086 11.856 13.3357 11.8978 13.2177 11.9748C12.9775 12.132 12.7084 12.3059 12.3952 12.5067C12.0497 12.7277 11.6054 12.9268 11.0739 13.0991C10.5314 13.275 9.97751 13.3644 9.42793 13.3644C8.87835 13.3644 8.32466 13.275 7.78177 13.0989C7.25074 12.927 6.80627 12.7277 6.46128 12.507C6.15523 12.311 5.87838 12.1318 5.6382 11.9748C5.52016 11.8976 5.4473 11.856 5.40638 11.8341C5.07067 11.8431 4.76142 11.903 4.48625 12.0122C4.18872 12.1303 3.93621 12.2878 3.73588 12.4802C3.5217 12.6859 3.32761 12.9412 3.15892 13.2387C2.98216 13.5509 2.83963 13.875 2.73513 14.2023C2.62622 14.5436 2.53465 14.9207 2.4627 15.3224C2.38983 15.7292 2.3407 16.1121 2.31667 16.4606C2.29203 16.8158 2.2797 17.1859 2.2797 17.5606C2.2797 18.2811 2.48262 18.8254 2.90017 19.2241C3.32578 19.6305 3.89103 19.8281 4.62832 19.8281H14.2283Z"
            />
            <path fill="currentColor"
                  d="M17.7051 16.3791L17.4557 16.3964L17.4557 16.3966L17.7051 16.3791ZM17.5436 15.1154L17.7897 15.0714L17.7897 15.0714L17.5436 15.1154ZM17.7454 17.5605H17.9954V17.5604L17.7454 17.5605ZM16.762 20.0731L16.9346 20.254L16.9346 20.254L16.762 20.0731ZM2.09458 20.0731L1.92188 20.2539L1.92196 20.254L2.09458 20.0731ZM1.15118 16.3796L1.40058 16.3969L1.40059 16.3968L1.15118 16.3796ZM1.31273 15.1154L1.55881 15.1595L1.55882 15.1594L1.31273 15.1154ZM1.62243 13.8449L1.38426 13.7689L1.38424 13.769L1.62243 13.8449ZM2.14311 12.6598L2.36065 12.783L2.36066 12.783L2.14311 12.6598ZM2.92801 11.6335L2.75489 11.4531L2.75489 11.4531L2.92801 11.6335ZM4.05607 10.9226L4.14835 11.1549L4.14839 11.1549L4.05607 10.9226ZM6.27601 10.9929L6.13923 11.2022L6.13924 11.2022L6.27601 10.9929ZM7.08981 11.519L6.95489 11.7295L6.955 11.7296L7.08981 11.519ZM8.14106 11.9838L8.21819 11.746L8.21811 11.746L8.14106 11.9838ZM10.7145 11.9838L10.6374 11.746L10.6373 11.746L10.7145 11.9838ZM11.7665 11.5189L11.9011 11.7295L11.9014 11.7294L11.7665 11.5189ZM12.5795 10.9931L12.4428 10.7838L12.4427 10.7839L12.5795 10.9931ZM14.7999 10.9224L14.8923 10.6901L14.8922 10.6901L14.7999 10.9224ZM15.9278 11.6333L15.7547 11.8137L15.7548 11.8137L15.9278 11.6333ZM16.7129 12.6598L16.4954 12.783L16.4954 12.7831L16.7129 12.6598ZM17.2337 13.8448L17.4719 13.7688L17.4719 13.7687L17.2337 13.8448ZM15.9564 19.224L15.7838 19.0431L15.7838 19.0431L15.9564 19.224ZM16.5771 17.5606L16.8271 17.5607V17.5605L16.5771 17.5606ZM16.5396 16.4611H16.2896V16.4698L16.2903 16.4785L16.5396 16.4611ZM16.5396 16.4608H16.7896V16.4521L16.7891 16.4435L16.5396 16.4608ZM16.3936 15.3223L16.6397 15.2784L16.6397 15.2783L16.3936 15.3223ZM16.121 14.2021L16.3592 14.1262L16.3592 14.1261L16.121 14.2021ZM15.6971 13.2389L15.4796 13.3621L15.4796 13.3622L15.6971 13.2389ZM15.1201 12.4802L14.947 12.6606L14.947 12.6606L15.1201 12.4802ZM14.3699 12.0122L14.4622 11.7799L14.4621 11.7798L14.3699 12.0122ZM13.4495 11.8341L13.4562 11.5842L13.3901 11.5825L13.3318 11.6135L13.4495 11.8341ZM13.2177 11.9748L13.081 11.7655L13.0808 11.7656L13.2177 11.9748ZM12.3952 12.5067L12.5299 12.7174L12.5301 12.7172L12.3952 12.5067ZM11.0739 13.0991L10.9969 12.8613L10.9968 12.8613L11.0739 13.0991ZM7.78177 13.0989L7.8589 12.8611L7.85879 12.8611L7.78177 13.0989ZM6.46128 12.507L6.32642 12.7176L6.32658 12.7177L6.46128 12.507ZM5.6382 11.9748L5.50135 12.184L5.5014 12.1841L5.6382 11.9748ZM5.40638 11.8341L5.52401 11.6135L5.46572 11.5825L5.39968 11.5842L5.40638 11.8341ZM4.48625 12.0122L4.57848 12.2446L4.5785 12.2446L4.48625 12.0122ZM3.73588 12.4802L3.90905 12.6605L3.90906 12.6605L3.73588 12.4802ZM3.15892 13.2387L2.94144 13.1154L2.94136 13.1155L3.15892 13.2387ZM2.73513 14.2023L2.49697 14.1263L2.49696 14.1263L2.73513 14.2023ZM2.4627 15.3224L2.70878 15.3665L2.70878 15.3665L2.4627 15.3224ZM2.31667 16.4606L2.56607 16.4779L2.56608 16.4778L2.31667 16.4606ZM2.90017 19.2241L2.72752 19.4049L2.72754 19.4049L2.90017 19.2241ZM17.9545 16.3619C17.9269 15.9618 17.8712 15.5277 17.7897 15.0714L17.2975 15.1593C17.3763 15.6009 17.4295 16.017 17.4557 16.3964L17.9545 16.3619ZM17.9954 17.5604C17.9953 17.1519 17.9816 16.7486 17.9545 16.3617L17.4557 16.3966C17.4819 16.7713 17.4953 17.163 17.4954 17.5606L17.9954 17.5604ZM16.9346 20.254C17.6445 19.5764 17.9954 18.6613 17.9954 17.5605H17.4954C17.4954 18.5482 17.1847 19.3241 16.5894 19.8923L16.9346 20.254ZM14.2284 21.2501C15.3181 21.2501 16.2361 20.9207 16.9346 20.254L16.5894 19.8923C15.999 20.4557 15.2121 20.7501 14.2284 20.7501V21.2501ZM4.62832 21.2501H14.2284V20.7501H4.62832V21.2501ZM1.92196 20.254C2.6204 20.9207 3.53839 21.2501 4.62832 21.2501V20.7501C3.64436 20.7501 2.85746 20.4557 2.26721 19.8923L1.92196 20.254ZM0.861328 17.5606C0.861328 18.6612 1.21226 19.5759 1.92188 20.2539L2.26728 19.8924C1.67209 19.3237 1.36133 18.548 1.36133 17.5606H0.861328ZM0.90178 16.3623C0.874894 16.7503 0.861328 17.1535 0.861328 17.5606H1.36133C1.36133 17.1645 1.37453 16.7727 1.40058 16.3969L0.90178 16.3623ZM1.06664 15.0713C0.984979 15.5271 0.929408 15.9615 0.901773 16.3624L1.40059 16.3968C1.4268 16.0165 1.47984 15.6003 1.55881 15.1595L1.06664 15.0713ZM1.38424 13.769C1.25596 14.1714 1.14926 14.6095 1.06663 15.0714L1.55882 15.1594C1.63803 14.7167 1.73973 14.3001 1.86062 13.9209L1.38424 13.769ZM1.92557 12.5366C1.70095 12.9332 1.51868 13.3477 1.38426 13.7689L1.86059 13.9209C1.98416 13.5337 2.15236 13.1508 2.36065 12.783L1.92557 12.5366ZM2.75489 11.4531C2.43926 11.7561 2.16073 12.1212 1.92555 12.5366L2.36066 12.783C2.57452 12.4052 2.82413 12.0797 3.10113 11.8138L2.75489 11.4531ZM3.9638 10.6902C3.49832 10.8751 3.09058 11.1309 2.75489 11.4531L3.10113 11.8138C3.38576 11.5406 3.73705 11.3183 4.14835 11.1549L3.9638 10.6902ZM5.49582 10.4109C4.94904 10.4109 4.43302 10.5038 3.96376 10.6902L4.14839 11.1549C4.55317 10.9941 5.0058 10.9109 5.49582 10.9109V10.4109ZM6.41278 10.7837C6.03132 10.5343 5.77968 10.4109 5.49582 10.4109V10.9109C5.61901 10.9109 5.76104 10.955 6.13923 11.2022L6.41278 10.7837ZM7.22472 11.3086C6.92263 11.1149 6.64946 10.9383 6.41277 10.7836L6.13924 11.2022C6.37744 11.3579 6.65188 11.5353 6.95489 11.7295L7.22472 11.3086ZM8.21811 11.746C7.79305 11.6083 7.4609 11.4598 7.22461 11.3085L6.955 11.7296C7.24016 11.9122 7.61594 12.0765 8.064 12.2217L8.21811 11.746ZM9.42778 11.9424C9.02813 11.9424 8.62122 11.8767 8.21819 11.746L8.06392 12.2216C8.51425 12.3677 8.97316 12.4424 9.42778 12.4424V11.9424ZM10.6373 11.746C10.2346 11.8767 9.82774 11.9424 9.42778 11.9424V12.4424C9.88268 12.4424 10.3416 12.3677 10.7917 12.2216L10.6373 11.746ZM11.6319 11.3082C11.395 11.4596 11.0629 11.6081 10.6374 11.746L10.7916 12.2217C11.2401 12.0763 11.6157 11.912 11.9011 11.7295L11.6319 11.3082ZM12.4427 10.7839C12.2095 10.9364 11.9366 11.113 11.6316 11.3084L11.9014 11.7294C12.2073 11.5333 12.4817 11.3558 12.7164 11.2023L12.4427 10.7839ZM13.36 10.411C13.0762 10.411 12.8246 10.5345 12.4428 10.7838L12.7163 11.2024C13.0948 10.9552 13.2368 10.911 13.36 10.911V10.411ZM14.8922 10.6901C14.4228 10.5038 13.9066 10.411 13.36 10.411V10.911C13.85 10.911 14.3028 10.9941 14.7077 11.1548L14.8922 10.6901ZM16.101 11.453C15.7656 11.1311 15.358 10.8753 14.8923 10.6901L14.7076 11.1547C15.1192 11.3184 15.4704 11.5408 15.7547 11.8137L16.101 11.453ZM16.9304 12.5366C16.6951 12.1211 16.4166 11.7558 16.1009 11.4529L15.7548 11.8137C16.0317 12.0794 16.2813 12.405 16.4954 12.783L16.9304 12.5366ZM17.4719 13.7687C17.3375 13.3479 17.1554 12.9333 16.9304 12.5365L16.4954 12.7831C16.7039 13.1508 16.872 13.5338 16.9956 13.9208L17.4719 13.7687ZM17.7897 15.0714C17.7071 14.6096 17.6004 14.1712 17.4719 13.7688L16.9956 13.9208C17.1166 14.2999 17.2183 14.7167 17.2975 15.1594L17.7897 15.0714ZM15.7838 19.0431C15.4155 19.3947 14.9181 19.5781 14.2283 19.5781V20.0781C15.0127 20.0781 15.6458 19.8662 16.1291 19.4048L15.7838 19.0431ZM16.3271 17.5606C16.3269 18.231 16.1402 18.7029 15.7838 19.0431L16.1291 19.4048C16.6077 18.9479 16.8269 18.3315 16.8271 17.5607L16.3271 17.5606ZM16.2903 16.4785C16.3146 16.8262 16.3269 17.1903 16.3271 17.5607L16.8271 17.5605C16.8269 17.1793 16.8143 16.8036 16.789 16.4436L16.2903 16.4785ZM16.2896 16.4608V16.4611H16.7896V16.4608H16.2896ZM16.1475 15.3662C16.2189 15.7666 16.2669 16.1406 16.2902 16.478L16.7891 16.4435C16.7643 16.0851 16.7137 15.6931 16.6397 15.2784L16.1475 15.3662ZM15.8829 14.2781C15.9882 14.6082 16.0774 14.9742 16.1475 15.3663L16.6397 15.2783C16.5662 14.8674 16.472 14.4797 16.3592 14.1262L15.8829 14.2781ZM15.4796 13.3622C15.6484 13.6599 15.784 13.9683 15.8829 14.2782L16.3592 14.1261C16.2494 13.782 16.0996 13.442 15.9146 13.1156L15.4796 13.3622ZM14.947 12.6606C15.1412 12.8469 15.321 13.0821 15.4796 13.3621L15.9146 13.1157C15.7358 12.7999 15.5274 12.5245 15.2932 12.2998L14.947 12.6606ZM14.2776 12.2446C14.5494 12.3525 14.7732 12.4938 14.947 12.6606L15.2932 12.2998C15.0664 12.0821 14.7852 11.9081 14.4622 11.7799L14.2776 12.2446ZM13.4428 12.084C13.7532 12.0924 14.033 12.1475 14.2777 12.2446L14.4621 11.7798C14.1561 11.6584 13.8175 11.5939 13.4562 11.5842L13.4428 12.084ZM13.3543 12.1842C13.4678 12.1101 13.5342 12.0723 13.5671 12.0547L13.3318 11.6135C13.2829 11.6396 13.2036 11.6855 13.081 11.7655L13.3543 12.1842ZM12.5301 12.7172C12.8437 12.5161 13.1135 12.3417 13.3545 12.184L13.0808 11.7656C12.8414 11.9222 12.573 12.0958 12.2603 12.2963L12.5301 12.7172ZM11.151 13.3369C11.696 13.1603 12.1613 12.9531 12.5299 12.7174L12.2605 12.2961C11.9382 12.5023 11.5149 12.6934 10.9969 12.8613L11.151 13.3369ZM9.42793 13.6144C10.0047 13.6144 10.5846 13.5206 11.151 13.3369L10.9968 12.8613C10.4781 13.0295 9.95029 13.1144 9.42793 13.1144V13.6144ZM7.70464 13.3367C8.27142 13.5206 8.85111 13.6144 9.42793 13.6144V13.1144C8.90559 13.1144 8.37789 13.0295 7.8589 12.8611L7.70464 13.3367ZM6.32658 12.7177C6.6947 12.9531 7.16019 13.1604 7.70475 13.3368L7.85879 12.8611C7.3413 12.6935 6.91784 12.5023 6.59598 12.2964L6.32658 12.7177ZM5.5014 12.1841C5.74231 12.3416 6.01981 12.5211 6.32642 12.7176L6.59614 12.2965C6.29065 12.1008 6.01445 11.9221 5.77499 11.7656L5.5014 12.1841ZM5.28874 12.0547C5.32177 12.0723 5.38815 12.11 5.50135 12.184L5.77505 11.7656C5.65216 11.6852 5.57282 11.6396 5.52401 11.6135L5.28874 12.0547ZM4.5785 12.2446C4.82298 12.1475 5.10277 12.0924 5.41308 12.084L5.39968 11.5842C5.03856 11.5939 4.69986 11.6584 4.394 11.7799L4.5785 12.2446ZM3.90906 12.6605C4.08274 12.4937 4.3065 12.3525 4.57848 12.2446L4.39401 11.7798C4.07093 11.9081 3.78968 12.0819 3.5627 12.2999L3.90906 12.6605ZM3.37639 13.362C3.53495 13.0823 3.71477 12.8471 3.90905 12.6605L3.56271 12.2999C3.32863 12.5247 3.12026 12.8 2.94144 13.1154L3.37639 13.362ZM2.97329 14.2783C3.07233 13.9681 3.20781 13.6598 3.37647 13.3619L2.94136 13.1155C2.75651 13.442 2.60693 13.7819 2.49697 14.1263L2.97329 14.2783ZM2.70878 15.3665C2.77907 14.974 2.86817 14.6078 2.9733 14.2783L2.49696 14.1263C2.38427 14.4795 2.29022 14.8674 2.21661 15.2784L2.70878 15.3665ZM2.56608 16.4778C2.58939 16.1398 2.63723 15.766 2.70878 15.3665L2.21661 15.2784C2.14244 15.6925 2.09202 16.0844 2.06726 16.4434L2.56608 16.4778ZM2.5297 17.5606C2.5297 17.1912 2.54185 16.827 2.56607 16.4779L2.06727 16.4433C2.0422 16.8046 2.0297 17.1805 2.0297 17.5606H2.5297ZM3.07282 19.0433C2.71638 18.7029 2.5297 18.2309 2.5297 17.5606H2.0297C2.0297 18.3314 2.24887 18.9479 2.72752 19.4049L3.07282 19.0433ZM4.62832 19.5781C3.93832 19.5781 3.44091 19.3947 3.07281 19.0433L2.72754 19.4049C3.21066 19.8662 3.84375 20.0781 4.62832 20.0781V19.5781ZM14.2283 19.5781H4.62832V20.0781H14.2283V19.5781Z"
            />
        </g>
    </symbol>
    <symbol id="Heart" viewBox="0 0 18 16">
        <g>
            <g>
                <path fill="none" stroke="currentColor" stroke-linecap="round" stroke-linejoin="round" stroke-miterlimit="20" stroke-width="2" d="M9 15l6.485-6.206c2.018-1.93 1.975-4.744.14-6.49C13.791.56 10.825.566 9 2.321 7.175.566 4.209.56 2.375 2.304.54 4.05.497 6.864 2.515 8.794L9 15"/>
            </g>
        </g>
    </symbol>
    <symbol id="Label" viewBox="0 0 52 31">
        <g>
            <path d="M43.7998 0L51.9008 13.2541H39.3422L43.7998 0Z" fill="url(#paint0_linear)"/>
            <path opacity="0.2" d="M43.7998 0L51.9008 13.2541H39.3422L43.7998 0Z" fill="black"/>
            <path opacity="0.2" d="M43.7998 0L46.7008 13.2541H39.3422L43.7998 0Z" fill="black"/>
            <path d="M43.7997 30.973V0H0V30.973L21.8947 24.7661" fill="url(#paint1_linear)"/>
            <defs>
                <linearGradient id="paint0_linear" x1="44.4744" y1="18.8675" x2="53.7881" y2="10.5147" gradientUnits="userSpaceOnUse">
                    <stop stop-color="#C72037"/>
                    <stop offset="1" stop-color="#B81F33"/>
                </linearGradient>
                <linearGradient id="paint1_linear" x1="29.607" y1="47.3905" x2="52.0639" y2="2.54832" gradientUnits="userSpaceOnUse">
                    <stop stop-color="#ED1C24"/>
                    <stop offset="1" stop-color="#C51219"/>
                </linearGradient>
            </defs>
        </g>
    </symbol>
    <symbol id="MessageRegister" viewBox="0 0 20 16">
        <g>
            <path fill="currentColor"
                  d="M2 0H18C19.1046 0 20 0.8954 20 2V14C20 15.1045 19.1046 16 18 16H2C0.89543 16 0 15.1045 0 14V2C0 0.8954 0.89543 0 2 0ZM10 7.00003L18 2H2L10 7.00003ZM2 14H18V4.37L10 9.35863L2 4.37V14Z"
            />
        </g>
    </symbol>
    <symbol id="NextArrow" viewBox="0 0 24 24">
        <g>
            <path fill="currentColor"
                  d="M8.59,16.58L13.17,12L8.59,7.41L10,6L16,12L10,18L8.59,16.58Z"
            />
        </g>
    </symbol>
    <symbol id="TelephoneRegister" viewBox="0 0 21 20">
        <g>
            <path fill="currentColor"
                  d="M2.5916 1.29212C2.64199 1.22366 2.71737 1.12404 2.76199 1.07635C2.84198 0.990196 2.95545 0.901733 3.10699 0.806734C3.34275 0.660196 3.74891 0.56481 4.07275 0.580194C4.65545 0.607887 5.06545 0.738657 5.32583 0.980579C5.43083 1.07712 7.77237 3.64673 7.79083 3.66789L7.82814 3.71404L7.83433 3.72108C7.90867 3.80567 8.0586 3.97628 8.16891 4.2025C8.48737 4.85519 8.36314 5.69212 7.86275 6.2302L6.91699 7.25404C6.77852 7.40404 6.66775 7.55558 6.64429 7.60327C6.64337 7.60624 6.64199 7.60965 6.64047 7.61343C6.63884 7.61749 6.63704 7.62195 6.63545 7.62673C6.63968 7.63673 6.64737 7.65096 6.66275 7.66558L13.0774 13.6267C13.1051 13.626 13.1481 13.6229 13.2101 13.6113C13.2689 13.5971 13.4354 13.4975 13.5251 13.4013L14.4808 12.3783C14.6681 12.176 14.9108 12.0163 15.1804 11.9198C15.6047 11.7683 16.0689 11.7748 16.4881 11.939C16.6481 12.0017 16.8054 12.0921 16.9562 12.2079L16.9774 12.2217C16.9951 12.234 19.7762 14.4129 19.8993 14.5271C20.0654 14.6833 20.2043 14.9156 20.3254 15.2402C20.4139 15.4775 20.4274 15.7383 20.4274 15.8729C20.4274 15.9937 20.4166 16.174 20.367 16.3452C20.2697 16.6802 20.147 16.9244 19.992 17.0917C19.9304 17.1571 19.7708 17.2929 19.7708 17.2929C19.0297 17.9417 17.8628 18.8233 16.5701 19.2867C16.0101 19.4875 15.4651 19.5956 14.9508 19.6083C11.8662 19.6921 7.47237 15.8387 6.19891 14.6556C4.92583 13.4721 0.761985 9.37135 0.619677 6.28596C0.535831 4.44327 1.65506 2.53404 2.5916 1.29212ZM6.90237 4.40558C6.79083 4.28327 4.65968 1.94904 4.52852 1.81596L4.52726 1.8155C4.5076 1.80824 4.34938 1.74977 4.01737 1.73366C3.91814 1.72866 3.75929 1.76558 3.70814 1.79173L3.70245 1.79531C3.66924 1.81617 3.62926 1.8413 3.60198 1.86712C3.58909 1.88235 3.56705 1.91277 3.54929 1.93727C3.54373 1.94494 3.5386 1.95202 3.53429 1.95789L3.50314 1.99943C2.68968 3.07866 1.7016 4.71366 1.77237 6.23289C1.86929 8.34019 4.64045 11.6321 6.98468 13.8098C9.32852 15.9879 12.8139 18.5117 14.9212 18.4544C15.3135 18.4448 15.7366 18.3594 16.1804 18.2002C17.3031 17.7979 18.3447 17.0075 19.0212 16.4156C19.0231 16.414 19.0264 16.4112 19.0306 16.4077C19.0559 16.3864 19.1174 16.3348 19.1493 16.3029C19.1493 16.3027 19.1499 16.3017 19.151 16.2998C19.1602 16.284 19.2054 16.2066 19.2589 16.0229C19.2647 16.004 19.2735 15.9521 19.2735 15.8725C19.2735 15.7621 19.2558 15.6737 19.2447 15.6437C19.1689 15.4412 19.114 15.374 19.1086 15.3673C19.1083 15.367 19.1082 15.3668 19.1081 15.3667C18.9785 15.2575 16.587 13.3779 16.3204 13.1713C16.3031 13.1606 16.2839 13.1471 16.2601 13.1287C16.2351 13.109 16.1589 13.0494 16.0674 13.0137C15.9104 12.9521 15.7289 12.9494 15.5697 13.0063C15.4743 13.041 15.3897 13.0956 15.3258 13.1644L14.3685 14.1894C14.1608 14.4117 13.7751 14.681 13.4189 14.7467C12.9581 14.8317 12.5997 14.7587 12.3531 14.5298L5.87391 8.50866C5.62852 8.2775 5.48929 7.97135 5.47775 7.64289C5.47814 7.47096 5.5116 7.32289 5.58237 7.15289C5.68929 6.89789 5.95852 6.59173 6.06929 6.47212L7.01622 5.44712C7.20083 5.24827 7.24545 4.94366 7.1316 4.70981C7.08775 4.62058 7.01275 4.53635 6.98083 4.50058L6.90237 4.40558Z"
            />
        </g>
    </symbol>
    <symbol id="AddressRegister" viewBox="0 0 21 20">
        <g>
            <path fill="currentColor"
                  d="M19.4789 8.69751C19.4794 8.69797 19.4798 8.69858 19.4805 8.69904C20.1969 9.41696 20.1966 10.5844 19.4794 11.3019C19.1313 11.6499 18.669 11.8414 18.1774 11.8414H17.8758V17.8452C17.8758 19.0334 16.9092 20 15.7208 20H12.529C12.2054 20 11.9431 19.7375 11.9431 19.4141V14.707C11.9431 14.1649 11.5021 13.7239 10.96 13.7239H9.07732C8.53518 13.7239 8.09405 14.1649 8.09405 14.707V19.4141C8.09405 19.7375 7.83175 20 7.50811 20H4.31627C3.12807 20 2.16128 19.0334 2.16128 17.8452V11.8414H1.83626C1.81719 11.8414 1.79827 11.8405 1.77935 11.8387C1.31716 11.8187 0.88503 11.6292 0.557729 11.3017C-0.158671 10.5853 -0.159892 9.42001 0.55422 8.70178L0.56246 8.69339L8.7166 0.539398C9.0645 0.191498 9.52685 0 10.0186 0C10.5104 0 10.9728 0.191498 11.3205 0.539398L19.4789 8.69751ZM18.1774 10.6696C18.356 10.6696 18.5242 10.5998 18.6507 10.4733C18.911 10.2129 18.9115 9.78912 18.6519 9.52774L18.6481 9.52408L10.4918 1.36795C10.3653 1.24146 10.1973 1.17188 10.0186 1.17188C9.8398 1.17188 9.6718 1.24146 9.54546 1.36795L1.38735 9.52576L1.38689 9.52621C1.38674 9.52637 1.38674 9.52652 1.38659 9.52652C1.12566 9.7876 1.12566 10.2122 1.38659 10.4732C1.50927 10.596 1.67299 10.6653 1.84755 10.6683C1.85686 10.6685 1.86587 10.6689 1.87502 10.6696H2.74721C3.07085 10.6696 3.33315 10.9319 3.33315 11.2555V17.8452C3.33315 18.3871 3.77428 18.8281 4.31627 18.8281H6.92217V14.707C6.92217 13.5188 7.88897 12.552 9.07732 12.552H10.96C12.1483 12.552 13.115 13.5188 13.115 14.707V18.8281H15.7208C16.263 18.8281 16.704 18.3871 16.704 17.8452V11.2555C16.704 10.9319 16.9663 10.6696 17.2899 10.6696H18.1774Z"
            />
        </g>
    </symbol>
    <symbol id="CityRegister" viewBox="0 0 22 22">
        <g>
            <path fill="currentColor" fill-rule="evenodd" clip-rule="evenodd"
                  d="M13.3744 12.9336H18.2391L21.9958 22H0L3.75674 12.9336H8.62161L6.08713 8.88966C5.5052 7.96684 5.1972 6.89816 5.1972 5.80078C5.1972 2.60229 7.79933 0 10.998 0C14.1965 0 16.7988 2.60229 16.7988 5.80078C16.7988 6.89816 16.4906 7.96684 15.9078 8.89117L13.3744 12.9336ZM18.9803 18.0898H14.9333L15.2675 20.7109H20.0664L18.9803 18.0898ZM13.9679 20.7109H8.02156L8.34735 18.0898H13.6339L13.9679 20.7109ZM14.769 16.8008H18.4462L17.3778 14.2227H14.4404L14.769 16.8008ZM6.48627 5.80078C6.48627 3.31296 8.51016 1.28906 10.998 1.28906C13.4856 1.28906 15.5097 3.31296 15.5097 5.80078C15.5097 6.65445 15.2704 7.48529 14.8165 8.20502L10.998 14.298L7.17847 8.20367C6.72562 7.48529 6.48627 6.65445 6.48627 5.80078ZM12.5665 14.2227L10.998 16.7254L9.42946 14.2227H8.82806L8.50748 16.8008H13.4695L13.1409 14.2227H12.5665ZM4.61797 14.2227H7.5291L7.20851 16.8008H3.54962L4.61797 14.2227ZM7.04839 18.0898H3.01553L1.9294 20.7109H6.72243L7.04839 18.0898Z"
            />
            <path fill="currentColor"
                  d="M10.998 2.57812C12.775 2.57812 14.2207 4.02379 14.2207 5.80078C14.2207 7.57777 12.775 9.02344 10.998 9.02344C9.22105 9.02344 7.77539 7.57777 7.77539 5.80078C7.77539 4.02379 9.22105 2.57812 10.998 2.57812ZM10.998 3.86719C9.93188 3.86719 9.06445 4.73462 9.06445 5.80078C9.06445 6.86694 9.93188 7.73438 10.998 7.73438C12.0642 7.73438 12.9316 6.86694 12.9316 5.80078C12.9316 4.73462 12.0642 3.86719 10.998 3.86719Z"
            />
        </g>
    </symbol>
    <symbol id="ZoneRegister" viewBox="0 0 28 20">
        <g>
            <path fill="currentColor"
                  d="M6.90041 3.94261L7.42446 3.9725L7.89566 3.99929L8.47753 4.03251L8.6503 4.06365L8.85825 4.09252L8.96155 4.09687L9.05323 3.98184L9.11377 3.91873L9.16137 3.86878L9.1515 3.81233L9.07779 3.76443L8.96193 3.60494L8.89598 3.02806L8.85477 2.53277L8.99269 2.3782L9.15093 2.26605L9.37917 1.92774L9.50161 1.82319L9.6821 1.73666L10.285 1.71403L10.5389 1.64732L10.6215 1.53752L10.7551 1.25968L10.7992 1.0331L10.8741 0.929389L10.964 0.8522L11.0563 0.855189L11.2348 0.921973L11.3705 0.959054L11.4672 1.00945L11.555 1.08948L11.6407 1.22876L11.6539 1.32041L11.6933 1.37372L11.7614 1.37474L11.8121 1.37554L11.8465 1.35533L11.8692 1.30868L11.8516 1.24651L11.7351 1.06871L11.4786 0.746027L11.3111 0.614578L11.2277 0.543254L11.207 0.47594L11.3157 0.373324L11.4212 0.314865L11.6063 0.358794L11.8519 0.382632L11.9612 0.3314L12.0736 0.0720215L12.3528 0.346876L12.6439 0.654497L12.7507 0.711254L12.9586 0.743832L13.1315 0.755449L13.2037 0.788519L13.282 0.86813L13.4355 1.20375L13.5894 1.2915L13.7811 1.35495L14.3982 1.34946L14.5878 1.36653L14.7427 1.52424L14.8391 1.58905L14.8804 1.64471L14.87 1.71415L14.8321 1.80201L14.8272 1.97137L14.8172 2.10229L14.7681 2.16442L14.7532 2.2225L14.7944 2.27328L15.0803 2.39788L15.1766 2.53144L15.249 2.59134L15.2662 2.67424L15.2178 2.72941L15.0836 2.7019L15.0182 2.78923V2.94562L15.1141 3.09239L15.1418 3.22656L15.0785 3.35563L15.0046 3.53744L15.0019 3.66612L15.046 3.73964L15.2646 3.87226L15.7697 4.20668L15.8858 4.22102L16.3638 4.14337L16.5862 4.13569L16.717 4.18734L17.0868 4.23486L17.2044 4.28814L17.3294 4.29174L17.5008 4.27622L17.6169 4.12661L17.6761 4.09252L17.7281 4.06762L17.8337 4.0638L18.126 4.15889L18.4338 4.35931L18.6377 4.54196L18.7381 4.70708L18.8649 5.06461L19.0184 5.61318L19.2035 5.98252L19.4205 6.17386L19.5729 6.52466L19.7048 7.28876L19.7873 7.44484L19.871 7.52604L20.119 7.74618L20.6264 8.10999L20.9261 8.32438L21.3892 8.66643L21.8134 8.97912L22.2387 9.46076L22.3237 9.53099L22.6978 9.79082L23.1143 10.0567L23.4058 9.99662L23.8449 10.4049L24.0236 10.5562L24.0991 10.6078L24.4175 10.7686L24.9245 11.1043L25.5642 11.5844L25.9867 11.8615L26.1016 11.8938L26.2157 11.8922L26.338 11.8327L26.4704 11.7857L26.6964 11.8473L26.9413 11.958L27.0964 12.042L27.2757 12.1639L27.4178 12.279L27.5255 12.3322L27.8915 12.4327L27.9544 12.493L27.9942 12.5602L28 12.6298L27.7946 12.9953L27.7663 13.4604L27.765 13.8098L27.788 14.0834L27.6882 14.0927L27.4473 14.0346L26.9682 13.9189L26.5568 13.6869L26.288 13.5351L26.2461 13.5558L26.1256 13.6595L26.0428 13.7871L25.977 14.034L25.872 14.3247L25.3741 14.3356L24.9502 14.3575L24.6767 14.4674L24.4088 14.6196L24.3416 14.7996L24.2836 15.033L24.1275 15.562L23.9853 16.043L23.9126 16.3544L23.8041 16.5673L23.5009 16.8477L23.157 17.0362L22.9744 17.1247L22.8936 17.2347L22.8757 17.3384L22.811 17.3701L22.6691 17.3515L22.5194 17.3695L22.1908 17.478L21.835 17.6112L21.4085 17.7444L21.1654 17.7443L21.0684 17.7742L21.0261 17.841L21.0684 17.9674L21.1096 18.0608L21.1472 18.1826L21.0473 18.2811L20.9777 18.4496L20.9232 18.7458L20.7719 18.8344L20.5297 18.9784L20.2616 19.1677L20.1931 19.2064L20.0395 19.2599L19.8861 19.2436L19.747 19.2159L19.596 19.2645L19.4399 19.4103L19.3673 19.3662L19.3309 19.2186L19.2522 19.1227L19.0077 18.9058L18.7982 18.7509L18.7075 18.7407L18.5152 18.7804L18.275 18.8096L18.0794 18.7784L17.9244 18.7166L17.6848 18.5036L17.5975 18.3889L17.5321 18.3007L17.3683 18.3247L17.3224 18.2284L17.3159 18.116L17.3617 17.9793L17.3488 17.722L17.257 17.5368L17.1522 17.4562L17.1652 17.3998L17.211 17.2708L17.27 17.1578L17.2693 16.9346L17.1961 16.6921L17.1669 16.3418L17.1859 15.9994L17.0862 15.8267L16.2707 15.8257L15.5445 15.8388L15.5037 15.7997L15.2217 15.3668L14.9928 15.0377L14.7667 14.8433L14.2489 14.6038L14.0012 14.5037L13.7889 14.3206L13.6153 14.12L13.5705 13.8445L13.5352 13.754L13.4853 13.6806L13.4306 13.6481L13.3646 13.6555L12.7632 13.3346L12.522 13.2503L12.2949 13.3182L12.1947 13.3299L11.9972 13.2386L11.7699 13.3624L11.6728 13.3702L11.537 13.3407L11.425 13.2943L11.1223 13.002L10.8683 12.8836L10.6853 12.8077L10.3334 12.6967L9.95794 12.6387L9.76549 12.5906L9.62659 12.5265L9.59098 12.4849L9.59291 12.3773L9.58247 12.2361L9.53627 12.1331L9.44126 12.0096L9.30936 11.9172L9.08244 11.9334L8.74103 11.9257L8.4795 11.8327L8.27211 11.8162L8.02276 11.8338L7.8179 11.8343L7.67189 11.9019L7.58713 11.9807L7.53336 12.2222L7.48402 12.2583L7.39836 12.2759L7.2842 12.2634L7.04472 12.2655L6.63078 12.2227L6.11002 12.2098L5.7187 12.3317L5.40937 12.5064L5.11401 12.7037L4.76639 13.0148L4.66446 13.1527L4.45961 13.7023L4.36887 13.7812L4.25048 13.8445L4.13015 13.8556L3.89204 13.9368L3.5773 14.0707L3.36299 14.1231L2.81339 14.0956L2.78112 13.9218L2.68206 13.285L2.63389 12.64L2.63718 12.3422L2.69443 11.7433L2.69001 11.4408L2.66658 11.1661L2.6894 10.8966L2.73333 10.5929L2.75634 10.2837L2.72326 10.0678L2.61686 9.89325L2.43698 9.67716L2.40853 9.54911L2.39828 9.4062L2.22592 9.38993L2.07117 9.24191L1.9435 9.16124L1.6688 9.07171L1.53107 9.0671L1.40534 9.13297L1.3129 9.26503L1.24827 9.05677L1.24982 8.83875L1.46939 8.38742L1.60671 8.51917L1.77444 8.57203L1.98781 8.58001L2.19728 8.54505L2.1563 8.39029L2.05898 8.30239L1.93809 8.23308L1.89496 8.02856L1.91043 7.81629L1.96787 7.61533L1.90249 7.53432L1.80328 7.48419L1.57421 7.49021L1.2771 7.43704L0.977843 7.41404L0.907805 7.65113L1.07301 7.96216L0.932968 7.80941L0.801027 7.60731L0.615735 7.24294L0.496357 6.8151L0.475092 6.35208L0.57627 5.96818L0.705297 5.60709L0.783243 5.14373L0.890589 4.68752L0.997973 4.89203L1.12061 5.07517L1.29027 5.24423L1.3829 5.28456L1.66206 5.3543L1.84176 5.32811L2.03325 5.2283L2.22127 5.26103L2.37682 5.44882L2.5155 5.65904L2.72599 5.70324L3.15946 5.55132L3.36568 5.51658L3.54461 5.58613L3.6369 5.59896L3.73089 5.58726L3.64946 5.40061L3.6162 5.21914L3.7251 5.12307L4.06711 5.22512L4.28491 5.15709L4.34042 5.11876L4.38995 5.07161L4.41605 4.91451L4.40561 4.75317L4.37738 4.60102L4.31355 4.46742L4.15649 4.28031L3.54711 3.83352L3.34206 3.65496L3.17126 3.42373L3.06237 3.09666L2.97398 2.75514L2.89195 2.50117L2.67934 1.90996L2.59655 1.83958L2.49287 1.80825L2.24045 1.78967L1.9849 1.83281L1.56705 1.93474L1.32777 1.90296L1.21713 1.96603L0.943222 2.21535L0.814951 2.42883L0.635827 2.9158L0.771816 3.07241L0.769319 3.17503L0.666211 3.89088L0.72887 4.23702L0.706243 4.26264L0.65713 4.18246L0.501995 3.82902L0.228843 3.39721L0 2.73444L0.402178 2.29984L0.746086 1.99123L1.02737 1.80473L1.11326 1.7594L1.498 1.60464L1.99458 1.46498L2.36017 1.36199L2.83757 1.27413L2.99369 1.25786L3.2231 1.25968L3.40919 1.34243L3.52198 1.40705L3.92008 1.67305L4.3263 1.94435L4.67471 2.24463L4.77355 2.36696L4.82887 2.51294L4.86988 2.65601L5.16604 3.10892L5.28576 3.31597L5.45871 3.58515L5.59762 3.71599L5.73361 3.87764L5.82472 4.01071L5.92896 4.07379L6.04425 4.0988L6.30851 4.05661L6.62631 3.97261L6.8163 3.93757L6.90041 3.94261Z"
            />
        </g>
    </symbol>
    <symbol id="PasswordKey" viewBox="0 0 22 12">
        <g>
            <path fill="currentColor"
                  d="M11.6492 4.0011C10.6992 1.3111 7.89921 -0.498902 4.76921 0.121098C2.47921 0.581098 0.619207 2.4111 0.139207 4.7011C-0.680793 8.5711 2.25921 12.0011 5.99921 12.0011C8.60921 12.0011 10.8292 10.3311 11.6492 8.0011H15.9992V10.0011C15.9992 11.1011 16.8992 12.0011 17.9992 12.0011C19.0992 12.0011 19.9992 11.1011 19.9992 10.0011V8.0011C21.0992 8.0011 21.9992 7.1011 21.9992 6.0011C21.9992 4.9011 21.0992 4.0011 19.9992 4.0011H11.6492ZM5.99921 8.0011C4.89921 8.0011 3.99921 7.1011 3.99921 6.0011C3.99921 4.9011 4.89921 4.0011 5.99921 4.0011C7.09921 4.0011 7.99921 4.9011 7.99921 6.0011C7.99921 7.1011 7.09921 8.0011 5.99921 8.0011Z"
            />
            <path fill="currentColor"
                  d="M11.6492 4.0011C10.6992 1.3111 7.89921 -0.498902 4.76921 0.121098C2.47921 0.581098 0.619207 2.4111 0.139207 4.7011C-0.680793 8.5711 2.25921 12.0011 5.99921 12.0011C8.60921 12.0011 10.8292 10.3311 11.6492 8.0011H15.9992V10.0011C15.9992 11.1011 16.8992 12.0011 17.9992 12.0011C19.0992 12.0011 19.9992 11.1011 19.9992 10.0011V8.0011C21.0992 8.0011 21.9992 7.1011 21.9992 6.0011C21.9992 4.9011 21.0992 4.0011 19.9992 4.0011H11.6492ZM5.99921 8.0011C4.89921 8.0011 3.99921 7.1011 3.99921 6.0011C3.99921 4.9011 4.89921 4.0011 5.99921 4.0011C7.09921 4.0011 7.99921 4.9011 7.99921 6.0011C7.99921 7.1011 7.09921 8.0011 5.99921 8.0011Z"
            />
        </g>
    </symbol>
    <symbol id="MessageTextarea" viewBox="0 0 19 19">
        <g>
            <path fill="currentColor"
                  d="M13.775,8.63336735 L5.225,8.63336735 C4.94,8.63336735 4.75,8.82530612 4.75,9.1122449 C4.75,9.39918367 4.94,9.59112245 5.225,9.59112245 L13.775,9.59112245 C14.06,9.59112245 14.25,9.39918367 14.25,9.1122449 C14.25,8.82530612 14.06,8.63336735 13.775,8.63336735 L13.775,8.63336735 Z M17.1,0.0174489796 L1.9,0.0174489796 C0.855,0.0174489796 0,0.878265306 0,1.93295918 L0,13.4221429 C0,14.474898 0.855,15.3376531 1.9,15.3376531 L11.4,15.3376531 L14.06,18.0189796 C14.2034694,18.162449 14.345,18.2109184 14.535,18.2109184 C14.8684694,18.2109184 15.2,17.9239796 15.2,17.540102 L15.2,15.3357143 L17.1,15.3357143 C18.145,15.3357143 19,14.474898 19,13.4202041 L19,1.93102041 C19,0.878265306 18.145,0.0174489796 17.1,0.0174489796 L17.1,0.0174489796 Z M18.05,13.4202041 C18.05,13.947551 17.6215306,14.3779592 17.1,14.3779592 L15.2,14.3779592 L14.25,14.3779592 L14.25,15.3357143 L14.25,16.8673469 L12.065,14.664898 L11.78,14.3779592 L11.4,14.3779592 L1.9,14.3779592 C1.37653061,14.3779592 0.95,13.947551 0.95,13.4202041 L0.95,1.93102041 C0.95,1.40367347 1.37653061,0.973265306 1.9,0.973265306 L17.1,0.973265306 C17.6215306,0.973265306 18.05,1.40367347 18.05,1.93102041 L18.05,13.4202041 L18.05,13.4202041 Z M13.775,5.76204082 L5.225,5.76204082 C4.94,5.76204082 4.75,5.95397959 4.75,6.24091837 C4.75,6.52785714 4.94,6.71979592 5.225,6.71979592 L13.775,6.71979592 C14.06,6.71979592 14.25,6.52785714 14.25,6.24091837 C14.25,5.95204082 14.06,5.76204082 13.775,5.76204082 L13.775,5.76204082 Z"
            />
        </g>
    </symbol>
    <symbol id="ShopMapsPreloader" viewBox="0 0 24 24">
        <g>
            <path fill="currentColor"
                  d="M12,20A8,8 0 0,1 4,12A8,8 0 0,1 12,4A8,8 0 0,1 20,12A8,8 0 0,1 12,20M12,2A10,10 0 0,0 2,12A10,10 0 0,0 12,22A10,10 0 0,0 22,12A10,10 0 0,0 12,2M12,12.5A1.5,1.5 0 0,1 10.5,11A1.5,1.5 0 0,1 12,9.5A1.5,1.5 0 0,1 13.5,11A1.5,1.5 0 0,1 12,12.5M12,7.2C9.9,7.2 8.2,8.9 8.2,11C8.2,14 12,17.5 12,17.5C12,17.5 15.8,14 15.8,11C15.8,8.9 14.1,7.2 12,7.2Z"
            />
        </g>
    </symbol>

    <symbol id="Plus" viewBox="0 0 18 18">
        <g>
            <path fill="#C8C8C8"
                  d="M3.00102 0H15.0002C16.6567 0 18 1.34347 18 2.99998V15.0002C18 16.657 16.6567 18.0002 15.0002 18.0002H3.00102C1.34344 18.0002 -0.000976562 16.657 -0.000976562 15.0002V2.99998C-0.000976562 1.34347 1.34344 0 3.00102 0ZM10.3431 7.65645H14.4057V10.3437H10.3431V14.4063H7.6559V10.3437H3.5933V7.65645H7.6559V3.59386H10.3431V7.65645Z"
            />
        </g>
    </symbol>

    <symbol id="Minus" viewBox="0 0 18 18">
        <g>
            <path fill="#C8C8C8"
                  d="M3.002 0h12A3 3 0 0 1 18 3v12a3 3 0 0 1-3 3H3.002A3.001 3.001 0 0 1 0 15V3c0-1.657 1.344-3 3.002-3zm.592 10.334h10.823V7.656H3.594z"
            />
        </g>
    </symbol>

    <symbol id="CloseBtn" viewBox="0 0 18 18">
        <g>
            <path fill="currentColor" d="M1.4 1.4L16.6 16.6" stroke="white" stroke-width="1.3" stroke-linecap="square"/>
            <path fill="currentColor" d="M16.5996 1.3999L1.39961 16.5999" stroke="white" stroke-width="1.3" stroke-linecap="square"/>
        </g>
    </symbol>

    <symbol id="AccountOrderIcon" viewBox="0 0 18 13">
        <g>
            <path fill="currentColor" d="M1.30259 2.69723C1.81543 2.69723 2.23117 2.2815 2.23117 1.76866C2.23117 1.25582 1.81543 0.840088 1.30259 0.840088C0.789759 0.840088 0.374023 1.25582 0.374023 1.76866C0.374023 2.2815 0.789759 2.69723 1.30259 2.69723ZM4.55413 0.928523C4.09014 0.928523 3.71399 1.30467 3.71399 1.76866C3.71399 2.23265 4.09014 2.6088 4.55413 2.6088H16.8024C17.2664 2.6088 17.6426 2.23265 17.6426 1.76866C17.6426 1.30467 17.2664 0.928523 16.8024 0.928523H4.55413ZM4.55413 5.96934C4.09014 5.96934 3.71399 6.34548 3.71399 6.80948C3.71399 7.27347 4.09014 7.64961 4.55413 7.64961H16.8024C17.2664 7.64961 17.6426 7.27347 17.6426 6.80948C17.6426 6.34548 17.2664 5.96934 16.8024 5.96934H4.55413ZM3.71399 11.8503C3.71399 11.3863 4.09014 11.0102 4.55413 11.0102H16.8024C17.2664 11.0102 17.6426 11.3863 17.6426 11.8503C17.6426 12.3143 17.2664 12.6904 16.8024 12.6904H4.55413C4.09014 12.6904 3.71399 12.3143 3.71399 11.8503ZM1.30259 12.7789C1.81543 12.7789 2.23117 12.3631 2.23117 11.8503C2.23117 11.3375 1.81543 10.9217 1.30259 10.9217C0.789759 10.9217 0.374023 11.3375 0.374023 11.8503C0.374023 12.3631 0.789759 12.7789 1.30259 12.7789ZM2.23117 6.96424C2.23117 7.47707 1.81543 7.89281 1.30259 7.89281C0.789759 7.89281 0.374023 7.47707 0.374023 6.96424C0.374023 6.4514 0.789759 6.03567 1.30259 6.03567C1.81543 6.03567 2.23117 6.4514 2.23117 6.96424Z"/>
        </g>
    </symbol>

    <symbol id="AccountAddressIcon" viewBox="0 0 18 17">
        <g>
            <path fill="currentColor" d="M16.5571 7.39288L16.5584 7.39418C17.1673 8.00442 17.1671 8.99675 16.5575 9.6066C16.2616 9.90244 15.8686 10.0652 15.4508 10.0652H15.1945V15.1684C15.1945 16.1784 14.3728 17 13.3627 17H10.6497C10.3746 17 10.1516 16.7769 10.1516 16.502V12.501C10.1516 12.0402 9.77678 11.6653 9.31596 11.6653H7.71572C7.2549 11.6653 6.87994 12.0402 6.87994 12.501V16.502C6.87994 16.7769 6.65698 17 6.38189 17H3.66883C2.65886 17 1.83708 16.1784 1.83708 15.1684V10.0652H1.56082C1.54461 10.0652 1.52853 10.0644 1.51245 10.0629C1.11959 10.0459 0.752276 9.8848 0.47407 9.60647C-0.13487 8.99753 -0.135908 8.00701 0.471087 7.39651L0.478091 7.38938L7.40911 0.458488C7.70483 0.162773 8.09782 0 8.51584 0C8.93386 0 9.32685 0.162773 9.62244 0.458488L16.5571 7.39288ZM15.4508 9.06912C15.6026 9.06912 15.7456 9.00985 15.8531 8.90233C16.0744 8.68093 16.0747 8.32076 15.8541 8.09858L15.8509 8.09547L8.91804 1.16276C8.81052 1.05524 8.66772 0.996094 8.51584 0.996094C8.36383 0.996094 8.22103 1.05524 8.11364 1.16276L1.17925 8.09689L1.17886 8.09728L1.1786 8.09754C0.956812 8.31946 0.956812 8.68041 1.1786 8.9022C1.28288 9.00661 1.42204 9.06549 1.57042 9.06808C1.57833 9.06821 1.58599 9.0686 1.59377 9.06912H2.33513C2.61022 9.06912 2.83318 9.29208 2.83318 9.56717V15.1684C2.83318 15.6291 3.20814 16.0039 3.66883 16.0039H5.88384V12.501C5.88384 11.491 6.70562 10.6692 7.71572 10.6692H9.31596C10.3261 10.6692 11.1477 11.491 11.1477 12.501V16.0039H13.3627C13.8235 16.0039 14.1984 15.6291 14.1984 15.1684V9.56717C14.1984 9.29208 14.4213 9.06912 14.6964 9.06912H15.4508Z"/>
        </g>
    </symbol>

    <symbol id="AccountProfilIcon" viewBox="0 0 15 17">
        <g>
            <path fill="currentColor" fill-rule="evenodd" clip-rule="evenodd" d="M7.0573 8.18898C8.17881 8.18898 9.14982 7.78548 9.94344 6.98939C10.7368 6.19342 11.1392 5.21951 11.1392 4.09436C11.1392 2.9696 10.7369 1.99556 9.94331 1.19933C9.14969 0.403496 8.17868 0 7.0573 0C5.93566 0 4.96478 0.403496 4.17129 1.19946C3.3778 1.99543 2.97543 2.96947 2.97543 4.09436C2.97543 5.21951 3.3778 6.19355 4.17129 6.98952C4.96504 7.78535 5.93605 8.18898 7.0573 8.18898ZM4.87362 1.90386C5.48248 1.29311 6.19671 0.996223 7.0573 0.996223C7.91776 0.996223 8.63212 1.29311 9.2411 1.90386C9.84995 2.51475 10.146 3.23134 10.146 4.09436C10.146 4.95764 9.84995 5.6741 9.2411 6.28499C8.63212 6.89587 7.91776 7.19276 7.0573 7.19276C6.19696 7.19276 5.48274 6.89574 4.87362 6.28499C4.26464 5.67423 3.96855 4.95764 3.96855 4.09436C3.96855 3.23134 4.26464 2.51475 4.87362 1.90386ZM14.1995 13.0722C14.1766 12.7409 14.1303 12.3796 14.0621 11.998C13.9934 11.6136 13.9048 11.2502 13.7988 10.918C13.6891 10.5747 13.5403 10.2356 13.3561 9.91074C13.1651 9.57352 12.9406 9.27988 12.6888 9.03825C12.4254 8.78547 12.1029 8.58223 11.73 8.43398C11.3584 8.28651 10.9466 8.21181 10.5061 8.21181C10.3331 8.21181 10.1658 8.28301 9.84271 8.49403C9.64386 8.62412 9.41125 8.77457 9.15163 8.94098C8.92963 9.08287 8.62889 9.21581 8.25742 9.33617C7.895 9.45381 7.52703 9.51347 7.16371 9.51347C6.80065 9.51347 6.43267 9.45381 6.07 9.33617C5.69892 9.21594 5.39805 9.083 5.17643 8.94111C4.91926 8.77626 4.68653 8.62581 4.4847 8.4939C4.16185 8.28288 3.99454 8.21168 3.82154 8.21168C3.38091 8.21168 2.96923 8.28651 2.59776 8.43411C2.22513 8.5821 1.90254 8.78534 1.6389 9.03838C1.38704 9.28014 1.16258 9.57365 0.971739 9.91074C0.787751 10.2356 0.638803 10.5745 0.52916 10.9181C0.423267 11.2503 0.334699 11.6136 0.265914 11.998C0.197646 12.3791 0.151487 12.7405 0.128602 13.0726C0.106105 13.3972 0.0947266 13.7351 0.0947266 14.0764C0.0947266 14.9638 0.375945 15.6823 0.930494 16.2121C1.47819 16.7349 2.20276 17 3.08417 17H11.2443C12.1254 17 12.85 16.7349 13.3978 16.2121C13.9525 15.6826 14.2337 14.964 14.2337 14.0763C14.2336 13.7338 14.2221 13.3959 14.1995 13.0722ZM12.7131 15.4903C12.3512 15.8358 11.8707 16.0038 11.2442 16.0038H3.08417C2.45748 16.0038 1.97701 15.8358 1.61524 15.4904C1.26033 15.1515 1.08785 14.6889 1.08785 14.0764C1.08785 13.7579 1.09832 13.4434 1.11927 13.1414C1.13969 12.8452 1.18146 12.5198 1.24339 12.174C1.30455 11.8325 1.38238 11.512 1.47496 11.2219C1.56378 10.9437 1.68493 10.6682 1.83518 10.4028C1.97856 10.1499 2.14355 9.93292 2.32559 9.75809C2.49588 9.59454 2.71051 9.46069 2.96341 9.3603C3.19731 9.26743 3.46016 9.21659 3.74552 9.20894C3.7803 9.22749 3.84223 9.26289 3.94257 9.32852C4.14672 9.46198 4.38204 9.61425 4.64218 9.78091C4.93543 9.96846 5.31323 10.1378 5.7646 10.284C6.22606 10.4337 6.69669 10.5097 7.16384 10.5097C7.63098 10.5097 8.10175 10.4337 8.56295 10.2841C9.0147 10.1377 9.39238 9.96846 9.68601 9.78065C9.95223 9.60997 10.181 9.46211 10.3851 9.32852C10.4854 9.26302 10.5474 9.22749 10.5822 9.20894C10.8676 9.21659 11.1305 9.26743 11.3645 9.3603C11.6173 9.46069 11.8319 9.59467 12.0022 9.75809C12.1843 9.93279 12.3492 10.1498 12.4926 10.403C12.643 10.6682 12.7643 10.9438 12.853 11.2217C12.9457 11.5123 13.0236 11.8326 13.0847 12.1739C13.1465 12.5203 13.1884 12.8458 13.2088 13.1416V13.1418C13.2299 13.4426 13.2405 13.757 13.2406 14.0764C13.2405 14.689 13.068 15.1515 12.7131 15.4903Z" />
        </g>
    </symbol>

    <symbol id="AccountPasswordIcon" viewBox="0 0 24 24">
        <g>
            <path fill="currentColor" d="M22,19H16V15H13.32C12.18,17.42 9.72,19 7,19C3.14,19 0,15.86 0,12C0,8.14 3.14,5 7,5C9.72,5 12.17,6.58 13.32,9H24V15H22V19M18,17H20V13H22V11H11.94L11.71,10.33C11,8.34 9.11,7 7,7A5,5 0 0,0 2,12A5,5 0 0,0 7,17C9.11,17 11,15.66 11.71,13.67L11.94,13H18V17M7,15A3,3 0 0,1 4,12A3,3 0 0,1 7,9A3,3 0 0,1 10,12A3,3 0 0,1 7,15M7,11A1,1 0 0,0 6,12A1,1 0 0,0 7,13A1,1 0 0,0 8,12A1,1 0 0,0 7,11Z" />
        </g>
    </symbol>

    <symbol id="AccountShowOrder" viewBox="0 0 16 11">
        <g>
            <path fill-rule="evenodd" clip-rule="evenodd" d="M8 0.375C4.70455 0.375 1.89023 2.42477 0.75 5.31818C1.89023 8.21159 4.70455 10.2614 8 10.2614C11.2955 10.2614 14.1098 8.21159 15.25 5.31818C14.1098 2.42477 11.2955 0.375 8 0.375ZM8 8.61364C6.18091 8.61364 4.70455 7.13727 4.70455 5.31818C4.70455 3.49909 6.18091 2.02273 8 2.02273C9.81909 2.02273 11.2955 3.49909 11.2955 5.31818C11.2955 7.13727 9.81909 8.61364 8 8.61364ZM8 3.34091C6.90591 3.34091 6.02273 4.22409 6.02273 5.31818C6.02273 6.41227 6.90591 7.29545 8 7.29545C9.09409 7.29545 9.97727 6.41227 9.97727 5.31818C9.97727 4.22409 9.09409 3.34091 8 3.34091Z" fill="currentColor"/>
            <mask id="mask0" maskUnits="userSpaceOnUse" x="0" y="0" width="16" height="11">
                <path fill-rule="evenodd" clip-rule="evenodd" d="M8 0.375C4.70455 0.375 1.89023 2.42477 0.75 5.31818C1.89023 8.21159 4.70455 10.2614 8 10.2614C11.2955 10.2614 14.1098 8.21159 15.25 5.31818C14.1098 2.42477 11.2955 0.375 8 0.375ZM8 8.61364C6.18091 8.61364 4.70455 7.13727 4.70455 5.31818C4.70455 3.49909 6.18091 2.02273 8 2.02273C9.81909 2.02273 11.2955 3.49909 11.2955 5.31818C11.2955 7.13727 9.81909 8.61364 8 8.61364ZM8 3.34091C6.90591 3.34091 6.02273 4.22409 6.02273 5.31818C6.02273 6.41227 6.90591 7.29545 8 7.29545C9.09409 7.29545 9.97727 6.41227 9.97727 5.31818C9.97727 4.22409 9.09409 3.34091 8 3.34091Z" fill="currentColor"/>
            </mask>
        </g>
    </symbol>

    <symbol id="AccountEdit" viewBox="0 0 15 16">
        <g>
            <path fill-rule="evenodd" clip-rule="evenodd" d="M13.1738 0.965787L14.5331 2.32516C15.1557 2.94775 15.1556 3.95539 14.5331 4.57789L4.42016 14.6916C4.35764 14.7541 4.27427 14.7971 4.18945 14.813L0.51946 15.4927C0.377341 15.519 0.23115 15.4737 0.128699 15.3713C0.0263647 15.269 -0.0189869 15.1228 0.00735102 14.9805L0.68698 11.3102C0.702156 11.2275 0.744753 11.1431 0.808328 11.0795L10.9213 0.965787C11.5423 0.344752 12.5528 0.344723 13.1738 0.965787ZM1.39904 12.2918L0.987917 14.512L3.20801 14.1008L1.39904 12.2918ZM4.10944 13.7593L1.74052 11.3903L10.3893 2.74086L12.7582 5.10995L4.10944 13.7593ZM13.3796 4.48847L13.9116 3.95641C14.1907 3.67733 14.1907 3.22575 13.9116 2.9467L12.5524 1.58732C12.274 1.30891 11.8211 1.30894 11.5427 1.58732L11.0107 2.11938L13.3796 4.48847Z" fill="currentColor"/>
        </g>
    </symbol>

    <symbol id="AccountDelete" viewBox="0 0 14 16">
        <g>
            <path d="M9.85801 5.67048L8.68418 5.62744L8.42969 12.5744L9.60352 12.6172L9.85801 5.67048Z" fill="currentColor"/>
            <rect x="6.41309" y="5.64893" width="1.17459" height="6.94696" fill="currentColor"/>
            <path d="M5.56992 12.5742L5.31543 5.6272L4.1416 5.67026L4.39612 12.6172L5.56992 12.5742Z" fill="currentColor"/>
            <path fill-rule="evenodd" clip-rule="evenodd" d="M0.0107422 3.9268V2.75269H13.9885V3.9268H12.7448L11.7738 14.9562C11.7474 15.2593 11.4933 15.492 11.1889 15.492H2.79062C2.48622 15.492 2.23229 15.2595 2.20567 14.9564L1.23469 3.9268H0.0107422ZM3.32842 14.3179H10.6509L11.5658 3.9268H2.41379L3.32842 14.3179Z" fill="currentColor"/>
            <path d="M8.90813 0.503906H5.09095C4.55401 0.503906 4.11719 0.937027 4.11719 1.46941V3.30391H5.2857V1.66252H8.71338V3.30391H9.88189V1.46941C9.88189 0.937027 9.44507 0.503906 8.90813 0.503906Z" fill="currentColor"/>
        </g>
    </symbol>

    <symbol id="ArrowDown" viewBox="0 0 24 24">
        <g>
            <path fill="currentColor" d="M7.41,8.58L12,13.17L16.59,8.58L18,10L12,16L6,10L7.41,8.58Z" />
        </g>
    </symbol>

    <symbol id="ShowPassIcon" viewBox="0 0 18 12">
        <path fill-rule="evenodd" clip-rule="evenodd" d="M9 0.375C5.25 0.375 2.0475 2.7075 0.75 6C2.0475 9.2925 5.25 11.625 9 11.625C12.75 11.625 15.9525 9.2925 17.25 6C15.9525 2.7075 12.75 0.375 9 0.375ZM9 9.75C6.93 9.75 5.25 8.07 5.25 6C5.25 3.93 6.93 2.25 9 2.25C11.07 2.25 12.75 3.93 12.75 6C12.75 8.07 11.07 9.75 9 9.75ZM9 3.75C7.755 3.75 6.75 4.755 6.75 6C6.75 7.245 7.755 8.25 9 8.25C10.245 8.25 11.25 7.245 11.25 6C11.25 4.755 10.245 3.75 9 3.75Z" fill="currentColor"/>
        <mask id="mask0" maskUnits="userSpaceOnUse" x="0" y="0" width="18" height="12">
            <path fill-rule="evenodd" clip-rule="evenodd" d="M9 0.375C5.25 0.375 2.0475 2.7075 0.75 6C2.0475 9.2925 5.25 11.625 9 11.625C12.75 11.625 15.9525 9.2925 17.25 6C15.9525 2.7075 12.75 0.375 9 0.375ZM9 9.75C6.93 9.75 5.25 8.07 5.25 6C5.25 3.93 6.93 2.25 9 2.25C11.07 2.25 12.75 3.93 12.75 6C12.75 8.07 11.07 9.75 9 9.75ZM9 3.75C7.755 3.75 6.75 4.755 6.75 6C6.75 7.245 7.755 8.25 9 8.25C10.245 8.25 11.25 7.245 11.25 6C11.25 4.755 10.245 3.75 9 3.75Z" fill="currentColor"/>
        </mask>
    </symbol>
    
</svg>