<svg width="36" height="33" viewBox="0 0 36 33" fill="none" xmlns="http://www.w3.org/2000/svg">
<path d="M2.12109 2H6.22366L11.9672 19.6H30.0185L34.1211 6.8H7.86468" stroke="#0DB85A" stroke-width="3" stroke-linecap="round" stroke-linejoin="round"/>
<path d="M14.8389 31.25C16.6321 31.25 18.1402 29.8246 18.1402 28C18.1402 26.1754 16.6321 24.75 14.8389 24.75C13.0457 24.75 11.5376 26.1754 11.5376 28C11.5376 29.8246 13.0457 31.25 14.8389 31.25Z" fill="#C73AAF" fill-opacity="0.01" stroke="#0DB85A" stroke-width="2.5"/>
<path d="M27.1465 31.25C28.9397 31.25 30.4478 29.8246 30.4478 28C30.4478 26.1754 28.9397 24.75 27.1465 24.75C25.3533 24.75 23.8452 26.1754 23.8452 28C23.8452 29.8246 25.3533 31.25 27.1465 31.25Z" fill="#C73AAF" fill-opacity="0.01" stroke="#0DB85A" stroke-width="2.5"/>
</svg>
