<svg width="33" height="17" viewBox="0 0 33 17" fill="none" xmlns="http://www.w3.org/2000/svg">
<path fill-rule="evenodd" clip-rule="evenodd" d="M16.1623 12.1866C14.1682 12.1866 12.5459 10.5332 12.5459 8.50079C12.5459 6.46839 14.1682 4.81494 16.1623 4.81494C18.1564 4.81494 19.7786 6.46839 19.7786 8.50079C19.7786 10.5332 18.1564 12.1866 16.1623 12.1866ZM16.1623 10.3321C17.1544 10.3321 17.9616 9.51059 17.9616 8.50079C17.9616 7.49099 17.1544 6.66949 16.1623 6.66949C15.1702 6.66949 14.363 7.49099 14.363 8.50079C14.363 9.51059 15.1702 10.3321 16.1623 10.3321Z" fill="#D8D8D8"/>
<path fill-rule="evenodd" clip-rule="evenodd" d="M0.788259 8.03143C7.21249 -2.42357 24.5119 -2.85333 31.5341 8.0271C31.7035 8.31765 31.7044 8.67928 31.5366 8.97075C25.1075 19.4308 7.80769 19.8503 0.790751 8.97508C0.621406 8.68454 0.620495 8.3229 0.788259 8.03143ZM16.1827 15.1127C19.7532 15.1015 22.6546 12.1399 22.6546 8.50081C22.6546 4.91622 19.8394 1.98882 16.3426 1.89127C12.703 1.77877 9.66143 4.8099 9.67031 8.50075C9.67031 12.103 12.5132 15.0413 16.034 15.1113C16.0834 15.112 16.133 15.1124 16.1827 15.1127ZM2.65859 8.49618C3.69642 6.69764 7.36366 3.69983 9.8991 2.9433C7.07676 6.23066 7.30701 10.9698 9.81601 13.9592C5.69817 12.3772 3.43536 9.60538 2.65859 8.49618ZM22.4252 14.0591C23.9183 13.5026 25.3062 12.7276 26.5801 11.7356C28.1968 10.4769 29.1988 9.18755 29.6663 8.50594C28.8896 7.3968 26.627 4.62531 22.5095 3.0432C25.0183 6.03297 25.2479 10.772 22.4252 14.0591Z" fill="#D8D8D8"/>
</svg>
