<svg width="16" height="16" viewBox="0 0 16 16" fill="none" xmlns="http://www.w3.org/2000/svg">
<path d="M8.77396 5.79182H7.26785V4.28263C7.26785 3.93671 6.98985 3.65814 6.64464 3.65814C6.29942 3.65814 6.02142 3.93671 6.02142 4.28263V5.79182H4.51531C4.17009 5.79182 3.89209 6.07039 3.89209 6.41631C3.89209 6.76222 4.17009 7.0408 4.51531 7.0408H6.02142V8.54998C6.02142 8.8959 6.29942 9.17447 6.64464 9.17447C6.98985 9.17447 7.26785 8.8959 7.26785 8.54998V7.0408H8.77396C9.11918 7.0408 9.39718 6.76222 9.39718 6.41631C9.39718 6.07039 9.11612 5.79182 8.77396 5.79182Z" fill="black"/>
<path fill-rule="evenodd" clip-rule="evenodd" d="M11.6045 10.4988L15.0728 13.9729C15.3177 14.2182 15.3177 14.6137 15.0758 14.859C14.8371 15.1013 14.3504 15.0216 14.1912 14.859L10.7229 11.385C9.61782 12.2957 8.20357 12.8415 6.66075 12.8415C3.12207 12.8415 0.256836 9.96838 0.256836 6.42686C0.256836 2.88534 3.11901 0.0122681 6.65769 0.0122681C10.1964 0.0122681 13.0616 2.88534 13.0616 6.42686C13.0616 7.97225 12.5137 9.39192 11.6045 10.4988ZM1.51191 6.42686C1.51191 9.27541 3.81695 11.5812 6.66075 11.5812C9.5015 11.5812 11.8065 9.27234 11.8065 6.42686C11.8065 3.58138 9.50456 1.2725 6.66075 1.2725C3.81695 1.2725 1.51191 3.57832 1.51191 6.42686Z" fill="black"/>
</svg>
