<?xml version="1.0" encoding="UTF-8"?>
<svg width="18px" height="18px" viewBox="0 0 18 18" version="1.1" xmlns="http://www.w3.org/2000/svg" xmlns:xlink="http://www.w3.org/1999/xlink">
    <title>Combined shape 3476</title>
    <g id="Page-1" stroke="none" stroke-width="1" fill="none" fill-rule="evenodd">
        <g id="category-page" transform="translate(-285.000000, -292.000000)" fill="#C8C8C8">
            <g id="Browse-by-catagory" transform="translate(37.000000, 271.000000)">
                <path d="M263.000025,20.999809 C264.656484,20.999809 265.999833,22.343284 265.999833,23.999785 L265.999833,35.999983 C265.999833,37.656799 264.656484,38.999959 263.000025,38.999959 L251.000835,38.999959 C249.343263,38.999959 247.998843,37.656799 247.998843,35.999983 L247.998843,23.999785 C247.998843,22.343284 249.343263,20.999809 251.000835,20.999809 L263.000025,20.999809 Z M258.34296,24.593665 L255.655716,24.593665 L255.654843,28.655809 L251.593119,28.656262 L251.593119,31.343506 L255.654843,31.342809 L255.655716,35.406103 L258.34296,35.406103 L258.342843,31.342809 L262.405557,31.343506 L262.405557,28.656262 L258.342843,28.655809 L258.34296,24.593665 Z" id="Combined-shape-3476"></path>
            </g>
        </g>
    </g>
</svg>