<?xml version="1.0" encoding="UTF-8"?>
<svg width="165px" height="96px" viewBox="0 0 165 96" version="1.1" xmlns="http://www.w3.org/2000/svg" xmlns:xlink="http://www.w3.org/1999/xlink">
    <!-- Generator: Sketch 55.1 (78136) - https://sketchapp.com -->
    <title>Group 81</title>
    <desc>Created with Sketch.</desc>
    <defs>
        <polygon id="path-1" points="0.850175 0.13045 159.747425 0.13045 159.747425 22 0.850175 22"></polygon>
    </defs>
    <g id="Page-1" stroke="none" stroke-width="1" fill="none" fill-rule="evenodd">
        <g id="Homepage-Copy" transform="translate(-832.000000, -917.000000)">
            <g id="Group-16" transform="translate(100.000000, 763.000000)">
                <g id="Group-13" transform="translate(640.000000, 55.000000)">
                    <g id="Group-81" transform="translate(92.000000, 99.000000)">
                        <path d="M35.1730916,47.1005573 C32.6920375,39.4091878 36.940141,31.1673157 44.6617203,28.6945304 L66.4949966,21.7058346 C74.2165758,19.2330493 82.4815172,23.4647571 84.9648166,31.1606023 L88.7571247,58.8804146 C91.2381788,66.5717842 86.9900753,74.815894 79.2707413,77.2864416 L66.7554511,81.294368 C59.0361171,83.7671533 50.7644399,79.5332077 48.285631,71.8396003 L35.1730916,47.1005573 Z" id="Fill-11" fill="#FBCB43"></path>
                        <path d="M47.7401983,41.3016873 C47.0462814,39.7786596 47.7108142,37.9729142 49.2207048,37.2775198 C50.735116,36.5775655 52.5207652,37.24788 53.2169423,38.7686278 L68.1892709,71.6938416 C68.8831877,73.2191493 68.2231757,75.0203347 66.7110247,75.722569 C65.1988738,76.4225234 63.4132247,75.7522088 62.7170476,74.2269011 L47.7401983,41.3016873 Z" id="Fill-13" fill="#FFE167"></path>
                        <g id="Group-10" transform="translate(1.465116, 0.000000)">
                            <path d="M45.7904384,33.8891294 C55.6655753,39.2949865 59.284274,51.6686437 53.8709178,61.5301008 C48.4620822,71.3938151 36.069,75.0052437 26.1961233,69.6016437 C16.318726,64.2003008 12.7000274,51.8243865 18.1111233,41.9606723 C23.5222192,32.0992151 35.9130411,28.4855294 45.7904384,33.8891294" id="Fill-32" fill="#5F9653"></path>
                            <path d="M29.4674178,21.4285723 C36.340911,25.1934865 38.8611164,33.8067437 35.0909795,40.6752294 C31.325363,47.5392008 22.7001575,50.0581723 15.8244041,46.2955151 C8.95091096,42.532858 6.42844521,33.9150865 10.1985822,27.048858 C13.9641986,20.1871437 22.5894041,17.6681723 29.4674178,21.4285723" id="Fill-34" fill="#5F9653"></path>
                            <path d="M58.8333493,3.00103226 C70.6455411,9.4654894 74.9739658,24.2678323 68.5005411,36.0614037 C62.0293767,47.8572323 47.2087603,52.1796608 35.3943082,45.7152037 C23.5821164,39.2552608 19.2559521,24.4506608 25.7271164,12.6548323 C32.1982808,0.861260827 47.0188973,-3.46342489 58.8333493,3.00103226" id="Fill-36" fill="#5F9653"></path>
                            <path d="M39.9740753,49.693418 C44.1488014,51.9821608 45.6790068,57.2097037 43.3916096,61.3809037 C41.1019521,65.5475894 35.8648973,67.0756751 31.6901712,64.7914465 C27.5154452,62.507218 25.9852397,57.2751608 28.272637,53.106218 C30.5600342,48.9372751 35.797089,47.4069323 39.9740753,49.693418" id="Fill-38" fill="#64B044"></path>
                            <path d="M45.0883973,10.6256608 C49.2020959,12.8760323 50.7096986,18.0313465 48.4584658,22.146118 C46.1981918,26.254118 41.035726,27.7618894 36.9197671,25.511518 C32.8038082,23.2588894 31.2939452,18.0990608 33.5519589,13.9888037 C35.8054521,9.87854654 40.9724384,8.37303226 45.0883973,10.6256608" id="Fill-40" fill="#64B044"></path>
                            <path d="M28.3063151,30.1968951 C31.0954932,31.7249808 32.117137,35.219038 30.5914521,38.0020951 C29.0612466,40.7851523 25.5646027,41.807638 22.7731644,40.2818094 C19.9839863,38.7559808 18.9623425,35.2619237 20.4902877,32.4766094 C22.0204932,29.6935523 25.517137,28.6710665 28.3063151,30.1968951" id="Fill-42" fill="#64B044"></path>
                            <path d="M53.105363,29.6680465 C55.1079658,30.7582465 55.8380342,33.2659323 54.7440616,35.2635037 C53.6478288,37.2565608 51.1389247,37.9923894 49.1363219,36.8976751 C47.1382397,35.805218 46.405911,33.2952751 47.5021438,31.2999608 C48.5961164,29.3023894 51.1050205,28.5710751 53.105363,29.6680465" id="Fill-44" fill="#64B044"></path>
                            <path d="M85.9918973,17.390318 C89.9360753,13.6637751 99.2913493,17.1442894 106.88813,25.1594037 C114.489432,33.174518 117.461692,42.6883751 113.524295,46.4194323 C109.582377,50.1392037 100.229363,46.6654608 92.6258014,38.6503465 C85.0222397,30.6329751 82.0567603,21.1146037 85.9918973,17.390318" id="Fill-46" fill="#5F9653"></path>
                            <path d="M110.254582,66.8998437 C102.467938,67.409958 95.2599247,54.1560151 94.1591712,37.3019294 C93.0606781,20.4433294 98.471774,6.37004368 106.256158,5.8599294 C114.045062,5.34981511 121.241774,18.603758 122.347048,35.4601008 C123.452322,52.3164437 118.032185,66.3942437 110.254582,66.8998437" id="Fill-48" fill="#64A74A"></path>
                            <path d="M112.691384,61.9027551 C107.363918,56.212498 113.057548,42.245298 125.409945,30.7045265 C137.766863,19.1660123 152.097,14.421498 157.426726,20.1140123 C162.758712,25.8065265 157.065082,39.764698 144.708164,51.3099837 C132.353507,62.848498 118.018849,67.5930123 112.691384,61.9027551" id="Fill-50" fill="#64A74A"></path>
                            <path d="M147.732185,51.679478 C142.522253,69.6418208 127.850815,81.1758208 114.949171,77.4515351 C102.052048,73.7227351 95.8091712,56.1418494 101.016842,38.1795065 C106.222253,20.2171637 120.900473,8.6786494 133.799856,12.4074494 C146.7015,16.1339923 152.937596,33.7171351 147.732185,51.679478" id="Fill-52" fill="#5F9653"></path>
                            <path d="M119.12774,75.423718 C112.227123,80.0282894 99.0045205,72.3810894 89.6040411,58.3484323 C80.1990411,44.3022323 78.1670548,29.1861465 85.0699315,24.5770608 C91.9682877,19.9702323 105.18411,27.6106608 114.59137,41.6546037 C123.99411,55.6940323 126.026096,70.8146323 119.12774,75.423718" id="Fill-54" fill="#8DC375"></path>
                            <path d="M161.68237,40.2262837 C166.297849,47.119598 158.637781,60.3148551 144.583397,69.7068265 C130.524493,79.1010551 115.380658,81.1279694 110.767438,74.2369123 C106.151959,67.3458551 113.805247,54.150598 127.866411,44.7518551 C141.927575,35.3689123 157.06689,33.3397408 161.68237,40.2262837" id="Fill-56" fill="#64B044"></path>
                            <path d="M42.7664178,59.0682351 C66.3749795,60.3525494 85.759089,56.9532923 85.759089,56.9532923 C85.759089,56.9532923 66.8609384,51.4639208 43.2523767,50.1773494 C19.6460753,48.8885208 0.261965753,52.2968065 0.261965753,52.2968065 C0.261965753,52.2968065 19.1601164,57.7839208 42.7664178,59.0682351" id="Fill-65" fill="#8DC375"></path>
                            <path d="M43.0333562,65.4119351 C66.5944521,63.4459637 85.3276027,57.414878 85.3276027,57.414878 C85.3276027,57.414878 65.8553425,54.570878 42.2919863,56.5368494 C18.7308904,58.5028208 -1.42108547e-14,64.5316494 -1.42108547e-14,64.5316494 C-1.42108547e-14,64.5316494 19.4722603,67.3756494 43.0333562,65.4119351" id="Fill-67" fill="#64B044"></path>
                            <path d="M53.5402397,51.6817351 C69.9588699,57.0898494 84.2890068,58.378678 84.2890068,58.378678 C84.2890068,58.378678 71.997637,50.9030208 55.5835274,45.4994208 C39.1694178,40.0935637 24.8347603,38.802478 24.8347603,38.802478 C24.8347603,38.802478 37.1216096,46.2736208 53.5402397,51.6817351" id="Fill-69" fill="#64B044"></path>
                            <path d="M101.284007,64.0077665 C123.794075,65.231138 142.194966,63.4525094 142.380308,60.032938 C142.570171,56.6133665 124.469897,52.8461951 101.959829,51.6183094 C79.4497603,50.3971951 72.6395548,52.8055665 72.4496918,56.225138 C72.2666096,59.6447094 78.7716781,62.782138 101.284007,64.0077665" id="Fill-71" fill="#F7971E"></path>
                            <path d="M91.3268219,62.4054208 C91.9529178,62.439278 92.4886027,61.9607637 92.5202466,61.333278 L92.7281918,57.5345065 C92.7643562,56.9070208 92.2851781,56.372078 91.6568219,56.3382208 C91.030726,56.3043637 90.4973014,56.7851351 90.461137,57.4103637 L90.2509315,61.2113923 C90.2192877,61.8366208 90.6984658,62.3715637 91.3268219,62.4054208" id="Fill-73" fill="#E8721B"></path>
                            <path d="M104.992212,57.8712723 C105.618308,57.9073865 106.156253,57.4266151 106.187897,56.8013865 L106.395842,52.9981008 C106.432007,52.3751294 105.950568,51.8379294 105.322212,51.8040723 C104.698377,51.7702151 104.160432,52.2487294 104.124267,52.8762151 L103.916322,56.6749865 C103.882418,57.3002151 104.366116,57.835158 104.992212,57.8712723" id="Fill-75" fill="#E8721B"></path>
                            <path d="M116.933692,63.8005608 C117.557527,63.8366751 118.095473,63.3559037 118.124856,62.728418 L118.335062,58.9296465 C118.368966,58.2999037 117.887527,57.767218 117.263692,57.7333608 C116.635336,57.6972465 116.099651,58.1802751 116.065747,58.8032465 L115.855541,62.6042751 C115.823897,63.2317608 116.305336,63.7667037 116.933692,63.8005608" id="Fill-77" fill="#E8721B"></path>
                            <path d="M130.444705,61.4906008 C131.068541,61.5267151 131.606486,61.0482008 131.64039,60.4207151 L131.850596,56.6196865 C131.8845,55.994458 131.403062,55.4595151 130.774705,55.4234008 C130.14861,55.3895437 129.612925,55.8725723 129.57676,56.4978008 L129.371075,60.2988294 C129.337171,60.924058 129.81861,61.4567437 130.444705,61.4906008" id="Fill-79" fill="#E8721B"></path>
                        </g>
                        <path d="M41.6818322,29.9599749 C40.9215058,27.6573368 42.2252486,25.1883231 44.5998416,24.4496155 L64.5715383,18.2116401 C66.943848,17.4707141 69.4851191,18.7373869 70.2477288,21.0400251 C71.0103385,23.3470999 69.7020291,25.8161136 67.3320026,26.5570396 L47.3534561,32.7883599 C44.9834297,33.5292859 42.4467251,32.2626131 41.6818322,29.9599749" id="Fill-15" fill="#5F9653"></path>
                        <path d="M48.5898521,12.2033036 C48.1512093,10.9124065 48.9065193,9.52882954 50.2740526,9.11839046 C51.6462772,8.70353805 53.1123292,9.41408313 53.5509719,10.7005669 L57.3392501,21.8000755 C57.7802386,23.088766 57.0249286,24.4701362 55.659741,24.8805753 C54.2898621,25.2976344 52.8214644,24.5870893 52.380476,23.2983988 L48.5898521,12.2033036 Z" id="Fill-17" fill="#5F9653"></path>
                        <path d="M50.4651163,61 C50.4651163,72.5987714 39.271322,82 25.4639888,82 C11.6566555,82 0.465116279,72.5987714 0.465116279,61 C0.465116279,49.4012286 11.6566555,40 25.4639888,40 C39.271322,40 50.4651163,49.4012286 50.4651163,61" id="Fill-19" fill="#E3483F"></path>
                        <path d="M30.7952961,45.2205821 C33.9515494,45.035343 36.4651163,43.1600832 36.4651163,43.1600832 C36.4651163,43.1600832 33.9995793,41.1110187 30.8067318,40.8022869 C32.9063264,38.4399168 33.356893,35.3343035 33.356893,35.3343035 C33.356893,35.3343035 30.1663326,35.6338877 27.6870728,37.6715177 C27.5063888,34.5133056 25.6240725,32 25.6240725,32 C25.6240725,32 23.5793693,34.4675676 23.2706054,37.6623701 C20.9102769,35.55842 17.7997665,35.1079002 17.7997665,35.1079002 C17.7997665,35.1079002 18.0970947,38.3004158 20.1395107,40.7817048 C16.9786832,40.9600832 14.4651163,42.8422037 14.4651163,42.8422037 C14.4651163,42.8422037 16.9329404,44.8866944 20.1303621,45.1954262 C18.0239062,47.5577963 17.5779139,50.6656965 17.5779139,50.6656965 C17.5779139,50.6656965 20.7661871,50.3683992 23.2454469,48.3261954 C23.4284181,51.4844075 25.3107343,54 25.3107343,54 C25.3107343,54 27.3508632,51.5347193 27.6642014,48.3376299 C30.0268171,50.44158 33.1304661,50.8898129 33.1304661,50.8898129 C33.1304661,50.8898129 32.835425,47.6972973 30.7952961,45.2205821" id="Fill-21" fill="#5F9653"></path>
                        <g id="Group-25" transform="translate(0.465116, 74.000000)">
                            <mask id="mask-2" fill="white">
                                <use xlink:href="#path-1"></use>
                            </mask>
                            <g id="Clip-24"></g>
                            <path d="M159.747425,18.89155 C159.747425,20.60965 158.388425,22.00115 156.705425,22.00115 L3.889925,22.00115 C2.209175,22.00115 0.850175,20.60965 0.850175,18.89155 L0.850175,3.23775 C0.850175,1.52195 2.209175,0.13045 3.889925,0.13045 L156.705425,0.13045 C158.388425,0.13045 159.747425,1.52195 159.747425,3.23775 L159.747425,18.89155 Z" id="Fill-23" fill="#AD7C5E" mask="url(#mask-2)"></path>
                        </g>
                        <path d="M14.4651163,85 C14.4651163,86.6558735 13.1204835,88 11.4639863,88 C9.80748916,88 8.46511628,86.6558735 8.46511628,85 C8.46511628,83.3441265 9.80748916,82 11.4639863,82 C13.1204835,82 14.4651163,83.3441265 14.4651163,85" id="Fill-26" fill="#8D5C3E"></path>
                        <path d="M151.465116,85 C151.465116,86.6558735 150.122743,88 148.463986,88 C146.809749,88 145.465116,86.6558735 145.465116,85 C145.465116,83.3441265 146.809749,82 148.463986,82 C150.122743,82 151.465116,83.3441265 151.465116,85" id="Fill-28" fill="#8D5C3E"></path>
                    </g>
                </g>
            </g>
        </g>
    </g>
</svg>