<?xml version="1.0" encoding="UTF-8"?>
<svg width="124px" height="97px" viewBox="0 0 124 97" version="1.1" xmlns="http://www.w3.org/2000/svg" xmlns:xlink="http://www.w3.org/1999/xlink">
    <!-- Generator: Sketch 55.1 (78136) - https://sketchapp.com -->
    <title>Group 84</title>
    <desc>Created with Sketch.</desc>
    <defs>
        <polygon id="path-1" points="0 0.529521311 39.0389039 0.529521311 39.0389039 96.3928 0 96.3928"></polygon>
        <polygon id="path-3" points="0 0.571695082 19.8121403 0.571695082 19.8121403 37.4341798 0 37.4341798"></polygon>
    </defs>
    <g id="Page-1" stroke="none" stroke-width="1" fill="none" fill-rule="evenodd">
        <g id="Homepage-Copy" transform="translate(-1192.000000, -1161.000000)">
            <g id="Group-16" transform="translate(100.000000, 763.000000)">
                <g id="Group-14-Copy" transform="translate(960.000000, 295.000000)">
                    <g id="Group-84" transform="translate(132.000000, 103.000000)">
                        <g id="Group-83" transform="translate(0.500000, 0.000000)">
                            <path d="M122.884966,35.5578557 C122.85759,30.5293311 119.156914,25.288741 115.430473,20.1027738 C112.638057,16.2373967 112.208083,10.4698557 112.182317,7.78690492 L112.520499,7.78690492 C114.130888,7.78690492 115.430473,6.66874098 115.430473,5.29513443 L115.430473,3.11664262 C115.430473,1.73018361 114.130888,0.61362623 112.520499,0.61362623 L103.404083,0.61362623 L103.325174,0.61362623 L94.2087584,0.61362623 C92.5983688,0.61362623 91.3003948,1.73018361 91.3003948,3.11664262 L91.3003948,5.29513443 C91.3003948,6.66874098 92.5983688,7.78690492 94.2087584,7.78690492 L94.5469403,7.78690492 C94.521174,10.4698557 94.0928104,16.2373967 91.3003948,20.1027738 C87.5723429,25.288741 83.8700571,30.5293311 83.8459013,35.5578557 C83.8459013,35.5932 83.8587844,35.6349705 83.8587844,35.6687082 C83.8587844,35.7040525 83.8459013,35.7249377 83.8459013,35.7474295 L83.8459013,87.1540525 C83.8459013,91.6716918 91.1280831,96.4576262 103.325174,96.4736918 L103.363823,96.4736918 L103.404083,96.4736918 C115.601174,96.4576262 122.884966,91.6716918 122.884966,87.1540525 L122.884966,35.7474295 C122.884966,35.7249377 122.870473,35.7040525 122.870473,35.6687082 C122.870473,35.6349705 122.884966,35.5932 122.884966,35.5578557" id="Fill-1" fill="#CAECF4"></path>
                            <path d="M87.9549714,36.4403377 L87.9549714,87.2300426 C87.9549714,90.2391246 94.8715948,92.6762721 103.405049,92.6762721 C111.936894,92.6762721 118.853517,90.2391246 118.853517,87.2300426 L118.853517,36.4403377 L87.9549714,36.4403377 Z" id="Fill-3" fill="#4DBFD9"></path>
                            <path d="M118.854322,36.4403377 C118.854322,37.9087311 111.937699,39.0991902 103.404244,39.0991902 C94.8724,39.0991902 87.9557766,37.9087311 87.9557766,36.4403377 C87.9557766,34.9703377 94.8724,33.7814852 103.404244,33.7814852 C111.937699,33.7814852 118.854322,34.9703377 118.854322,36.4403377" id="Fill-5" fill="#95D8E9"></path>
                            <path d="M115.455917,6.14002295 C115.455917,7.56985902 114.293216,8.7314 112.858358,8.7314 L93.6979429,8.7314 C92.2646961,8.7314 91.1003844,7.56985902 91.1003844,6.14002295 L91.1003844,3.20484262 C91.1003844,1.77179344 92.2646961,0.613465574 93.6979429,0.613465574 L112.858358,0.613465574 C114.293216,0.613465574 115.455917,1.77179344 115.455917,3.20484262 L115.455917,6.14002295 Z" id="Fill-7" fill="#4DBFD9"></path>
                            <path d="M109.409065,27.8214787 C109.409065,29.2513148 108.246364,30.4128557 106.811506,30.4128557 L106.255922,30.4128557 C104.821065,30.4128557 103.658364,29.2513148 103.658364,27.8214787 L103.658364,13.7673148 C103.658364,12.3342656 104.821065,11.1759377 106.255922,11.1759377 L106.811506,11.1759377 C108.246364,11.1759377 109.409065,12.3342656 109.409065,13.7673148 L109.409065,27.8214787 Z" id="Fill-9" fill="#FFFFFF"></path>
                            <path d="M115.828561,79.2211934 C115.828561,80.6510295 114.66586,81.8125705 113.231003,81.8125705 L112.206795,81.8125705 C110.771938,81.8125705 109.609236,80.6510295 109.609236,79.2211934 L109.609236,45.5686361 C109.609236,44.1388 110.771938,42.9756525 112.206795,42.9756525 L113.231003,42.9756525 C114.66586,42.9756525 115.828561,44.1388 115.828561,45.5686361 L115.828561,79.2211934 Z" id="Fill-11" fill="#FFFFFF"></path>
                            <path d="M108.196442,71.789259 C108.196442,73.1098492 107.122312,74.181423 105.800182,74.181423 C104.476442,74.181423 103.403922,73.1098492 103.403922,71.789259 C103.403922,70.471882 104.476442,69.4003082 105.800182,69.4003082 C107.122312,69.4003082 108.196442,70.471882 108.196442,71.789259" id="Fill-13" fill="#95D8E9"></path>
                            <path d="M105.673927,59.5008623 C105.673927,60.823059 104.601408,61.8930262 103.277668,61.8930262 C101.953927,61.8930262 100.881408,60.823059 100.881408,59.5008623 C100.881408,58.1802721 101.953927,57.1103049 103.277668,57.1103049 C104.601408,57.1103049 105.673927,58.1802721 105.673927,59.5008623" id="Fill-15" fill="#95D8E9"></path>
                            <path d="M98.1936675,44.0957443 C98.1936675,45.4163344 97.1211481,46.4863016 95.7974078,46.4863016 C94.4736675,46.4863016 93.4011481,45.4163344 93.4011481,44.0957443 C93.4011481,42.7735475 94.4736675,41.7035803 95.7974078,41.7035803 C97.1211481,41.7035803 98.1936675,42.7735475 98.1936675,44.0957443" id="Fill-17" fill="#95D8E9"></path>
                            <path d="M108.930135,46.4867836 C108.930135,47.8073738 107.856005,48.8789475 106.533875,48.8789475 C105.210135,48.8789475 104.137616,47.8073738 104.137616,46.4867836 C104.137616,45.1661934 105.210135,44.0962262 106.533875,44.0962262 C107.856005,44.0962262 108.930135,45.1661934 108.930135,46.4867836" id="Fill-19" fill="#95D8E9"></path>
                            <path d="M110.591574,87.2414492 C110.591574,88.5620393 109.519055,89.6320066 108.195314,89.6320066 C106.871574,89.6320066 105.799055,88.5620393 105.799055,87.2414492 C105.799055,85.9192525 106.871574,84.8492852 108.195314,84.8492852 C109.519055,84.8492852 110.591574,85.9192525 110.591574,87.2414492" id="Fill-21" fill="#95D8E9"></path>
                            <path d="M103.404727,82.7896787 C103.404727,84.1102689 102.330597,85.1802361 101.008468,85.1802361 C99.6831169,85.1802361 98.6105974,84.1102689 98.6105974,82.7896787 C98.6105974,81.4690885 99.6831169,80.3991213 101.008468,80.3991213 C102.330597,80.3991213 103.404727,81.4690885 103.404727,82.7896787" id="Fill-23" fill="#95D8E9"></path>
                            <g id="Group-27" transform="translate(0.000000, 0.080892)">
                                <mask id="mask-2" fill="white">
                                    <use xlink:href="#path-1"></use>
                                </mask>
                                <g id="Clip-26"></g>
                                <path d="M39.0260208,35.5765705 C39.0260208,35.6151279 39.0389039,35.6424393 39.0389039,35.6536852 L39.0389039,87.0651279 C39.0389039,89.3191279 37.220774,91.6518492 33.8695532,93.4126361 C30.532826,95.1750295 25.6485143,96.3815541 19.5596312,96.3928 L19.4807221,96.3928 C7.28524156,96.3670951 -0.000161038961,91.5875869 -0.000161038961,87.0651279 L-0.000161038961,35.6536852 C-0.000161038961,35.6424393 0.0127220779,35.6151279 0.0127220779,35.5765705 C0.0127220779,35.5508656 -0.000161038961,35.5123082 -0.000161038961,35.4737508 C0.0256051948,30.4468328 3.72789091,25.1998164 7.45433247,20.0154557 C9.9600987,16.5565377 10.5591636,11.568177 10.6751117,8.64102951 C10.6879948,8.2908 10.7008779,7.98073443 10.7008779,7.69637377 L10.3643065,7.69637377 C8.75230649,7.69637377 7.45433247,6.58142295 7.45433247,5.20781639 L7.45433247,3.03093115 C7.45433247,1.64447213 8.75230649,0.529521311 10.3643065,0.529521311 L28.6760468,0.529521311 C29.883839,0.529521311 30.9225403,1.15125902 31.363787,2.04450492 C31.5071117,2.35778361 31.5844104,2.68070164 31.5844104,3.03093115 L31.5844104,5.20781639 C31.5844104,6.58142295 30.2864364,7.69637377 28.6760468,7.69637377 L28.3378649,7.69637377 C28.3378649,7.98073443 28.3507481,8.2908 28.3636312,8.64102951 C28.4811896,11.568177 29.0786442,16.5565377 31.5844104,20.0154557 C35.3124623,25.1998164 39.0131377,30.4468328 39.0389039,35.4737508 C39.0389039,35.5123082 39.0260208,35.5508656 39.0260208,35.5765705" id="Fill-25" fill="#CAECF4" mask="url(#mask-2)"></path>
                            </g>
                            <path d="M4.10939221,36.4340721 L4.10939221,87.223777 C4.10939221,90.232859 11.0260156,92.6700066 19.5594701,92.6700066 C28.0929247,92.6700066 35.0095481,90.232859 35.0095481,87.223777 L35.0095481,36.4340721 L4.10939221,36.4340721 Z" id="Fill-28" fill="#F7971E"></path>
                            <path d="M35.0095481,36.4340721 C35.0095481,37.9024656 28.0929247,39.0945311 19.5594701,39.0945311 C11.0260156,39.0945311 4.10939221,37.9024656 4.10939221,36.4340721 C4.10939221,34.9640721 11.0260156,33.7752197 19.5594701,33.7752197 C28.0929247,33.7752197 35.0095481,34.9640721 35.0095481,36.4340721" id="Fill-30" fill="#F9B256"></path>
                            <path d="M31.6101766,6.13375738 C31.6101766,7.56359344 30.4474753,8.72513443 29.0126182,8.72513443 L9.8522026,8.72513443 C8.41895584,8.72513443 7.25464416,7.56359344 7.25464416,6.13375738 L7.25464416,3.19857705 C7.25464416,1.76552787 8.41895584,0.6072 9.8522026,0.6072 L29.0126182,0.6072 C30.4474753,0.6072 31.6101766,1.76552787 31.6101766,3.19857705 L31.6101766,6.13375738 Z" id="Fill-32" fill="#E8721B"></path>
                            <path d="M25.5626805,27.8152131 C25.5626805,29.2482623 24.4015896,30.4065902 22.9651221,30.4065902 L22.4095377,30.4065902 C20.9746805,30.4065902 19.8119792,29.2482623 19.8119792,27.8152131 L19.8119792,13.7610492 C19.8119792,12.3312131 20.9746805,11.1696721 22.4095377,11.1696721 L22.9651221,11.1696721 C24.4015896,11.1696721 25.5626805,12.3312131 25.5626805,13.7610492 L25.5626805,27.8152131 Z" id="Fill-34" fill="#FFFFFF"></path>
                            <path d="M31.7824883,78.6736787 C31.7824883,80.1067279 30.619787,81.2650557 29.1849299,81.2650557 L28.1591117,81.2650557 C26.7258649,81.2650557 25.5631636,80.1067279 25.5631636,78.6736787 L25.5631636,45.0227279 C25.5631636,43.5912852 26.7258649,42.4313508 28.1591117,42.4313508 L29.1849299,42.4313508 C30.619787,42.4313508 31.7824883,43.5912852 31.7824883,45.0227279 L31.7824883,78.6736787 Z" id="Fill-36" fill="#FFFFFF"></path>
                            <g id="Group-40" transform="translate(0.000000, 42.851384)">
                                <mask id="mask-4" fill="white">
                                    <use xlink:href="#path-3"></use>
                                </mask>
                                <g id="Clip-39"></g>
                                <path d="M19.8121403,36.6678262 C4.10923117,39.4054 -0.000483116883,33.9286459 -0.000483116883,33.9286459 L-0.000483116883,0.571695082 C-0.000483116883,0.571695082 2.8176987,5.69179344 19.8121403,3.30926885 L19.8121403,36.6678262 Z" id="Fill-38" fill="#F2F2F2" mask="url(#mask-4)"></path>
                            </g>
                            <path d="M0.448171429,62.0604295 C0.448171429,66.889741 4.37269091,70.8049213 9.2103013,70.8049213 C14.0511325,70.8049213 17.9756519,66.889741 17.9756519,62.0604295 C17.9756519,57.231118 14.0511325,53.3175443 9.2103013,53.3175443 C4.37269091,53.3175443 0.448171429,57.231118 0.448171429,62.0604295" id="Fill-41" fill="#E8721B"></path>
                            <path d="M1.61828052,62.0589836 C1.61828052,62.1682295 1.61828052,62.279082 1.62794286,62.3883279 C1.70202078,64.2358689 2.44441039,65.9082951 3.60872208,67.1806885 C3.76492987,67.3397377 3.91791688,67.4971803 4.08217662,67.6417705 C5.35599481,68.8097377 7.03402078,69.5487541 8.88113766,69.6226557 C8.99064416,69.6322951 9.10015065,69.6322951 9.20965714,69.6322951 C9.32399481,69.6322951 9.4335013,69.6322951 9.5413974,69.6226557 C11.3901247,69.5439344 13.0665403,68.8097377 14.3419688,67.6417705 C14.5062286,67.4971803 14.660826,67.3397377 14.813813,67.1806885 C15.9781247,65.9082951 16.7205143,64.2358689 16.7945922,62.3883279 C16.8058649,62.279082 16.8058649,62.1682295 16.8058649,62.0589836 C16.8058649,61.9513443 16.8058649,61.8420984 16.7945922,61.7312459 C16.7205143,59.8885246 15.9781247,58.2160984 14.8089818,56.9453115 C14.660826,56.7798361 14.5062286,56.6272131 14.3419688,56.4778033 C13.0665403,55.3098361 11.3901247,54.5756393 9.5413974,54.496918 C9.4335013,54.4872787 9.32399481,54.4872787 9.20965714,54.4872787 C9.10015065,54.4872787 8.99064416,54.4872787 8.88113766,54.496918 C7.03402078,54.5708197 5.35599481,55.3098361 4.08217662,56.4778033 C3.91791688,56.6272131 3.76492987,56.7798361 3.61355325,56.9453115 C2.44441039,58.2160984 1.70202078,59.8885246 1.62794286,61.7312459 C1.61828052,61.8420984 1.61828052,61.9513443 1.61828052,62.0589836" id="Fill-43" fill="#F9B256"></path>
                            <path d="M1.62842597,62.3875246 L8.4129974,62.3875246 L3.60920519,67.1798852 C3.7638026,67.3389344 3.91678961,67.4979836 4.08265974,67.6425738 L8.88001039,62.8550328 L8.88001039,69.623459 C8.99112727,69.6330984 9.09902338,69.6330984 9.21014026,69.6330984 C9.32447792,69.6330984 9.43398442,69.6330984 9.54188052,69.623459 L9.54188052,62.8550328 L14.3424519,67.6425738 C14.5067117,67.4979836 14.6596987,67.3389344 14.8142961,67.1798852 L10.0121143,62.3875246 L16.7950753,62.3875246 C16.8047377,62.2782787 16.8047377,62.1690328 16.8047377,62.0581803 C16.8047377,61.950541 16.8047377,61.8412951 16.7950753,61.7320492 L10.0121143,61.7320492 L14.8094649,56.9445082 C14.6596987,56.7806393 14.5067117,56.6264098 14.3424519,56.477 L9.54188052,61.264541 L9.54188052,54.4961148 C9.43398442,54.4864754 9.32447792,54.4864754 9.21014026,54.4864754 C9.09902338,54.4864754 8.99112727,54.4864754 8.88001039,54.4961148 L8.88001039,61.264541 L4.08265974,56.477 C3.91678961,56.6264098 3.7638026,56.7806393 3.61403636,56.9445082 L8.4129974,61.7320492 L1.62842597,61.7320492 C1.61876364,61.8412951 1.61876364,61.950541 1.61876364,62.0581803 C1.61876364,62.1690328 1.61876364,62.2782787 1.62842597,62.3875246" id="Fill-45" fill="#F7971E"></path>
                            <path d="M6.59889351,57.6801508 C6.93707532,58.3388393 7.82923117,58.5525115 7.82923117,58.5525115 C7.82923117,58.5525115 8.17385455,57.7042492 7.83406234,57.0471672 C7.49427013,56.3900852 6.94512727,55.9996918 6.60372468,56.1748066 C6.26232208,56.3483148 6.26071169,57.0230689 6.59889351,57.6801508" id="Fill-47" fill="#FCF6A8"></path>
                            <path d="M4.27912727,60.8641869 C4.98608831,61.0842852 5.76551688,60.6007115 5.76551688,60.6007115 C5.76551688,60.6007115 5.39995844,59.760482 4.6929974,59.5419902 C3.98603636,59.3218918 3.32094545,59.4391705 3.20660779,59.8054656 C3.09227013,60.1701541 3.57216623,60.6440885 4.27912727,60.8641869" id="Fill-49" fill="#FCF6A8"></path>
                            <path d="M4.86901299,64.6248164 C5.52444156,64.2826197 5.73379221,63.3909803 5.73379221,63.3909803 C5.73379221,63.3909803 4.88028571,63.0552098 4.22485714,63.3990131 C3.56781818,63.7412098 3.18132468,64.2938656 3.35846753,64.6328492 C3.53722078,64.9718328 4.21197403,64.9686197 4.86901299,64.6248164" id="Fill-51" fill="#FCF6A8"></path>
                            <path d="M7.98753247,66.9570557 C8.20976623,66.2533836 7.72503896,65.4742033 7.72503896,65.4742033 C7.72503896,65.4742033 6.88280519,65.8388918 6.66057143,66.5425639 C6.44155844,67.2478426 6.56072727,67.9113508 6.92467532,68.027023 C7.29184416,68.1410885 7.76690909,67.6623344 7.98753247,66.9570557" id="Fill-53" fill="#FCF6A8"></path>
                            <path d="M11.693361,66.4392623 C11.3712831,65.7757541 10.4855688,65.5395902 10.4855688,65.5395902 C10.4855688,65.5395902 10.1216208,66.3798197 10.4453091,67.0433279 C10.7689974,67.7100492 11.3116987,68.1132951 11.6563221,67.9446066 C12.0009455,67.7775246 12.0186597,67.1027705 11.693361,66.4392623" id="Fill-55" fill="#FCF6A8"></path>
                            <path d="M14.1593506,63.2372328 C13.4556104,63.0123148 12.6713506,63.4910689 12.6713506,63.4910689 C12.6713506,63.4910689 13.0320779,64.3345115 13.7374286,64.557823 C14.4443896,64.7811344 15.1094805,64.6654623 15.227039,64.3023803 C15.342987,63.9376918 14.8647013,63.4605443 14.1593506,63.2372328" id="Fill-57" fill="#FCF6A8"></path>
                            <path d="M13.6891169,59.5172492 C13.0191948,59.8321344 12.7744156,60.7125279 12.7744156,60.7125279 C12.7744156,60.7125279 13.6134286,61.0852492 14.2817403,60.7687574 C14.9516623,60.4522656 15.3607013,59.917282 15.1980519,59.568659 C15.0321818,59.2232492 14.359039,59.2007574 13.6891169,59.5172492" id="Fill-59" fill="#FCF6A8"></path>
                            <path d="M10.5155221,57.0815475 C10.2610805,57.7755803 10.7071584,58.5740393 10.7071584,58.5740393 C10.7071584,58.5740393 11.5654961,58.2511213 11.8215481,57.5570885 C12.0743792,56.8630557 11.9874182,56.1947279 11.6283013,56.0613836 C11.2691844,55.9312525 10.771574,56.3859082 10.5155221,57.0815475" id="Fill-61" fill="#FCF6A8"></path>
                            <path d="M81.033839,35.6574623 C81.033839,35.6960197 81.0612156,35.7233311 81.0612156,35.734577 L81.0612156,87.1460197 C81.0612156,89.4000197 79.2414753,91.732741 75.8918649,93.4935279 C72.5535273,95.2559213 67.670826,96.4624459 61.5787221,96.4736918 L61.5271896,96.4736918 L61.5014234,96.4736918 C49.2930597,96.4479869 42.0205403,91.6684787 42.0205403,87.1460197 L42.0205403,35.734577 C42.0205403,35.7233311 42.0334234,35.6960197 42.0334234,35.6574623 C42.0334234,35.6317574 42.0205403,35.5932 42.0205403,35.5546426 C42.0463065,30.5277246 45.7485922,25.2807082 49.4750338,20.0963475 C51.9808,16.6374295 52.5798649,11.6490689 52.695813,8.72192131 C52.7086961,8.3716918 52.7215792,8.06162623 52.7215792,7.77726557 L52.3833974,7.77726557 C50.7746182,7.77726557 49.4750338,6.66231475 49.4750338,5.2887082 L49.4750338,3.11182295 C49.4750338,1.72536393 50.7746182,0.610413115 52.3833974,0.610413115 L70.6967481,0.610413115 C71.9045403,0.610413115 72.9432416,1.23215082 73.3844883,2.12539672 C73.527813,2.43867541 73.6051117,2.76159344 73.6051117,3.11182295 L73.6051117,5.2887082 C73.6051117,6.66231475 72.3071377,7.77726557 70.6967481,7.77726557 L70.3585662,7.77726557 C70.3585662,8.06162623 70.3714494,8.3716918 70.3843325,8.72192131 C70.5018909,11.6490689 71.0993455,16.6374295 73.6051117,20.0963475 C77.3331636,25.2807082 81.0209558,30.5277246 81.0612156,35.5546426 C81.0612156,35.5932 81.033839,35.6317574 81.033839,35.6574623" id="Fill-63" fill="#CAECF4"></path>
                            <path d="M46.1257455,36.4340721 L46.1257455,87.223777 C46.1257455,90.232859 53.0423688,92.6700066 61.574213,92.6700066 C70.1076675,92.6700066 77.0242909,90.232859 77.0242909,87.223777 L77.0242909,36.4340721 L46.1257455,36.4340721 Z" id="Fill-65" fill="#FBCB43"></path>
                            <path d="M77.0242909,36.4340721 C77.0242909,37.9024656 70.1076675,39.0945311 61.574213,39.0945311 C53.0423688,39.0945311 46.1257455,37.9024656 46.1257455,36.4340721 C46.1257455,34.9640721 53.0423688,33.7752197 61.574213,33.7752197 C70.1076675,33.7752197 77.0242909,34.9640721 77.0242909,36.4340721" id="Fill-67" fill="#F5B400"></path>
                            <path d="M73.6258857,6.13375738 C73.6258857,7.56359344 72.461574,8.72513443 71.0283273,8.72513443 L51.8679117,8.72513443 C50.4330545,8.72513443 49.2703532,7.56359344 49.2703532,6.13375738 L49.2703532,3.19857705 C49.2703532,1.76552787 50.4330545,0.6072 51.8679117,0.6072 L71.0283273,0.6072 C72.461574,0.6072 73.6258857,1.76552787 73.6258857,3.19857705 L73.6258857,6.13375738 Z" id="Fill-69" fill="#F5B400"></path>
                            <path d="M67.5782286,27.8152131 C67.5782286,29.2482623 66.4171377,30.4065902 64.9806701,30.4065902 L64.4250857,30.4065902 C62.991839,30.4065902 61.8291377,29.2482623 61.8291377,27.8152131 L61.8291377,13.7610492 C61.8291377,12.3312131 62.991839,11.1696721 64.4250857,11.1696721 L64.9806701,11.1696721 C66.4171377,11.1696721 67.5782286,12.3312131 67.5782286,13.7610492 L67.5782286,27.8152131 Z" id="Fill-71" fill="#FFFFFF"></path>
                            <path d="M73.7980364,78.6736787 C73.7980364,80.1067279 72.6353351,81.2650557 71.2004779,81.2650557 L70.1762701,81.2650557 C68.741413,81.2650557 67.5787117,80.1067279 67.5787117,78.6736787 L67.5787117,45.0227279 C67.5787117,43.5912852 68.741413,42.4313508 70.1762701,42.4313508 L71.2004779,42.4313508 C72.6353351,42.4313508 73.7980364,43.5912852 73.7980364,45.0227279 L73.7980364,78.6736787 Z" id="Fill-73" fill="#FFFFFF"></path>
                            <path d="M61.6366961,79.5192098 C45.9353974,82.2567836 41.8240727,76.7800295 41.8240727,76.7800295 L41.8240727,43.4230787 C41.8240727,43.4230787 44.6422545,48.543177 61.6366961,46.1606525 L61.6366961,79.5192098 Z" id="Fill-75" fill="#F2F2F2"></path>
                            <path d="M56.3676623,69.9646918 C53.935974,71.9552164 51.3480779,72.8597082 49.0887013,71.9230852 C48.6394026,71.7335115 48.4381039,71.2884951 48.0242338,71.0683967 C47.802,70.9848557 47.4783117,71.0218066 47.1916623,71.0089541 C47.0402857,70.9977082 46.8953506,70.9800361 46.7842338,70.9222 C44.5457922,69.7445934 43.3363896,67.2367574 43.2623117,63.9401016 C43.1705195,59.3276754 45.607039,55.5394131 48.7054286,55.4719377 C49.1482857,55.4606918 49.5492727,55.4847902 49.9261039,55.5458393 C50.3866753,55.6245607 50.8166494,55.7562984 51.2530649,55.9763967 C52.0260519,56.349118 52.8215844,56.9708557 53.8296883,57.9476426 C53.8618961,57.9797738 53.8989351,58.015118 53.9327532,58.0488557 C56.4063117,58.0890197 58.0521299,58.839282 59.2905195,60.3382 C61.251974,62.7319705 59.9443377,67.0391508 56.3676623,69.9646918" id="Fill-77" fill="#F15723"></path>
                            <path d="M53.7759013,58.848118 C53.6132519,58.7742164 53.4908623,58.6215934 53.4650961,58.4320197 C53.4538234,58.3613311 53.2299792,56.6792656 54.2139273,55.4647082 C54.7840052,54.7642492 55.6165766,54.3722492 56.6907065,54.296741 C56.990239,54.2758557 57.2495117,54.5007738 57.2704468,54.7995934 C57.2913818,55.0984131 57.0643169,55.3570689 56.7663948,55.3779541 C56.0046805,55.432577 55.4297714,55.6896262 55.0593818,56.1458885 C54.3797974,56.9845115 54.5376156,58.2681508 54.539226,58.2810033 C54.5810961,58.5766098 54.3749662,58.8497246 54.0786545,58.8931016 C53.9707584,58.9075607 53.8676935,58.8898885 53.7759013,58.848118" id="Fill-79" fill="#79544E"></path>
                            <path d="M58.1139688,62.6511607 C58.5310597,63.7902098 58.3217091,64.9131934 57.6501766,65.1589967 C56.9754234,65.4031934 56.0913195,64.6786361 55.6726182,63.5395869 C55.2571377,62.3989311 55.4648779,61.2759475 56.1380208,61.0317508 C56.812774,60.7859475 57.6952675,61.5121115 58.1139688,62.6511607" id="Fill-81" fill="#FFFFFF"></path>
                        </g>
                    </g>
                </g>
            </g>
        </g>
    </g>
</svg>