<?xml version="1.0" encoding="UTF-8"?>
<svg width="172px" height="63px" viewBox="0 0 172 63" version="1.1" xmlns="http://www.w3.org/2000/svg" xmlns:xlink="http://www.w3.org/1999/xlink">
    <!-- Generator: Sketch 55.1 (78136) - https://sketchapp.com -->
    <title>Group 39</title>
    <desc>Created with Sketch.</desc>
    <defs>
        <polygon id="path-1" points="0 0.975146667 111.581292 0.975146667 111.581292 32 0 32"></polygon>
        <polygon id="path-3" points="0 0.3836 111.581292 0.3836 111.581292 27.4272923 0 27.4272923"></polygon>
        <polygon id="path-5" points="0.375095504 0.217430556 103.678883 0.217430556 103.678883 61.8118472 0.375095504 61.8118472"></polygon>
        <polygon id="path-7" points="0.307493667 0.846475062 102.753782 0.846475062 102.753782 63 0.307493667 63"></polygon>
    </defs>
    <g id="Page-1" stroke="none" stroke-width="1" fill="none" fill-rule="evenodd">
        <g id="Homepage-Copy" transform="translate(-820.000000, -1183.000000)">
            <g id="Group-16" transform="translate(100.000000, 763.000000)">
                <g id="Group-13-Copy" transform="translate(640.000000, 295.000000)">
                    <g id="Group-39" transform="translate(80.000000, 125.000000)">
                        <g id="Group-3" transform="translate(0.000000, 31.000000)">
                            <mask id="mask-2" fill="white">
                                <use xlink:href="#path-1"></use>
                            </mask>
                            <g id="Clip-2"></g>
                            <path d="M111.581292,0.975146667 L111.581292,4.07701333 L111.581292,18.60928 C111.581292,26.0055467 105.526831,32.0002133 98.0594462,32.0002133 L13.5252923,32.0002133 C6.05144615,32.0002133 -0.000861538462,26.0055467 -0.000861538462,18.60928 L-0.000861538462,7.01248 L-0.000861538462,0.975146667 L111.581292,0.975146667 Z" id="Fill-1" fill="#B2B2B2" mask="url(#mask-2)"></path>
                        </g>
                        <g id="Group-6" transform="translate(0.000000, 18.000000)">
                            <mask id="mask-4" fill="white">
                                <use xlink:href="#path-3"></use>
                            </mask>
                            <g id="Clip-5"></g>
                            <path d="M111.581292,13.9076 C111.581292,14.9909846 111.458523,16.0291385 111.215138,17.0392923 C109.808677,22.9968308 104.4456,27.4272923 98.0594462,27.4272923 L13.5252923,27.4272923 C6.05144615,27.4272923 -0.000861538462,21.3792923 -0.000861538462,13.9076 C-0.000861538462,10.1792923 1.51113846,6.78267692 3.9536,4.34021538 C6.40467692,1.8956 9.77975385,0.3836 13.5252923,0.3836 L98.0594462,0.3836 C104.734215,0.3836 110.267446,5.21036923 111.378831,11.5706769 C111.503754,12.3331385 111.581292,13.1106769 111.581292,13.9076" id="Fill-4" fill="#F15723" mask="url(#mask-4)"></path>
                        </g>
                        <path d="M30,30.9977195 C30,33.2120867 25.97463,35 21.0021142,35 C16.0338266,35 12,33.2120867 12,30.9977195 C12,28.7879133 16.0338266,27 21.0021142,27 C25.97463,27 30,28.7879133 30,30.9977195" id="Fill-7" fill="#FFFFFF"></path>
                        <path d="M110,32.136668 L110,35 L66.6978849,35 C65.2066131,35 64,33.8834187 64,32.4990154 C64,32.3729815 64.0148702,32.2489169 64.046735,32.136668 C64.2273021,30.9196534 65.3425695,30 66.6978849,30 L109.800314,30 C109.923525,30.6971249 110,31.4080347 110,32.136668" id="Fill-9" fill="#CC4139"></path>
                        <path d="M55,32.4976378 C55,33.3314961 54.6615044,34 54.2455752,34 L25.7544248,34 C25.3384956,34 25,33.3314961 25,32.4976378 C25,31.6708661 25.3384956,31 25.7544248,31 L54.2455752,31 C54.6615044,31 55,31.6708661 55,32.4976378" id="Fill-11" fill="#FFFFFF"></path>
                        <g id="Group-15" transform="translate(40.000000, 0.000000)">
                            <mask id="mask-6" fill="white">
                                <use xlink:href="#path-5"></use>
                            </mask>
                            <g id="Clip-14"></g>
                            <path d="M101.791083,27.2662222 L97.9279167,23.2857361 L88.85175,13.95775 C86.2344167,11.2710833 81.96175,11.2194167 79.2599167,13.7962917 L78.2654167,14.7499722 L71.62675,21.1265 C63.0640833,28.6741389 51.42475,37.7373333 43.50775,37.7373333 C29.12325,37.7373333 16.49375,30.4243472 9.21158333,19.3913611 C10.0219167,17.4710833 10.8344167,14.7736528 11.4540833,11.7339306 C12.69775,5.62865278 12.70425,0.483513889 11.4605833,0.225180556 C10.21475,-0.0266944444 8.19975,4.72448611 6.95175,10.8276111 C6.71341667,12.000875 6.53358333,13.1203194 6.38625,14.1967083 C6.23458333,13.1203194 6.05475,12.000875 5.81425,10.8254583 C4.56841667,4.72018056 2.54908333,-0.0266944444 1.30108333,0.225180556 C0.0639166667,0.483513889 0.0639166667,5.63511111 1.31625,11.7339306 C2.30641667,16.5884444 3.78191667,20.5689306 4.97575,21.8778194 C5.14258333,43.9480972 25.7909167,61.8118472 51.2600833,61.8118472 C70.5585833,61.8118472 96.09275,49.4053889 103.043417,34.7966389 C103.05425,34.7815694 103.05425,34.7621944 103.058583,34.7492778 C104.189583,32.2972639 103.777917,29.3242778 101.791083,27.2662222" id="Fill-13" fill="#F9B39A" mask="url(#mask-6)"></path>
                        </g>
                        <path d="M59.663672,45.9931142 C59.1638184,46.9119955 57.9931088,47.2698087 57.0416331,46.7807267 C56.0901575,46.3043482 55.7218443,45.1673913 56.2260826,44.24851 L62.3361346,33.0038588 C62.8337958,32.0849774 64.0066978,31.7356332 64.9581734,32.214129 C65.9118414,32.694742 66.2757699,33.8316988 65.7759163,34.7484629 L59.663672,45.9931142 Z" id="Fill-16" fill="#F5815A"></path>
                        <path d="M79,54.1838692 C79,55.186158 78.1090805,56 77.0034266,56 C75.8977727,56 75,55.186158 75,54.1838692 L75,38.8182016 C75,37.813842 75.8977727,37 77.0034266,37 C78.1090805,37 79,37.813842 79,38.8182016 L79,54.1838692 Z" id="Fill-18" fill="#F5815A"></path>
                        <path d="M98.9390968,55.6477164 C99.2054155,56.6561598 98.5734727,57.6820276 97.5285102,57.9412172 C96.4812906,58.1982286 95.4182725,57.5883709 95.1542107,56.5821056 L90.0603003,37.349806 C89.7962385,36.3391845 90.4236674,35.3133167 91.46863,35.0606613 C92.5158495,34.7992937 93.5788676,35.4069734 93.8497002,36.4132387 L98.9390968,55.6477164 Z" id="Fill-20" fill="#F5815A"></path>
                        <path d="M117.646109,46.881338 C118.301718,47.8125057 118.019442,49.061117 117.02237,49.6684923 C116.016193,50.2822165 114.675382,50.0176802 114.017497,49.0907451 L101.356055,31.119208 C100.69817,30.1901565 100.978169,28.939429 101.979794,28.3278211 C102.983694,27.7183295 104.324505,27.984982 104.980114,28.9098009 L117.646109,46.881338 Z" id="Fill-22" fill="#F5815A"></path>
                        <path d="M130.646611,35.8820132 C131.300008,36.8132583 131.022257,38.0640897 130.020533,38.6693989 C129.014255,39.2810576 127.668757,39.0186158 127.019913,38.0916037 L114.357207,20.116458 C113.69698,19.1894459 113.979284,17.9386145 114.978731,17.3248394 C115.980456,16.7216466 117.3214,16.9819719 117.977074,17.9111005 L130.646611,35.8820132 Z" id="Fill-24" fill="#F5815A"></path>
                        <g id="Group-28" transform="translate(69.000000, 0.000000)">
                            <mask id="mask-8" fill="white">
                                <use xlink:href="#path-7"></use>
                            </mask>
                            <g id="Clip-27"></g>
                            <path d="M100.879727,28.1394931 L97.0486809,24.1227 L88.0501261,14.709631 C85.4545544,11.9984586 81.2195612,11.9463207 78.5423407,14.5467 L77.5518121,15.5112517 L70.9726396,21.943769 C62.4747207,29.5602517 50.9386078,38.7061138 43.0852846,38.7061138 C28.8203836,38.7061138 16.2937421,31.3264241 9.07212255,20.1928034 C9.87571842,18.2593552 10.6793143,15.5329759 11.2981261,12.4655276 C12.5314524,6.30456207 12.5357497,1.1124931 11.3024234,0.856148276 C10.0669485,0.601975862 8.07299934,5.39214828 6.83322711,11.5509414 C6.59472673,12.7349069 6.41638861,13.8645621 6.27028027,14.9529414 C6.11987463,13.8645621 5.94153651,12.7349069 5.70088748,11.548769 C4.46970985,5.38780345 2.46501749,0.601975862 1.2273939,0.856148276 C-0.00163507181,1.1124931 -0.00163507181,6.31325172 1.24243447,12.4655276 C2.22436846,17.3643207 3.68974916,21.3832862 4.87365644,22.699769 C5.03695399,44.9735276 25.5157567,63.0002172 50.7688643,63.0002172 C69.9112054,63.0002172 95.2309212,50.4805966 102.125946,35.7385966 C102.13454,35.7233897 102.13454,35.7038379 102.138838,35.6908034 C103.258285,33.2185966 102.856487,30.2184931 100.879727,28.1394931" id="Fill-26" fill="#F5815A" mask="url(#mask-8)"></path>
                        </g>
                        <path d="M89.665583,48.9923487 C89.1656588,49.9154139 87.9925911,50.2689733 87.0431736,49.7799181 C86.0893709,49.3035656 85.7210056,48.1687881 86.2275078,47.2499571 L92.3384234,36.0038038 C92.836155,35.0849728 94.0092227,34.7356476 94.9630255,35.2141173 C95.9124429,35.694704 96.2764228,36.8315986 95.774306,37.7504297 L89.665583,48.9923487 Z" id="Fill-29" fill="#F15723"></path>
                        <path d="M109,56.1836712 C109,57.1860693 108.107815,58 107.005705,58 C105.89903,58 105,57.1860693 105,56.1836712 L105,40.8163288 C105,39.8118596 105.89903,39 107.005705,39 C108.107815,39 109,39.8118596 109,40.8163288 L109,56.1836712 Z" id="Fill-31" fill="#F15723"></path>
                        <path d="M126.9373,56.6465336 C127.208169,57.6549192 126.576141,58.6807283 125.528779,58.9420809 C124.481417,59.1968997 123.418254,58.5870769 123.156414,57.5808693 L118.059553,38.3496713 C117.797713,37.3391078 118.42297,36.3132987 119.470332,36.0606579 C120.517694,35.7993052 121.580856,36.4069501 121.849469,37.4131577 L126.9373,56.6465336 Z" id="Fill-33" fill="#F15723"></path>
                        <path d="M147.643251,47.881191 C148.303498,48.8124026 148.018909,50.0610728 147.023984,50.6684767 C146.017677,51.2822298 144.672138,51.0176811 144.020998,50.0907022 L131.355633,32.118318 C130.697662,31.1892227 130.979975,29.9384362 131.977176,29.3267995 C132.981207,28.7193955 134.324469,28.9839443 134.977886,29.9109231 L147.643251,47.881191 Z" id="Fill-35" fill="#F15723"></path>
                        <path d="M160.648286,36.8798823 C161.297089,37.8132481 161.026185,39.0640853 160.017696,39.6693974 C159.016036,40.2810589 157.672901,40.0186159 157.019545,39.0915995 L144.355376,21.1163703 C143.697468,20.1893539 143.979754,18.9406332 144.981414,18.3247387 C145.980797,17.7215431 147.323932,17.9818696 147.979564,18.913119 L160.648286,36.8798823 Z" id="Fill-37" fill="#F15723"></path>
                    </g>
                </g>
            </g>
        </g>
    </g>
</svg>