<?xml version="1.0" encoding="UTF-8"?>
<svg width="197px" height="80px" viewBox="0 0 197 80" version="1.1" xmlns="http://www.w3.org/2000/svg" xmlns:xlink="http://www.w3.org/1999/xlink">
    <!-- Generator: Sketch 55.1 (78136) - https://sketchapp.com -->
    <title>Group 55</title>
    <desc>Created with Sketch.</desc>
    <defs>
        <polygon id="path-1" points="0.360999107 0 102.507228 0 102.507228 79 0.360999107 79"></polygon>
        <polygon id="path-3" points="0.126228814 0.308908 89.5845044 0.308908 89.5845044 75.24 0.126228814 75.24"></polygon>
        <polygon id="path-5" points="0 0.418076786 129.579531 0.418076786 129.579531 27 0 27"></polygon>
        <polygon id="path-7" points="0.545949091 0.282745972 41.7393455 0.282745972 41.7393455 36.4833512 0.545949091 36.4833512"></polygon>
    </defs>
    <g id="Page-1" stroke="none" stroke-width="1" fill="none" fill-rule="evenodd">
        <g id="Homepage-Copy" transform="translate(-162.000000, -928.000000)">
            <g id="Group-16" transform="translate(100.000000, 763.000000)">
                <g id="Group-11" transform="translate(0.000000, 55.000000)">
                    <g id="Group-55" transform="translate(62.000000, 110.000000)">
                        <g id="Group-3" transform="translate(81.404762, 0.000000)">
                            <mask id="mask-2" fill="white">
                                <use xlink:href="#path-1"></use>
                            </mask>
                            <g id="Clip-2"></g>
                            <path d="M83.6935783,75.1397359 L65.571682,79.0006077 L31.3441462,75.1397359 C25.482556,75.1397359 20.7114943,70.3916333 20.7114943,64.5537359 L20.7114943,24.5513769 C16.027919,23.4474026 12.5304968,19.2462231 12.5304968,14.2509923 L12.5304968,10.5845821 C12.5304968,8.0343 -1.04007111,6.09778718 0.479751111,4.26458205 C0.479751111,4.26458205 19.8651141,-0.00141794872 23.1651832,-0.00141794872 L91.8745758,-0.00141794872 C97.7382005,-0.00141794872 102.507228,4.74668462 102.507228,10.5845821 L102.507228,14.2509923 C102.507228,19.2462231 99.01184,23.4474026 94.3282647,24.5513769 L94.3282647,64.5537359 C94.3282647,70.3916333 89.557203,75.1397359 83.6935783,75.1397359" id="Fill-1" fill="#E0911F" mask="url(#mask-2)"></path>
                        </g>
                        <path d="M153.230434,8 L84.5790898,8 C80.0660314,8 76.4047619,11.6308854 76.4047619,16.113485 L76.4047619,19.7665715 C76.4047619,24.2471528 80.0660314,27.8800565 84.5790898,27.8800565 L84.5790898,69.886515 C84.5790898,74.3670963 88.2383264,78 92.7513849,78 L145.058139,78 C149.57323,78 153.230434,74.3670963 153.230434,69.886515 L153.230434,27.8800565 C157.745525,27.8800565 161.404762,24.2471528 161.404762,19.7665715 L161.404762,16.113485 C161.404762,11.6308854 157.745525,8 153.230434,8" id="Fill-4" fill="#F3AA43"></path>
                        <g id="Group-8" transform="translate(73.404762, 4.000000)">
                            <mask id="mask-4" fill="white">
                                <use xlink:href="#path-3"></use>
                            </mask>
                            <g id="Clip-7"></g>
                            <path d="M10.6996371,5.181148 C7.56018239,5.181148 5.00532977,7.728368 5.00532977,10.865428 L5.00532977,14.521628 C5.00532977,17.652628 7.56018239,20.205908 10.6996371,20.205908 C12.0468515,20.205908 13.1391875,21.294688 13.1391875,22.642028 L13.1391875,64.680248 C13.1391875,67.815288 15.6920173,70.368568 18.831472,70.368568 L70.8792612,70.368568 C74.0166931,70.368568 76.5715457,67.815288 76.5715457,64.680248 L76.5715457,22.642028 C76.5715457,21.294688 77.6638817,20.205908 79.0110962,20.205908 C82.148528,20.205908 84.7013578,17.652628 84.7013578,14.521628 L84.7013578,10.865428 C84.7013578,7.728368 82.148528,5.181148 79.0110962,5.181148 L10.6996371,5.181148 Z M70.8792612,75.240808 L18.831472,75.240808 C13.0016341,75.240808 8.25806374,70.499868 8.25806374,64.680248 L8.25806374,24.793328 C3.60349853,23.692428 0.126228814,19.500928 0.126228814,14.521628 L0.126228814,10.865428 C0.126228814,5.043788 4.86979919,0.308908 10.6996371,0.308908 L79.0110962,0.308908 C84.8389112,0.308908 89.5845044,5.043788 89.5845044,10.865428 L89.5845044,14.521628 C89.5845044,19.500928 86.1072347,23.692428 81.4506466,24.793328 L81.4506466,64.680248 C81.4506466,70.499868 76.7090991,75.240808 70.8792612,75.240808 L70.8792612,75.240808 Z" id="Fill-6" fill="#E0911F" mask="url(#mask-4)"></path>
                        </g>
                        <path d="M104.150877,33.605047 C106.139145,35.6757183 106.966232,37.978736 106.002655,38.7482673 C105.037041,39.5177986 102.645416,38.4638753 100.659185,36.393204 C98.6729541,34.3262503 97.8417929,32.0232326 98.8074066,31.2537013 C99.7730204,30.4804524 102.164646,31.5343757 104.150877,33.605047" id="Fill-9" fill="#FFC562"></path>
                        <path d="M127.541739,40.4801848 C125.673445,43.1160647 123.202872,44.595075 122.022897,43.7725021 C120.84497,42.9580335 121.400132,40.1580442 123.266377,37.5221643 C125.134671,34.8842584 127.605244,33.4072742 128.78522,34.2257949 C129.965195,35.0422896 129.410033,37.8422789 127.541739,40.4801848" id="Fill-11" fill="#E0911F"></path>
                        <path d="M98.090381,19.8206394 C95.1267318,21.2677296 92.1922812,21.4022479 91.5353146,20.1182101 C90.8804337,18.8382486 92.7533098,16.6248121 95.7190445,15.1777219 C98.6847793,13.7306317 101.61923,13.6001898 102.274111,14.8801512 C102.928992,16.164189 101.058201,18.3776256 98.090381,19.8206394" id="Fill-13" fill="#E0911F"></path>
                        <path d="M144.174756,17.2662215 C145.644795,20.2258163 145.82353,23.177015 144.568373,23.8591911 C143.319242,24.5392682 141.110167,22.6900462 139.636111,19.7325505 C138.164064,16.7729557 137.987338,13.821757 139.238478,13.1416799 C140.493634,12.4595038 142.700701,14.3066268 144.174756,17.2662215" id="Fill-15" fill="#E0911F"></path>
                        <path d="M114.176161,24.2658578 C115.644293,27.2261991 115.82304,30.1781423 114.569805,30.858391 C113.318578,31.5407391 111.10935,29.6910507 109.635192,26.7328089 C108.16505,23.7724675 107.986304,20.8205243 109.239539,20.1423752 C110.492774,19.4579275 112.702003,21.3076159 114.176161,24.2658578" id="Fill-17" fill="#E0911F"></path>
                        <path d="M114.279477,47.3588889 C115.700403,50.3312627 115.787272,53.2497442 114.473898,53.8798709 C113.160524,54.5079248 110.949506,52.6113264 109.530648,49.6389525 C108.109722,46.6686514 108.022853,43.7522428 109.332091,43.1200433 C110.645465,42.4919894 112.858552,44.3906606 114.279477,47.3588889" id="Fill-19" fill="#E0911F"></path>
                        <path d="M140.395181,48.7718493 C137.370257,49.3469983 134.69892,48.7973306 134.426929,47.5432873 C134.156882,46.287424 136.385262,44.8058693 139.412129,44.2289003 C142.437054,43.6519312 145.112276,44.203419 145.382324,45.4592823 C145.654315,46.7169657 143.422049,48.1985204 140.395181,48.7718493" id="Fill-21" fill="#E0911F"></path>
                        <path d="M98.3962313,69.7710863 C95.3698148,70.3481789 92.6988759,69.796573 92.4269258,68.5386203 C92.1569182,67.2879494 94.3849668,65.8024365 97.4133258,65.2289848 C100.435857,64.6518922 103.110681,65.2034981 103.382631,66.4578099 C103.652639,67.7121216 101.420705,69.1958141 98.3962313,69.7710863" id="Fill-23" fill="#E0911F"></path>
                        <path d="M138.188417,69.4909778 C135.177854,68.5700795 133.05682,66.7099057 133.452167,65.3295791 C133.845536,63.9553783 136.605054,63.5857938 139.617594,64.5066922 C142.630134,65.4255486 144.751168,67.2918481 144.357798,68.6680908 C143.962452,70.0443336 141.200957,70.41596 138.188417,69.4909778" id="Fill-25" fill="#E0911F"></path>
                        <path d="M127.419756,26.4309445 C126.192907,29.4222507 124.296692,31.4335052 123.181725,30.9199499 C122.068688,30.4084406 122.163209,27.5664951 123.390058,24.5731428 C124.616907,21.5777445 126.511193,19.5664901 127.62616,20.0800454 C128.741127,20.5956467 128.646606,23.4375922 127.419756,26.4309445" id="Fill-27" fill="#FFC562"></path>
                        <g id="Group-31" transform="translate(0.404762, 52.000000)">
                            <mask id="mask-6" fill="white">
                                <use xlink:href="#path-5"></use>
                            </mask>
                            <g id="Clip-30"></g>
                            <path d="M129.579531,18.1800589 C129.547031,18.3604339 129.498281,18.5507196 129.453594,18.7271304 C128.340469,23.4961661 124.968594,27.0005946 120.944688,27.0005946 L8.5109375,27.0005946 C4.541875,27.0005946 1.1821875,23.5635589 0,18.8619161 C0.01015625,18.8183089 0.02234375,18.7727196 0.03453125,18.7271304 C1.1821875,13.3892196 9.3478125,8.66577321 21.75875,5.3397375 C23.6742188,4.81645179 25.6810938,4.35659464 27.7915625,3.90863036 C30.4646875,3.35957679 33.2982812,2.83430893 36.2334375,2.42004107 C38.195625,2.11677321 40.1923437,1.86107679 42.2560937,1.63709464 C44.9860938,1.32391607 47.7973437,1.07614821 50.7101562,0.897755357 C52.6825,0.753058929 54.689375,0.630166071 56.7429687,0.560791071 C59.4059375,0.471594643 62.1115625,0.418076786 64.8639062,0.418076786 L65.186875,0.418076786 C67.2140625,0.418076786 69.2351562,0.451773214 71.2196875,0.505291071 C74.0878125,0.596469643 76.919375,0.731255357 79.649375,0.931451786 C81.7029687,1.0662375 83.7342187,1.2466125 85.6964063,1.43491607 C88.6071875,1.72629107 91.4184375,2.09695179 94.13625,2.5092375 C96.2020313,2.82241607 98.2210937,3.17127321 100.158906,3.56175536 C116.400781,6.72921964 127.67625,12.0255054 129.579531,18.1800589" id="Fill-29" fill="#FFC562" mask="url(#mask-6)"></path>
                        </g>
                        <path d="M28.4047619,56 L28.4047619,65.1182935 C28.4047619,66.7104072 27.0622316,68 25.4027431,68 C23.7412357,68 22.4047619,66.7104072 22.4047619,65.1182935 L22.4047619,57.39819 C24.3105493,56.8881707 26.3071845,56.4363284 28.4047619,56" id="Fill-32" fill="#F3AA43"></path>
                        <path d="M42.4047619,53 L42.4047619,64.9615594 C42.4047619,66.6402672 41.0622037,68 39.4138743,68 C37.7493451,68 36.4047619,66.6402672 36.4047619,64.9615594 L36.4047619,53.8035714 C38.3548125,53.4968648 40.3392877,53.2269629 42.4047619,53" id="Fill-34" fill="#F3AA43"></path>
                        <path d="M57.4047619,52 L57.4047619,64.9840061 C57.4047619,66.6514344 56.0637993,68 54.4037521,68 C52.7416855,68 51.4047619,66.6514344 51.4047619,64.9840061 L51.4047619,52.3412034 C53.3657178,52.1909114 55.3670642,52.075146 57.4047619,52" id="Fill-36" fill="#F3AA43"></path>
                        <path d="M71.4047619,52.0925437 L71.4047619,65.0104363 C71.4047619,66.6641519 70.0501186,68 68.4067807,68 C66.7472922,68 65.4047619,66.6641519 65.4047619,65.0104363 L65.4047619,52 C67.4236044,52 69.4262962,52.0382246 71.4047619,52.0925437" id="Fill-38" fill="#F3AA43"></path>
                        <path d="M86.4047619,53.4895332 L86.4047619,65.1018073 C86.4047619,66.7030295 85.0637993,68 83.4057717,68 C81.743705,68 80.4047619,66.7030295 80.4047619,65.1018073 L80.4047619,53 C82.4424596,53.1267716 84.4619817,53.3081524 86.4047619,53.4895332" id="Fill-40" fill="#F3AA43"></path>
                        <path d="M100.404762,55.0817628 L100.404762,64.9840533 C100.404762,66.6503334 99.0637761,68 97.4148902,68 C95.749799,68 94.4047619,66.6503334 94.4047619,64.9840533 L94.4047619,54 C96.4668821,54.3206727 98.4763352,54.6859959 100.404762,55.0817628" id="Fill-42" fill="#F3AA43"></path>
                        <path d="M130.404762,71 C129.286939,75.612509 125.900831,79 121.859941,79 L8.94958311,79 C4.96376773,79 1.58989944,75.6776899 0.404761905,71.1303618 C0.412921199,71.0862689 0.427199965,71.0421759 0.437399083,71 L130.404762,71 Z" id="Fill-44" fill="#F3AA43"></path>
                        <g id="Group-48" transform="translate(154.404762, 43.000000)">
                            <mask id="mask-8" fill="white">
                                <use xlink:href="#path-7"></use>
                            </mask>
                            <g id="Clip-47"></g>
                            <path d="M41.7395491,18.3724076 C41.7395491,28.3789801 33.5900218,36.4843647 23.56704,36.4843647 L18.7184582,36.4843647 C8.67104,36.4843647 0.545949091,28.3789801 0.545949091,18.3724076 C0.545949091,16.797543 0.753658182,15.2672691 1.14260364,13.8059082 C1.97140364,10.6521251 3.62085818,7.84493394 5.87104,5.58296617 C7.73024,3.73244952 10.0048582,2.26906176 12.5258764,1.35900483 C14.27104,0.738787863 16.1282036,0.349632116 18.07904,0.307068206 C18.2826764,0.282745972 18.5127855,0.282745972 18.7184582,0.282745972 L23.56704,0.282745972 C25.4221673,0.282745972 27.2121309,0.554344253 28.8880582,1.08132599 C34.8770036,2.91157411 39.5769309,7.75169871 41.1408582,13.8261767 C41.5298036,15.2895644 41.7395491,16.797543 41.7395491,18.3724076" id="Fill-46" fill="#F3AA43" mask="url(#mask-8)"></path>
                        </g>
                        <path d="M196.404762,55.5111211 C194.3622,63.2817344 187.271272,69 178.830177,69 L173.981383,69 C165.51585,69 158.426959,63.2615143 156.404762,55.4909009 C157.233598,52.3446417 158.883125,49.5441474 161.133405,47.2875758 C162.992686,45.4414738 165.265367,43.9815772 167.788531,43.0736913 C169.533771,42.4549539 171.391016,42.0687486 173.341937,42.0242642 C173.545583,42 173.775702,42 173.981383,42 L178.830177,42 C180.685385,42 182.475427,42.2729724 184.151427,42.7966749 C190.140634,44.6225567 194.840766,49.4511346 196.404762,55.5111211" id="Fill-49" fill="#FFC562"></path>
                        <path d="M173.404762,44.5141956 L173.404762,59.9939961 C173.404762,61.6465859 172.057699,63 170.390582,63 C168.751825,63 167.404762,61.6465859 167.404762,59.9939961 L167.404762,44.5141956 C167.404762,44.3534141 167.427044,44.2129846 167.449326,44.0562735 C169.185316,43.4334995 171.034742,43.0447746 172.973297,43 C173.271068,43.4334995 173.404762,43.9626539 173.404762,44.5141956" id="Fill-51" fill="#F3AA43"></path>
                        <path d="M183.404762,44.6619548 L183.404762,60.0214055 C183.404762,61.6591276 182.075494,63 180.406794,63 C178.756388,63 177.404762,61.6591276 177.404762,60.0214055 L177.404762,44.6619548 C177.404762,44.0480614 177.589721,43.4806139 177.884437,43 L177.957607,43 C179.809233,43 181.595819,43.2705977 183.270616,43.7956381 C183.360046,44.072294 183.404762,44.365105 183.404762,44.6619548" id="Fill-53" fill="#F3AA43"></path>
                    </g>
                </g>
            </g>
        </g>
    </g>
</svg>