<?xml version="1.0" encoding="UTF-8"?>
<svg width="153px" height="82px" viewBox="0 0 153 82" version="1.1" xmlns="http://www.w3.org/2000/svg" xmlns:xlink="http://www.w3.org/1999/xlink">
    <!-- Generator: Sketch 55.1 (78136) - https://sketchapp.com -->
    <title>Group 41</title>
    <desc>Created with Sketch.</desc>
    <defs>
        <polygon id="path-1" points="0.428355875 0.863778015 48.99488 0.863778015 48.99488 27.9999111 0.428355875 27.9999111"></polygon>
        <polygon id="path-3" points="0 0.776562406 51.257232 0.776562406 51.257232 24.8955505 0 24.8955505"></polygon>
    </defs>
    <g id="Page-1" stroke="none" stroke-width="1" fill="none" fill-rule="evenodd">
        <g id="Homepage-Copy" transform="translate(-533.000000, -1179.000000)">
            <g id="Group-16" transform="translate(100.000000, 763.000000)">
                <g id="Group-12-Copy" transform="translate(320.000000, 295.000000)">
                    <g id="Group-41" transform="translate(113.000000, 121.000000)">
                        <path d="M83.775,23.0010301 C83.775,35.7026918 73.3746,46 60.5436944,46 L30.0042247,46 C17.1754,46 6.775,35.7026918 6.775,23.0010301 C6.775,10.2993685 17.1754,0 30.0042247,0 L60.5436944,0 C73.3746,0 83.775,10.2993685 83.775,23.0010301" id="Fill-1" fill="#FA6A39"></path>
                        <path d="M42.775,23.0010406 C42.775,35.7023933 53.0705255,46 65.7739594,46 C78.4753122,46 88.775,35.7023933 88.775,23.0010406 C88.775,10.2996878 78.4753122,0 65.7739594,0 C53.0705255,0 42.775,10.2996878 42.775,23.0010406" id="Fill-3" fill="#F9B39A"></path>
                        <path d="M76.775,17.0021008 C76.775,20.3130252 74.0868656,23 70.7771001,23 C67.4610343,23 64.775,20.3130252 64.775,17.0021008 C64.775,13.6869748 67.4610343,11 70.7771001,11 C74.0868656,11 76.775,13.6869748 76.775,17.0021008" id="Fill-5" fill="#F5815A"></path>
                        <path d="M64.775,33 C64.775,34.1063029 63.8813029,35 62.7768815,35 C61.6705786,35 60.775,34.1063029 60.775,33 C60.775,31.8955786 61.6705786,31 62.7768815,31 C63.8813029,31 64.775,31.8955786 64.775,33" id="Fill-7" fill="#F5815A"></path>
                        <path d="M58.775,21.4968047 C58.775,23.9848521 56.7629347,26 54.2739354,26 C51.7913236,26 49.775,23.9848521 49.775,21.4968047 C49.775,19.0108876 51.7913236,17 54.2739354,17 C56.7629347,17 58.775,19.0108876 58.775,21.4968047" id="Fill-9" fill="#F5815A"></path>
                        <path d="M77.775,33.996993 C77.775,35.6548613 76.4345318,37 74.775,37 C73.1174749,37 71.775,35.6548613 71.775,33.996993 C71.775,32.343134 73.1174749,31 74.775,31 C76.4345318,31 77.775,32.343134 77.775,33.996993" id="Fill-11" fill="#F5815A"></path>
                        <path d="M41.775,43.997944 C41.775,52.8326908 49.0119486,60 57.9397343,60 L123.610266,60 C132.533897,60 139.775,52.8326908 139.775,43.997944 C139.775,35.1631971 132.533897,28 123.610266,28 L57.9397343,28 C49.0119486,28 41.775,35.1631971 41.775,43.997944" id="Fill-13" fill="#CC491D"></path>
                        <path d="M70.775,44 C70.775,52.834891 63.6115029,60 54.7718845,60 C45.9384971,60 38.775,52.834891 38.775,44 C38.775,35.165109 45.9384971,28 54.7718845,28 C63.6115029,28 70.775,35.165109 70.775,44" id="Fill-15" fill="#F15723"></path>
                        <path d="M54.775,51.5020243 C54.775,52.3259109 55.4481806,53 56.275,53 C57.1018194,53 57.775,52.3259109 57.775,51.5020243 C57.775,50.6720648 57.1018194,50 56.275,50 C55.4481806,50 54.775,50.6720648 54.775,51.5020243" id="Fill-17" fill="#FFFFFF"></path>
                        <path d="M62.775,45.5 C62.775,46.3259109 63.4486345,47 64.2760115,47 C65.1033884,47 65.775,46.3259109 65.775,45.5 C65.775,44.6700405 65.1033884,44 64.2760115,44 C63.4486345,44 62.775,44.6700405 62.775,45.5" id="Fill-19" fill="#FFFFFF"></path>
                        <path d="M54.775,40.5 C54.775,41.3259109 55.4481806,42 56.275,42 C57.1018194,42 57.775,41.3259109 57.775,40.5 C57.775,39.6680162 57.1018194,39 56.275,39 C55.4481806,39 54.775,39.6680162 54.775,40.5" id="Fill-21" fill="#FFFFFF"></path>
                        <path d="M44.775,50.5 C44.775,51.3238866 45.4486345,52 46.2739885,52 C47.1033884,52 47.775,51.3238866 47.775,50.5 C47.775,49.6680162 47.1033884,49 46.2739885,49 C45.4486345,49 44.775,49.6680162 44.775,50.5" id="Fill-23" fill="#FFFFFF"></path>
                        <path d="M45.775,44.5 C45.775,45.3259109 46.4502022,46 47.275,46 C48.103841,46 48.775,45.3259109 48.775,44.5 C48.775,43.6700405 48.103841,43 47.275,43 C46.4502022,43 45.775,43.6700405 45.775,44.5" id="Fill-25" fill="#FFFFFF"></path>
                        <path d="M47.775,35.5020243 C47.775,36.3259109 48.4486345,37 49.2760115,37 C50.1013655,37 50.775,36.3259109 50.775,35.5020243 C50.775,34.6700405 50.1013655,34 49.2760115,34 C48.4486345,34 47.775,34.6700405 47.775,35.5020243" id="Fill-27" fill="#FFFFFF"></path>
                        <path d="M58.775,35.5020243 C58.775,36.3259109 59.4502022,37 60.275,37 C61.103841,37 61.775,36.3259109 61.775,35.5020243 C61.775,34.6700405 61.103841,34 60.275,34 C59.4502022,34 58.775,34.6700405 58.775,35.5020243" id="Fill-29" fill="#FFFFFF"></path>
                        <path d="M41.775,40.5020243 C41.775,41.3259109 42.4450405,42 43.2729757,42 C44.1009109,42 44.775,41.3259109 44.775,40.5020243 C44.775,39.6700405 44.1009109,39 43.2729757,39 C42.4450405,39 41.775,39.6700405 41.775,40.5020243" id="Fill-31" fill="#FFFFFF"></path>
                        <g id="Group-35" transform="translate(103.775000, 54.000000)">
                            <mask id="mask-2" fill="white">
                                <use xlink:href="#path-1"></use>
                            </mask>
                            <g id="Clip-34"></g>
                            <path d="M45.063056,15.9538143 C48.468016,17.5508857 49.930256,21.4265286 48.372336,24.5398857 C46.816496,27.6470286 42.943536,28.8712429 39.686256,27.3446 C28.364816,22.0438143 16.735536,17.3271714 4.912816,13.1346 C1.512016,11.9186714 -0.368304,8.31852857 0.752816,5.02702857 C1.859376,1.73967143 5.636656,0.0245285714 9.158096,1.27152857 C21.342736,5.59667143 33.331856,10.4624571 45.063056,15.9538143" id="Fill-33" fill="#F5815A" mask="url(#mask-2)"></path>
                        </g>
                        <path d="M58.0396464,63.0026827 C54.1224547,62.6371783 51.3324086,59.3063388 51.8331332,55.7483496 C52.3256155,52.1903604 55.6287499,49.6937794 59.2492159,50.0303739 C71.8703625,51.199162 84.7284775,51.184707 97.5474411,50.4681532 C101.237967,50.2492635 104.46692,52.9193042 104.755404,56.5 C105.041826,60.0869075 102.154932,63.2484173 98.2933767,63.473502 C84.9530823,64.2272257 71.5159401,64.2561357 58.0396464,63.0026827" id="Fill-36" fill="#F5815A"></path>
                        <g id="Group-40" transform="translate(0.775000, 39.000000)">
                            <mask id="mask-4" fill="white">
                                <use xlink:href="#path-3"></use>
                            </mask>
                            <g id="Clip-39"></g>
                            <path d="M2.541552,11.8287385 C0.744432,10.1277385 -0.158288,7.77043077 0.022672,5.80150769 C0.184912,3.82012308 1.330992,2.31850769 2.970032,1.55004615 C6.335472,0.237430769 9.740432,0.661123077 11.583312,2.32473846 C15.015312,5.5772 20.533552,7.85558462 26.309712,9.30527692 C32.137872,10.7445846 38.371632,11.4922769 44.663632,11.7955077 C48.278672,11.9845077 51.246832,14.9005077 51.257232,18.5247385 C51.257232,22.1427385 48.029072,25.0815846 44.010512,24.8863538 C37.109072,24.5478154 30.124432,23.7378154 23.114832,22.0181231 C16.169712,20.1883538 8.864752,17.6378923 2.541552,11.8287385" id="Fill-38" fill="#F5815A" mask="url(#mask-4)"></path>
                        </g>
                    </g>
                </g>
            </g>
        </g>
    </g>
</svg>