<?xml version="1.0" encoding="UTF-8"?>
<svg width="188px" height="115px" viewBox="0 0 188 115" version="1.1" xmlns="http://www.w3.org/2000/svg" xmlns:xlink="http://www.w3.org/1999/xlink">
    <!-- Generator: Sketch 55.1 (78136) - https://sketchapp.com -->
    <title>Group 35</title>
    <desc>Created with Sketch.</desc>
    <defs>
        <polygon id="path-1" points="0.805056738 0.557625 39.9995173 0.557625 39.9995173 32.2482041 0.805056738 32.2482041"></polygon>
        <polygon id="path-3" points="0.0638534884 0.130349768 89.7227674 0.130349768 89.7227674 39 0.0638534884 39"></polygon>
    </defs>
    <g id="Page-1" stroke="none" stroke-width="1" fill="none" fill-rule="evenodd">
        <g id="Homepage-Copy" transform="translate(-183.000000, -1143.000000)">
            <g id="Group-16" transform="translate(100.000000, 763.000000)">
                <g id="Group-11-Copy" transform="translate(0.000000, 295.000000)">
                    <g id="Group-35" transform="translate(83.000000, 85.000000)">
                        <path d="M148.067633,31.7089132 C149.495567,40.6916931 143.133257,49.2177935 133.852723,50.7598834 C124.576346,52.2998492 115.894422,46.2716796 114.468567,37.2910238 C113.038554,28.310368 119.402942,19.7821435 128.681398,18.2400536 C137.959853,16.7000878 146.639698,22.7303815 148.067633,31.7089132" id="Fill-1" fill="#E49306"></path>
                        <g id="Group-5" transform="translate(137.267857, 0.000000)">
                            <mask id="mask-2" fill="white">
                                <use xlink:href="#path-1"></use>
                            </mask>
                            <g id="Clip-4"></g>
                            <path d="M32.8435789,9.735075 L33.6014737,6.1842 C34.1341053,3.674575 32.5530526,1.19895 30.0667368,0.661325 C27.5783158,0.121575 25.1277895,1.7217 24.5930526,4.227075 L23.2498947,10.52345 L2.88568421,23.8047 C0.778315789,25.179575 0.169894737,28.0207 1.532,30.14995 C2.89410526,32.277075 5.70884211,32.88695 7.82042105,31.516325 L28.1825263,18.235075 L34.4225263,19.590825 C36.9109474,20.126325 39.3614737,18.532575 39.8962105,16.0187 C40.4288421,13.5112 38.8498947,11.03345 36.3572632,10.495825 L32.8435789,9.735075 Z" id="Fill-3" fill="#FBCB43" mask="url(#mask-2)"></path>
                        </g>
                        <path d="M159.999143,50.717058 C162.879444,68.3518269 142.276005,86.3605966 113.984022,90.9347527 C85.6899285,95.5110099 60.4176158,84.9192227 57.5373155,67.2865549 C54.6527919,49.6496849 75.2562306,31.6409152 103.552436,27.064658 C131.844419,22.4905019 157.120955,33.0780869 159.999143,50.717058" id="Fill-6" fill="#ECA402"></path>
                        <path d="M151.067611,58.7069447 C152.495677,67.6876183 146.132779,76.2179838 136.855544,77.7600767 C127.57831,79.3000456 118.899741,73.2654917 117.467517,64.2869423 C116.041529,55.3041446 122.406506,46.7801514 131.683741,45.2401826 C140.960975,43.7002137 149.639544,49.7262712 151.067611,58.7069447" id="Fill-8" fill="#E49306"></path>
                        <path d="M172.151936,37.9769298 L172.901869,34.505863 C173.433944,32.0470175 171.856571,29.6318202 169.38682,29.101807 C166.910784,28.5759508 164.470359,30.1389701 163.938284,32.5957371 L162.599716,38.752204 L142.341051,51.7406447 C140.242077,53.0854233 139.634589,55.8622767 140.99201,57.9428383 C142.345241,60.0317138 145.145968,60.6261599 147.242848,59.2793029 L167.509892,46.2950191 L173.71674,47.6169343 C176.192776,48.144869 178.631106,46.5818497 179.163181,44.1250827 C179.699446,41.6703942 178.122073,39.2531184 175.648132,38.7210267 L172.151936,37.9769298 Z" id="Fill-10" fill="#FBCB43"></path>
                        <path d="M41.26406,84.1505602 C41.1826091,86.5462196 39.1066554,88.4329773 36.6171817,88.3525186 L12.5703696,87.6344242 L7.95690705,91.8062106 C6.13157147,93.4696953 3.22440086,93.3892366 1.49931255,91.5990293 C0.404946597,90.4947329 0.0394617857,88.9921657 0.404946597,87.6042522 C0.584556276,88.3042433 0.950041088,88.9619936 1.49931255,89.5231934 C3.22440086,91.3113892 6.13157147,91.391848 7.95690705,89.7283633 L12.5703696,85.5545654 L36.6171817,86.2766827 C38.7766748,86.3410497 40.6333377,84.935033 41.134574,83 C41.2306443,83.3640759 41.2828564,83.7502779 41.26406,84.1505602" id="Fill-12" fill="#CCCCCC"></path>
                        <path d="M41.2678571,82.5452261 C40.7653959,84.6102233 38.8943057,86.1106734 36.7225797,86.0419833 L12.514037,85.2735124 L7.86994924,89.7276383 C6.03249667,91.5007024 3.10812994,91.4148397 1.36948774,89.5065419 C0.818672444,88.9076498 0.45076146,88.2078691 0.267857143,87.4587173 C0.29939237,87.2526469 0.366667521,87.0465765 0.45076146,86.8426526 C0.667303354,86.1943895 1.05203312,85.5997905 1.56921085,85.1039336 L4.19294175,82.5774246 L3.10812994,81.4032526 L2.52367706,80.7700154 L1.73739873,79.9178285 C0.633665778,78.7221908 0.267857143,77.086507 0.618949339,75.5839103 C0.667303354,75.3799865 0.736680853,75.188942 0.801853656,74.9893113 C1.03521434,74.3582207 1.42204646,73.7786477 1.93712183,73.2827908 C3.79349554,71.4904076 6.69894113,71.5934428 8.43968567,73.4845681 L12.8167752,78.2263339 L37.0063968,78.9969513 C38.8606681,79.0656415 40.4332248,80.2591326 41.0849528,81.9119889 C41.1669444,82.1180593 41.2174008,82.3241297 41.2678571,82.5452261" id="Fill-14" fill="#E6E6E6"></path>
                        <path d="M84.7395489,104.065568 C83.7316039,104.332314 82.7278763,104.582257 81.6714319,104.783891 C77.8357584,105.584129 73.7133057,106 69.4221592,106 C48.3586396,106 31.2678571,95.7019314 31.2678571,83.0010502 C31.2678571,82.1462034 31.352204,81.3123602 31.5019197,80.4953198 C33.5599831,68.9811424 49.7672322,60 69.4221592,60 C72.3384519,60 75.1725063,60.1995343 77.8842579,60.564997 L77.9032359,60.564997 C78.8753335,60.7015205 79.8305617,60.8506461 80.7689205,61.0354778 C80.7836812,61.0165746 80.8005506,61.0354778 80.8195286,61.0522807 C85.6757991,63.1064335 89.9353155,71.3335464 91.02339,81.5307977 C91.1098455,82.2659239 91.1583449,83.0010502 91.1920837,83.7172732 C91.7593163,93.4482444 89.0960642,101.658554 84.7395489,104.065568" id="Fill-16" fill="#CC491D"></path>
                        <path d="M92.2678571,83.7320861 C91.831216,91.179754 89.3872976,97.0765249 85.781829,99.0624295 C84.7707716,99.3314198 83.7597143,99.5793952 82.6977861,99.7832394 C78.8422027,100.581804 74.6983514,101 70.3870503,101 C50.6279801,101 34.3577996,92.030856 32.2678571,80.5084059 C34.338723,68.9859559 50.6279801,60 70.3870503,60 C73.3184807,60 76.1651264,60.2017427 78.8909539,60.5674013 L78.9100305,60.5674013 C79.8871739,60.7018965 80.8473604,60.851102 81.7927097,61.0360328 C81.8054274,61.0171194 81.8223843,61.0360328 81.8414608,61.0528447 C86.7250585,63.1101999 91.0045654,71.3417222 92.1004074,81.5444387 C92.1851921,82.279959 92.2339433,83.0133778 92.2678571,83.7320861" id="Fill-18" fill="#DE5020"></path>
                        <path d="M84.7511474,104.274531 C84.0658719,104.656683 83.3490654,104.888481 82.5986257,104.969923 C82.2980294,105.005424 81.9953311,105.005424 81.6926327,104.990806 C76.0653862,104.623271 70.7366339,95.6291091 69.5195343,84.1290279 C68.2330663,72.0129081 72.0062854,61.6739028 77.9194137,61.0286286 L77.9362302,61.0286286 C78.9052854,60.9283918 79.859626,61.0933648 80.792946,61.4922237 C80.8118646,61.4755175 80.824477,61.4922237 80.8454977,61.5089298 C85.6886714,63.5491657 89.9306525,71.7309922 91.0174237,81.869524 C92.135726,92.4779156 89.4135428,101.701787 84.7511474,104.274531" id="Fill-20" fill="#F15723"></path>
                        <path d="M83.4924783,88.8027803 C83.3050693,88.9083076 83.1072486,88.9703826 82.9052634,88.9931434 C82.8219705,89.0014201 82.7407599,89.0014201 82.6595493,88.9972817 C81.1227953,88.8979618 79.6693342,86.4418636 79.3361626,83.3091485 C78.9863324,80.0026237 80.0149997,77.1844216 81.6267173,77.0085427 L81.630882,77.0085427 C81.8932546,76.9795743 82.1577096,77.025096 82.4096706,77.1326925 C82.4159176,77.126485 82.4221645,77.1326925 82.4263292,77.1389 C83.7444393,77.6934361 84.904293,79.9260646 85.1999827,82.6925375 C85.5040018,85.5810911 84.7606127,88.1013335 83.4924783,88.8027803" id="Fill-22" fill="#F2F2F2"></path>
                        <g id="Group-26" transform="translate(97.267857, 76.000000)">
                            <mask id="mask-4" fill="white">
                                <use xlink:href="#path-3"></use>
                            </mask>
                            <g id="Clip-25"></g>
                            <path d="M89.6015047,12.8465263 C89.6015047,12.2212632 89.8745047,2.84442105 89.6015047,2.24442105 C87.4302023,-2.56189474 76.5673419,2.26757895 64.0199233,2.716 C37.4204116,3.65915789 42.7576674,16.3538947 31.4990628,14.0296842 C20.9938535,11.8570526 4.66041163,8.83810526 0.0638534884,16.3812632 L0.0638534884,26.9833684 C0.0638534884,33.6212632 18.1982488,39.0002105 40.5673186,39.0002105 C90.7252488,39.0002105 89.6015047,16.596 89.6015047,12.8465263" id="Fill-24" fill="#E3483F" mask="url(#mask-4)"></path>
                        </g>
                        <path d="M187.265803,79.0763737 C187.265803,73.5318937 175.873123,68.532054 161.838419,69.0349594 C135.399241,69.9698209 140.704326,82.5508032 129.513585,80.2470373 C117.035487,77.6761682 98.2678571,81.8559173 98.2678571,93.0888627 C98.2678571,99.6683679 116.292944,105 138.52718,105 C188.382773,105 187.265803,82.797039 187.265803,79.0763737" id="Fill-27" fill="#DB4840"></path>
                        <path d="M185.265857,80.5438454 C185.265857,75.7397078 175.61345,69.5899865 162.05166,70.0215086 C136.500676,70.829284 140.275325,83.5559971 129.460839,81.5599417 C117.402172,79.3321823 99.2678571,82.9544171 99.2678571,92.6838585 C99.2678571,98.3829262 116.684294,103 138.17011,103 C186.347937,103 185.265857,83.7664439 185.265857,80.5438454" id="Fill-29" fill="#F15723"></path>
                        <path d="M172.267857,81.9978343 C172.267857,84.2089875 167.789924,86 162.265704,86 C156.743638,86 152.267857,84.2089875 152.267857,81.9978343 C152.267857,79.7888468 156.743638,78 162.265704,78 C167.789924,78 172.267857,79.7888468 172.267857,81.9978343" id="Fill-31" fill="#BF3F38"></path>
                        <path d="M170.267857,81.5 C170.267857,82.8816964 166.90766,84 162.766833,84 C158.621907,84 155.267857,82.8816964 155.267857,81.5 C155.267857,80.1160714 158.621907,79 162.766833,79 C166.90766,79 170.267857,80.1160714 170.267857,81.5" id="Fill-33" fill="#FECCBD"></path>
                    </g>
                </g>
            </g>
        </g>
    </g>
</svg>