<?xml version="1.0" encoding="UTF-8"?>
<svg width="138px" height="132px" viewBox="0 0 138 132" version="1.1" xmlns="http://www.w3.org/2000/svg" xmlns:xlink="http://www.w3.org/1999/xlink">
    <!-- Generator: Sketch 55.1 (78136) - https://sketchapp.com -->
    <title>Group 42</title>
    <desc>Created with Sketch.</desc>
    <defs>
        <polygon id="path-1" points="0.424714132 0.0106042634 30.0907832 0.0106042634 30.0907832 9.87557379 0.424714132 9.87557379"></polygon>
        <polygon id="path-3" points="0.0598443099 0.481610297 59.7946796 0.481610297 59.7946796 26.5106586 0.0598443099 26.5106586"></polygon>
        <polygon id="path-5" points="0.060021866 0.909315589 59.7946796 0.909315589 59.7946796 17.7312121 0.060021866 17.7312121"></polygon>
        <polygon id="path-7" points="0 0.730103537 50.8730116 0.730103537 50.8730116 24.6338807 0 24.6338807"></polygon>
    </defs>
    <g id="Page-1" stroke="none" stroke-width="1" fill="none" fill-rule="evenodd">
        <g id="Homepage-Copy" transform="translate(-532.000000, -893.000000)">
            <g id="Group-16" transform="translate(100.000000, 763.000000)">
                <g id="Group-12" transform="translate(320.000000, 55.000000)">
                    <g id="Group-42" transform="translate(112.000000, 75.000000)">
                        <g id="Group-41">
                            <path d="M67.5492558,43.1745458 C67.5172957,37.0629554 63.0073714,30.6933278 58.4690381,24.3890932 C55.0670637,19.6896371 54.5432732,12.6819864 54.5130887,9.42294274 L54.9250188,9.42294274 C56.8870134,9.42294274 58.4690381,8.06382965 58.4690381,6.39189078 L58.4690381,3.7425923 C58.4690381,2.05828179 56.8870134,0.702703453 54.9250188,0.702703453 L43.8188863,0.702703453 L43.723006,0.702703453 L32.6186491,0.702703453 C30.6566544,0.702703453 29.0746298,2.05828179 29.0746298,3.7425923 L29.0746298,6.39189078 C29.0746298,8.06382965 30.6566544,9.42294274 32.6186491,9.42294274 L33.0305792,9.42294274 C32.9986191,12.6819864 32.4766042,19.6896371 29.0746298,24.3890932 C24.5345209,30.6933278 20.0245966,37.0629554 19.9944121,43.1745458 C19.9944121,43.2151955 20.0103921,43.2699842 20.0103921,43.3088665 C20.0103921,43.3512836 19.9944121,43.3760269 19.9944121,43.4043049 L19.9944121,105.884625 C19.9944121,111.374099 28.8651136,117.192305 43.723006,117.213513 L43.723006,117.21528 C43.7389861,117.21528 43.7549661,117.213513 43.7709462,117.213513 C43.7869262,117.213513 43.8029062,117.21528 43.8188863,117.21528 L43.8188863,117.213513 C58.6767787,117.192305 67.5492558,111.374099 67.5492558,105.884625 L67.5492558,43.4043049 C67.5492558,43.3760269 67.5315002,43.3512836 67.5315002,43.3088665 C67.5315002,43.2699842 67.5492558,43.2151955 67.5492558,43.1745458" id="Fill-1" fill="#CAECF4"></path>
                            <path d="M24.9998954,44.2464601 L24.9998954,105.97918 C24.9998954,109.634116 33.4267068,112.59624 43.8208394,112.59624 C54.2131965,112.59624 62.6400078,109.634116 62.6400078,105.97918 L62.6400078,44.2464601 L24.9998954,44.2464601 Z" id="Fill-3" fill="#F2F2F2"></path>
                            <path d="M62.6396527,44.2464601 C62.6396527,46.0315112 54.2128414,47.4789931 43.8204843,47.4789931 C33.4263516,47.4789931 24.9995403,46.0315112 24.9995403,44.2464601 C24.9995403,42.4596418 33.4263516,41.0139272 43.8204843,41.0139272 C54.2128414,41.0139272 62.6396527,42.4596418 62.6396527,44.2464601" id="Fill-5" fill="#FFFFFF"></path>
                            <g id="Group-9" transform="translate(28.408972, 0.691922)">
                                <mask id="mask-2" fill="white">
                                    <use xlink:href="#path-1"></use>
                                </mask>
                                <g id="Clip-8"></g>
                                <path d="M30.0907832,6.72787493 C30.0907832,8.46520676 28.6738857,9.87557379 26.9267339,9.87557379 L3.58698784,9.87557379 C1.83983605,9.87557379 0.424714132,8.46520676 0.424714132,6.72787493 L0.424714132,3.15777291 C0.424714132,1.42044109 1.83983605,0.0100740503 3.58698784,0.0100740503 L26.9267339,0.0100740503 C28.6738857,0.0100740503 30.0907832,1.42044109 30.0907832,3.15777291 L30.0907832,6.72787493 Z" id="Fill-7" fill="#4DBFD9" mask="url(#mask-2)"></path>
                            </g>
                            <path d="M51.134019,33.7699781 C51.134019,35.5090773 49.7171216,36.9194443 47.9699698,36.9194443 L47.2934811,36.9194443 C45.5463294,36.9194443 44.1294319,35.5090773 44.1294319,33.7699781 L44.1294319,16.6882771 C44.1294319,14.9509453 45.5463294,13.5405782 47.2934811,13.5405782 L47.9699698,13.5405782 C49.7171216,13.5405782 51.134019,14.9509453 51.134019,16.6882771 L51.134019,33.7699781 Z" id="Fill-10" fill="#FFFFFF"></path>
                            <path d="M58.9541213,96.2425217 C58.9541213,97.9816209 57.5389994,99.391988 55.790072,99.391988 L54.5436284,99.391988 C52.794701,99.391988 51.3778035,97.9816209 51.3778035,96.2425217 L51.3778035,55.3401103 C51.3778035,53.6027785 52.794701,52.1924115 54.5436284,52.1924115 L55.790072,52.1924115 C57.5389994,52.1924115 58.9541213,53.6027785 58.9541213,55.3401103 L58.9541213,96.2425217 Z" id="Fill-12" fill="#FFFFFF"></path>
                            <path d="M38.3002659,78.7378874 L38.3002659,105.989077 C38.3002659,113.177 58.9962021,118.996973 84.5127857,118.996973 C110.029369,118.996973 130.718203,113.177 130.718203,105.989077 L130.718203,78.7378874 L38.3002659,78.7378874 Z" id="Fill-14" fill="#ECA402"></path>
                            <path d="M130.717848,78.7378874 C130.717848,85.9187411 110.03079,91.7493186 84.5142061,91.7493186 C58.995847,91.7493186 38.2999108,85.9187411 38.2999108,78.7378874 C38.2999108,71.5411273 58.995847,65.7229214 84.5142061,65.7229214 C110.03079,65.7229214 130.717848,71.5411273 130.717848,78.7378874" id="Fill-16" fill="#E49306"></path>
                            <g id="Group-20" transform="translate(77.418880, 104.967179)">
                                <mask id="mask-4" fill="white">
                                    <use xlink:href="#path-3"></use>
                                </mask>
                                <g id="Clip-19"></g>
                                <path d="M0.0598443099,0.481610297 L0.0598443099,18.100594 C0.0598443099,22.743494 13.4315923,26.5115423 29.9283273,26.5115423 C46.4232867,26.5115423 59.7950348,22.743494 59.7950348,18.100594 L59.7950348,0.481610297 L0.0598443099,0.481610297 Z" id="Fill-18" fill="#F2F2F2" mask="url(#mask-4)"></path>
                            </g>
                            <g id="Group-23" transform="translate(77.418880, 96.130293)">
                                <mask id="mask-6" fill="white">
                                    <use xlink:href="#path-5"></use>
                                </mask>
                                <g id="Clip-22"></g>
                                <path d="M59.7952123,9.31849649 C59.7952123,13.9666986 46.4234643,17.7312121 29.9285049,17.7312121 C13.4317699,17.7312121 0.060021866,13.9666986 0.060021866,9.31849649 C0.060021866,4.67559648 13.4317699,0.909315589 29.9285049,0.909315589 C46.4234643,0.909315589 59.7952123,4.67559648 59.7952123,9.31849649" id="Fill-21" fill="#E6E6E6" mask="url(#mask-6)"></path>
                            </g>
                            <g id="Group-26" transform="translate(0.000000, 94.362916)">
                                <mask id="mask-8" fill="white">
                                    <use xlink:href="#path-7"></use>
                                </mask>
                                <g id="Clip-25"></g>
                                <path d="M50.8730116,0.730103537 L50.8730116,24.6338807 L-0.000355112151,24.6338807 L-0.000355112151,14.9451187 C0.484372974,15.0653003 1.01171452,15.134228 1.55326055,15.134228 C4.13847701,15.134228 6.24074094,13.6354921 6.24074094,11.7850482 C6.24074094,9.92930206 4.13847701,8.43056616 1.55326055,8.43056616 C1.01171452,8.43056616 0.484372974,8.4977265 -0.000355112151,8.61967553 L-0.000355112151,0.730103537 L50.8730116,0.730103537 Z" id="Fill-24" fill="#FFE167" mask="url(#mask-8)"></path>
                            </g>
                            <path d="M0.00337356543,95.094787 L29.5646846,84.6778655 C29.5646846,84.6778655 47.0859181,85.5474151 50.8731892,95.094787 L0.00337356543,95.094787 Z" id="Fill-27" fill="#F5B400"></path>
                            <path d="M19.7799244,102.711476 C19.7799244,104.964882 17.942219,106.795885 15.6766035,106.795885 C13.4109879,106.795885 11.571507,104.964882 11.571507,102.711476 C11.571507,100.454535 13.4109879,98.6235324 15.6766035,98.6235324 C17.942219,98.6235324 19.7799244,100.454535 19.7799244,102.711476" id="Fill-29" fill="#E49306"></path>
                            <path d="M30.8287063,107.787383 C30.8287063,108.722326 30.0669907,109.482298 29.1259435,109.482298 C28.1866719,109.482298 27.4231807,108.722326 27.4231807,107.787383 C27.4231807,106.848906 28.1866719,106.092469 29.1259435,106.092469 C30.0669907,106.092469 30.8287063,106.848906 30.8287063,107.787383" id="Fill-31" fill="#E49306"></path>
                            <path d="M21.3596408,113.919829 C21.3596408,115.093367 20.4043891,116.042449 19.2271923,116.042449 C18.0499955,116.042449 17.0965194,115.093367 17.0965194,113.919829 C17.0965194,112.748058 18.0499955,111.798976 19.2271923,111.798976 C20.4043891,111.798976 21.3596408,112.748058 21.3596408,113.919829" id="Fill-33" fill="#E49306"></path>
                            <path d="M45.6651144,102.885739 C45.6651144,105.229282 43.7563866,107.129212 41.4037686,107.129212 C39.0511506,107.129212 37.1424227,105.229282 37.1424227,102.885739 C37.1424227,100.543964 39.0511506,98.6458013 41.4037686,98.6458013 C43.7563866,98.6458013 45.6651144,100.543964 45.6651144,102.885739" id="Fill-35" fill="#E49306"></path>
                            <path d="M43.7707686,114.258105 C43.7707686,116.080271 42.2881754,117.556031 40.4575722,117.556031 C38.6269691,117.556031 37.1426003,116.080271 37.1426003,114.258105 C37.1426003,112.435939 38.6269691,110.960179 40.4575722,110.960179 C42.2881754,110.960179 43.7707686,112.435939 43.7707686,114.258105" id="Fill-37" fill="#E49306"></path>
                            <path d="M8.09655704,114.824196 C8.09655704,115.84574 7.26737017,116.669338 6.24464717,116.669338 C5.22014862,116.669338 4.39273731,115.84574 4.39273731,114.824196 C4.39273731,113.807954 5.22014862,112.982589 6.24464717,112.982589 C7.26737017,112.982589 8.09655704,113.807954 8.09655704,114.824196" id="Fill-39" fill="#E49306"></path>
                        </g>
                    </g>
                </g>
            </g>
        </g>
    </g>
</svg>