<?xml version="1.0" encoding="UTF-8"?>
<svg width="163px" height="107px" viewBox="0 0 163 107" version="1.1" xmlns="http://www.w3.org/2000/svg" xmlns:xlink="http://www.w3.org/1999/xlink">
    <!-- Generator: Sketch 55.1 (78136) - https://sketchapp.com -->
    <title>Group 66</title>
    <desc>Created with Sketch.</desc>
    <defs>
        <polygon id="path-1" points="0.370161905 0.389857143 92.9015238 0.389857143 92.9015238 92.9129381 0.370161905 92.9129381"></polygon>
        <polygon id="path-3" points="0 0.294525 62.638875 0.294525 62.638875 17.147025 0 17.147025"></polygon>
        <polygon id="path-5" points="0 0.145025 62.63955 0.145025 62.63955 16.999775 0 16.999775"></polygon>
    </defs>
    <g id="Page-1" stroke="none" stroke-width="1" fill="none" fill-rule="evenodd">
        <g id="Homepage-Copy" transform="translate(-1150.000000, -914.000000)">
            <g id="Group-16" transform="translate(100.000000, 763.000000)">
                <g id="Group-14" transform="translate(960.000000, 55.000000)">
                    <g id="Group-66" transform="translate(90.000000, 96.000000)">
                        <g id="Group-3" transform="translate(69.816327, 0.000000)">
                            <mask id="mask-2" fill="white">
                                <use xlink:href="#path-1"></use>
                            </mask>
                            <g id="Clip-2"></g>
                            <path d="M46.6360667,67.8127 C34.9621619,67.8127 25.4726381,58.3187 25.4726381,46.6537476 C25.4726381,34.9798429 34.9621619,25.488081 46.6360667,25.488081 C58.3054952,25.488081 67.7972571,34.9798429 67.7972571,46.6537476 C67.7972571,58.3187 58.3054952,67.8127 46.6360667,67.8127 M46.6360667,0.387842857 C21.124019,0.387842857 0.370161905,21.1394619 0.370161905,46.6537476 C0.370161905,72.1635571 21.124019,92.9129381 46.6360667,92.9129381 C72.1503524,92.9129381 92.9019714,72.1635571 92.9019714,46.6537476 C92.9019714,21.1394619 72.1503524,0.387842857 46.6360667,0.387842857" id="Fill-1" fill="#F3AA43" mask="url(#mask-2)"></path>
                        </g>
                        <path d="M116.78731,73.5966695 C115.80052,73.5966695 114.858892,73.5357042 113.908231,73.4295795 L113.894683,73.4295795 C109.798488,72.9689529 106.00262,71.508044 102.737406,69.3042619 C98.5712097,66.493085 95.2947052,62.4580864 93.4295138,57.723116 C92.4201427,55.169348 91.8014231,52.4146204 91.6975504,49.5402202 C91.6614208,49.1879763 91.6614208,48.8154107 91.6614208,48.4609088 C91.6614208,42.2447079 93.926296,36.5500988 97.6792598,32.1673723 C102.276753,26.7708157 109.123315,23.338696 116.78731,23.338696 C117.245704,23.338696 117.706357,23.3545018 118.153461,23.3680497 C124.692921,23.7225515 130.570758,26.5856619 134.829536,31.0180638 C136.785052,33.0141123 138.401852,35.339825 139.587355,37.9071408 C141.082218,41.1089472 141.913199,44.6923511 141.913199,48.4609088 C141.913199,49.8766582 141.786745,51.2607959 141.556419,52.613322 L141.556419,52.6313858 C140.892537,56.6912221 139.246382,60.4146204 136.861827,63.5690093 C132.277882,69.6610217 124.988733,73.5966695 116.78731,73.5966695 M155.80052,46.5032458 C155.757616,41.4453853 154.743729,36.5997742 152.941764,32.1515665 C151.923361,29.5842506 150.647533,27.1524132 149.107509,24.8786339 C146.420369,20.8007338 142.972248,17.2444256 138.9867,14.4174428 C136.141493,12.3897827 133.032088,10.7256562 129.694615,9.49506068 C125.370352,7.87835168 120.691566,7 115.816327,7 C99.3570288,7 85.1851873,16.9825007 79.0612176,31.2303133 C77.6792598,34.4140559 76.7082764,37.8281118 76.2137523,41.382162 C75.9540707,43.2156365 75.8163265,45.0920124 75.8163265,47 C75.8163265,50.06407 76.1685903,53.042337 76.8302139,55.9212532 C77.4466754,58.6308213 78.3408834,61.2320068 79.494773,63.7090037 C81.5383543,68.1978549 84.4332397,72.2464014 87.9378124,75.6627152 C90.1846228,77.8439176 92.6753081,79.767711 95.400836,81.382162 C99.4450947,83.8004516 103.938716,85.5210274 108.752987,86.3700254 L108.768794,86.3700254 C111.065282,86.7832345 113.418223,87 115.816327,87 C129.753326,87 142.048685,79.8444821 149.202349,68.9994355 C151.814972,65.0637878 153.741132,60.61558 154.815988,55.8625459 C155.482128,53.0129833 155.816327,50.0460062 155.816327,47 C155.816327,46.830652 155.816327,46.6748518 155.80052,46.5032458" id="Fill-4" fill="#F2F2F2"></path>
                        <path d="M138.816327,14.9398102 L118.239615,23.9221074 C117.798017,23.9085115 117.343036,23.8926498 116.890286,23.8926498 C109.320661,23.8926498 102.558404,27.3369211 98.0175208,32.7525846 L76.8163265,42 C77.3047614,38.4333664 78.2637887,35.0072228 79.6287299,31.8122079 L129.638658,10 C132.935036,11.2349526 136.006154,12.904971 138.816327,14.9398102" id="Fill-6" fill="#D16241"></path>
                        <path d="M92.0404832,50 C92.1468488,52.8401594 92.7804179,55.5620717 93.8163265,58.0854183 L79.5471481,64 C78.3632525,61.55251 77.4475833,58.9823108 76.8163265,56.307251 L92.0404832,50 Z" id="Fill-8" fill="#D16241"></path>
                        <path d="M152.816327,32.2580142 L139.544665,38 C138.368751,35.4387455 136.761969,33.1185237 134.816327,31.124935 L149.008073,25 C150.536312,27.2706637 151.804233,29.694507 152.816327,32.2580142" id="Fill-10" fill="#D16241"></path>
                        <path d="M102.642773,70 C105.91115,72.1895681 109.715587,73.6410544 113.816327,74.09871 L95.2940125,82 C92.5639559,80.3959619 90.0668702,78.4845766 87.8163265,76.3151991 L102.642773,70 Z" id="Fill-12" fill="#D16241"></path>
                        <path d="M155.816327,47.4949054 C155.816327,50.5295752 155.481365,53.4855101 154.813706,56.3222178 L136.816327,64 C139.208584,60.8596004 140.858494,57.1500595 141.523891,53.1053328 L141.523891,53.0850867 L155.800484,47 C155.816327,47.1709673 155.816327,47.3239381 155.816327,47.4949054" id="Fill-14" fill="#D16241"></path>
                        <path d="M148.816327,69 C141.737135,79.8447065 129.575848,87 115.788291,87 C113.413668,87 111.085957,86.7832413 108.816327,86.3700452 L148.816327,69 Z" id="Fill-16" fill="#D16241"></path>
                        <path d="M93.787855,81.6843441 C93.787855,85.1708349 90.4162266,88 86.257885,88 L50.3770158,88 C46.2119309,88 42.8425503,85.1708349 42.8425503,81.6843441 L36.8163265,52.3134352 C36.8163265,48.8269444 40.1879549,46 44.3485443,46 L92.281861,46 C96.4446982,46 99.8163265,48.8269444 99.8163265,52.3134352 L93.787855,81.6843441 Z" id="Fill-18" fill="#EA6742"></path>
                        <path d="M71.8163265,79.7767756 C71.8163265,82.10823 70.0262064,84 67.8152584,84 C65.6064467,84 63.8163265,82.10823 63.8163265,79.7767756 L63.8163265,50.2209696 C63.8163265,47.8872604 65.6064467,46 67.8152584,46 C70.0262064,46 71.8163265,47.8872604 71.8163265,50.2209696 L71.8163265,79.7767756 Z" id="Fill-20" fill="#E3483F"></path>
                        <path d="M86.3577945,80.3672493 C86.0115792,82.6934453 83.8265253,84.2988162 81.4809744,83.9531839 C79.1377162,83.6098256 77.5166951,81.4450762 77.8629104,79.1166063 L82.2765816,49.6332655 C82.6227968,47.3070694 84.8055579,45.6994247 87.1534017,46.0473308 C89.4966599,46.3906892 91.1176809,48.5554386 90.7691729,50.8839085 L86.3577945,80.3672493 Z" id="Fill-22" fill="#E3483F"></path>
                        <path d="M49.2748052,80.3672493 C49.6210205,82.6934453 51.8060744,84.2988162 54.1539183,83.9531839 C56.4971766,83.6098256 58.1159049,81.4450762 57.7696896,79.1166063 L53.358311,49.6332655 C53.0120958,47.3070694 50.8270418,45.6994247 48.4814908,46.0473308 C46.1382325,46.3906892 44.5149186,48.5554386 44.8634266,50.8839085 L49.2748052,80.3672493 Z" id="Fill-24" fill="#E3483F"></path>
                        <path d="M105.816327,37.9209948 C105.816327,44.7492147 100.327377,50.2829319 93.5516417,50.2829319 C92.4971915,50.2829319 91.4762515,50.1320942 90.5044595,49.8776963 C85.6186916,55.3911518 77.5673393,59 68.4682388,59 C59.3155223,59 51.2462979,55.3573822 46.362764,49.8259162 C45.3261859,50.1140838 44.2203537,50.2829319 43.0810114,50.2829319 C36.3052757,50.2829319 30.8163265,44.7492147 30.8163265,37.9209948 C30.8163265,36.8921466 30.9347288,35.9128272 31.1849373,34.9695288 C32.4895959,29.5573822 37.3083437,25.5613089 43.0810114,25.5613089 C44.0192933,25.5613089 44.9061931,25.678377 45.7930929,25.8629843 C50.5962026,19.9442932 58.9469115,16 68.4682388,16 C77.9538221,16 86.2710209,19.9105236 91.0897687,25.8134555 C91.8783723,25.6446073 92.716124,25.5613089 93.5516417,25.5613089 C99.3220754,25.5613089 104.143057,29.5573822 105.447716,34.9695288 C105.700158,35.9128272 105.816327,36.8921466 105.816327,37.9209948" id="Fill-26" fill="#FFC562"></path>
                        <path d="M60.8163265,45.501147 C60.8163265,48.5384776 58.3530238,51 55.3163265,51 C52.2773357,51 49.8163265,48.5384776 49.8163265,45.501147 C49.8163265,42.4638165 52.2773357,40 55.3163265,40 C58.3530238,40 60.8163265,42.4638165 60.8163265,45.501147" id="Fill-28" fill="#9D6C4E"></path>
                        <path d="M71.8163265,31.501147 C71.8163265,34.5384776 69.3525101,37 66.3151795,37 C63.2778489,37 60.8163265,34.5384776 60.8163265,31.501147 C60.8163265,28.4638165 63.2778489,26 66.3151795,26 C69.3525101,26 71.8163265,28.4638165 71.8163265,31.501147" id="Fill-30" fill="#9D6C4E"></path>
                        <path d="M95.8163265,43.501147 C95.8163265,46.5384776 93.3548041,49 90.3151795,49 C87.2778489,49 84.8163265,46.5384776 84.8163265,43.501147 C84.8163265,40.4638165 87.2778489,38 90.3151795,38 C93.3548041,38 95.8163265,40.4638165 95.8163265,43.501147" id="Fill-32" fill="#9D6C4E"></path>
                        <path d="M89.8163265,25.498853 C89.8163265,28.5361835 87.3548041,31 84.3197676,31 C81.280143,31 78.8163265,28.5361835 78.8163265,25.498853 C78.8163265,22.4615224 81.280143,20 84.3197676,20 C87.3548041,20 89.8163265,22.4615224 89.8163265,25.498853" id="Fill-34" fill="#9D6C4E"></path>
                        <path d="M51.8163265,25.498853 C51.8163265,28.5361835 49.3548041,31 46.3197676,31 C43.2778489,31 40.8163265,28.5361835 40.8163265,25.498853 C40.8163265,22.4615224 43.2778489,20 46.3197676,20 C49.3548041,20 51.8163265,22.4615224 51.8163265,25.498853" id="Fill-36" fill="#9D6C4E"></path>
                        <g id="Group-40" transform="translate(0.816327, 84.000000)">
                            <mask id="mask-4" fill="white">
                                <use xlink:href="#path-3"></use>
                            </mask>
                            <g id="Clip-39"></g>
                            <path d="M53.670375,2.823525 C47.984625,1.264275 40.078125,0.294525 31.318875,0.294525 C22.564125,0.294525 14.655375,1.264275 8.971875,2.823525 L-0.001125,2.823525 L-0.001125,8.723025 C-0.001125,13.376025 14.023125,17.147025 31.318875,17.147025 C48.616875,17.147025 62.638875,13.376025 62.638875,8.723025 L62.638875,2.823525 L53.670375,2.823525 Z" id="Fill-38" fill="#E3972B" mask="url(#mask-4)"></path>
                        </g>
                        <g id="Group-43" transform="translate(0.816327, 78.000000)">
                            <mask id="mask-6" fill="white">
                                <use xlink:href="#path-5"></use>
                            </mask>
                            <g id="Clip-42"></g>
                            <path d="M62.63955,8.573525 C62.63955,13.226525 48.61755,16.999775 31.31955,16.999775 C14.0238,16.999775 -0.00045,13.226525 -0.00045,8.573525 C-0.00045,3.918275 14.0238,0.145025 31.31955,0.145025 C48.61755,0.145025 62.63955,3.918275 62.63955,8.573525" id="Fill-41" fill="#FFC562" mask="url(#mask-6)"></path>
                        </g>
                        <path d="M19.8163265,88.0012571 C19.8163265,89.1049654 19.0161017,90 18.0270599,90 L13.607841,90 C12.6187991,90 11.8163265,89.1049654 11.8163265,88.0012571 C11.8163265,86.8950346 12.6187991,86 13.607841,86 L18.0270599,86 C19.0161017,86 19.8163265,86.8950346 19.8163265,88.0012571" id="Fill-44" fill="#9D6C4E"></path>
                        <path d="M36.8163265,83.0010747 C36.8163265,84.1058571 35.8577058,85 34.6760966,85 L27.9542576,85 C26.7749472,85 25.8163265,84.1058571 25.8163265,83.0010747 C25.8163265,81.8984417 26.7749472,81 27.9542576,81 L34.6760966,81 C35.8577058,81 36.8163265,81.8984417 36.8163265,83.0010747" id="Fill-46" fill="#9D6C4E"></path>
                        <path d="M47.8163265,89.4989993 C47.8163265,90.3275517 47.0336163,91 46.0663265,91 L42.5663265,91 C41.5990368,91 40.8163265,90.3275517 40.8163265,89.4989993 C40.8163265,88.670447 41.5990368,88 42.5663265,88 L46.0663265,88 C47.0336163,88 47.8163265,88.670447 47.8163265,89.4989993" id="Fill-48" fill="#9D6C4E"></path>
                        <path d="M32.8163265,91.5010007 C32.8163265,92.329553 32.0212316,93 31.0386367,93 L28.5963898,93 C27.6114215,93 26.8163265,92.329553 26.8163265,91.5010007 C26.8163265,90.670447 27.6114215,90 28.5963898,90 L31.0386367,90 C32.0212316,90 32.8163265,90.670447 32.8163265,91.5010007" id="Fill-50" fill="#9D6C4E"></path>
                        <path d="M52.8163265,84.5010007 C52.8163265,85.329553 52.0079846,86 51.0114317,86 L47.6236344,86 C46.6246685,86 45.8163265,85.329553 45.8163265,84.5010007 C45.8163265,83.670447 46.6246685,83 47.6236344,83 L51.0114317,83 C52.0079846,83 52.8163265,83.670447 52.8163265,84.5010007" id="Fill-52" fill="#9D6C4E"></path>
                        <path d="M87.0983902,99.6741051 C83.9951198,101.237682 60.0788042,107 57.9899361,107 C56.2125074,107 51.4764051,105.685787 55.2181261,97.7106485 C55.8588013,96.333533 56.768649,94.7452449 57.9899361,92.9300584 C66.2364045,80.6528381 82.3044492,77 82.3044492,77 C82.3044492,77 85.2809193,84.9324547 86.8536879,91.4271379 C87.8436201,95.5382657 88.2952071,99.0675453 87.0983902,99.6741051" id="Fill-54" fill="#E3972B"></path>
                        <path d="M86.8163265,90.660579 C82.8222333,92.4206703 59.6902454,98 57.6200675,98 C56.9090064,98 55.7366556,97.7876933 54.8163265,97.0457611 C55.4643822,95.646363 56.3869615,94.0323752 57.6200675,92.1878178 C65.9615343,79.7119436 82.2146811,76 82.2146811,76 C82.2146811,76 85.2254398,84.0608073 86.8163265,90.660579" id="Fill-56" fill="#FFC562"></path>
                        <path d="M113.535858,99.6741051 C116.638979,101.237682 140.554149,107 142.642917,107 C144.420261,107 149.156136,105.685787 145.414594,97.7106485 C144.77395,96.333533 143.864145,94.7452449 142.642917,92.9300584 C134.396844,80.6528381 118.329569,77 118.329569,77 C118.329569,77 115.353241,84.9324547 113.780548,91.4271379 C112.788439,95.5382657 112.336874,99.0675453 113.535858,99.6741051" id="Fill-58" fill="#E3972B"></path>
                        <path d="M112.816327,90.660579 C116.81042,92.4206703 139.942408,98 142.012586,98 C142.723647,98 143.895997,97.7876933 144.816327,97.0457611 C144.168271,95.646363 143.245692,94.0323752 142.012586,92.1878178 C133.671119,79.7119436 117.417972,76 117.417972,76 C117.417972,76 114.407213,84.0608073 112.816327,90.660579" id="Fill-60" fill="#FFC562"></path>
                        <path d="M121.816327,83.269835 L121.816327,90.7279545 C121.816327,96.3955949 117.085486,101 111.264486,101 L89.3727096,101 C83.5244552,101 78.8163265,96.3955949 78.8163265,90.7279545 L78.8163265,83.269835 C78.8163265,83.1460488 78.8163265,83.024473 78.8390382,82.9006868 C79.0298162,77.3966211 83.6539117,73 89.3727096,73 L111.264486,73 C116.958301,73 121.600566,77.3966211 121.791344,82.9006868 C121.816327,83.024473 121.816327,83.1460488 121.816327,83.269835" id="Fill-62" fill="#FFC562"></path>
                        <path d="M121.816327,83.0111732 C121.774131,84.1106145 121.572037,85.147486 121.218928,86.126257 C119.815375,90.1329609 115.997799,93 111.520641,93 L90.1164534,93 C85.617088,93 81.8172783,90.1329609 80.3959585,86.126257 C80.0428494,85.147486 79.858522,84.1106145 79.8163265,83.0111732 C80.0028748,77.4446927 84.5244484,73 90.1164534,73 L111.520641,73 C117.090438,73 121.629778,77.4446927 121.816327,83.0111732" id="Fill-64" fill="#FFD894"></path>
                    </g>
                </g>
            </g>
        </g>
    </g>
</svg>