<svg xmlns="http://www.w3.org/2000/svg" width="18" height="17" viewBox="0 0 18 17"><defs><clipPath id="wjtna"><path fill="#fff" d="M4.7 16.3v-4.6h5.6v4.6zM7.356 15c.566 0 1.025-.448 1.025-1s-.459-1-1.025-1c-.567 0-1.026.448-1.026 1s.46 1 1.026 1z"/></clipPath><clipPath id="wjtnb"><path fill="#fff" d="M10.7 16.3v-4.6h5.6v4.6zm2.816-1.3c.566 0 1.025-.448 1.025-1s-.459-1-1.025-1c-.567 0-1.026.448-1.026 1s.46 1 1.026 1z"/></clipPath></defs><g><g><g><path fill="none" stroke="#0db85a" stroke-linecap="round" stroke-linejoin="round" stroke-miterlimit="20" stroke-width="2" d="M1 1v0h2.051v0l2.872 8.8v0h9.026v0L17 3.4v0H3.872v0"/></g><g><path fill="#c73aaf" d="M7.356 15c.566 0 1.025-.448 1.025-1s-.459-1-1.025-1c-.567 0-1.026.448-1.026 1s.46 1 1.026 1z"/><path fill="none" stroke="#0db85a" stroke-miterlimit="20" stroke-width="2.6" d="M7.356 15c.566 0 1.025-.448 1.025-1s-.459-1-1.025-1c-.567 0-1.026.448-1.026 1s.46 1 1.026 1z" clip-path="url(&quot;#wjtna&quot;)"/></g><g><path fill="#c73aaf" d="M13.516 15c.566 0 1.025-.448 1.025-1s-.459-1-1.025-1c-.567 0-1.026.448-1.026 1s.46 1 1.026 1z"/><path fill="none" stroke="#0db85a" stroke-miterlimit="20" stroke-width="2.6" d="M13.516 15c.566 0 1.025-.448 1.025-1s-.459-1-1.025-1c-.567 0-1.026.448-1.026 1s.46 1 1.026 1z" clip-path="url(&quot;#wjtnb&quot;)"/></g></g></g></svg>