<svg xmlns="http://www.w3.org/2000/svg" width="18" height="17" viewBox="0 0 18 17"><defs><clipPath id="qc0va"><path fill="#fff" d="M4.7 16.3v-4.6h5.6v4.6zM7.356 15c.566 0 1.025-.448 1.025-1s-.459-1-1.025-1c-.567 0-1.026.448-1.026 1s.46 1 1.026 1z M10.7 16.3v-4.6h5.6v4.6zm2.816-1.3c.566 0 1.025-.448 1.025-1s-.459-1-1.025-1c-.567 0-1.026.448-1.026 1s.46 1 1.026 1z M1 1v0h2.051v0l2.872 8.8v0h9.026v0L17 3.4v0H3.872v0 M7.356 15c.566 0 1.025-.448 1.025-1s-.459-1-1.025-1c-.567 0-1.026.448-1.026 1s.46 1 1.026 1z M7.356 15c.566 0 1.025-.448 1.025-1s-.459-1-1.025-1c-.567 0-1.026.448-1.026 1s.46 1 1.026 1z M13.516 15c.566 0 1.025-.448 1.025-1s-.459-1-1.025-1c-.567 0-1.026.448-1.026 1s.46 1 1.026 1z M13.516 15c.566 0 1.025-.448 1.025-1s-.459-1-1.025-1c-.567 0-1.026.448-1.026 1s.46 1 1.026 1z"/></clipPath>/></g></g></g></svg>