<svg xmlns="http://www.w3.org/2000/svg" width="17" height="20" viewBox="0 0 17 20"><g><g><path fill="#0db14b" d="M6.16 3.017c.645-.647 1.4-.962 2.312-.962.911 0 1.667.315 2.312.962.645.648.958 1.408.958 2.323 0 .916-.313 1.675-.958 2.323-.645.648-1.401.963-2.312.963-.911 0-1.667-.315-2.312-.963-.645-.647-.958-1.407-.958-2.323 0-.915.313-1.675.958-2.323zm2.312 6.654a4.175 4.175 0 0 0 3.056-1.27 4.202 4.202 0 0 0 1.266-3.066c0-1.19-.426-2.222-1.266-3.065A4.176 4.176 0 0 0 8.472 1a4.175 4.175 0 0 0-3.056 1.27A4.202 4.202 0 0 0 4.15 5.335c0 1.192.426 2.223 1.266 3.066.84.842 1.869 1.27 3.056 1.27z"/><path fill="none" stroke="#0db14b" stroke-miterlimit="20" stroke-width=".5" d="M6.16 3.017c.645-.647 1.4-.962 2.312-.962.911 0 1.667.315 2.312.962.645.648.958 1.408.958 2.323 0 .916-.313 1.675-.958 2.323-.645.648-1.401.963-2.312.963-.911 0-1.667-.315-2.312-.963-.645-.647-.958-1.407-.958-2.323 0-.915.313-1.675.958-2.323zm2.312 6.654a4.175 4.175 0 0 0 3.056-1.27 4.202 4.202 0 0 0 1.266-3.066c0-1.19-.426-2.222-1.266-3.065A4.176 4.176 0 0 0 8.472 1a4.175 4.175 0 0 0-3.056 1.27A4.202 4.202 0 0 0 4.15 5.335c0 1.192.426 2.223 1.266 3.066.84.842 1.869 1.27 3.056 1.27z"/></g><g><path fill="#0db14b" d="M12.905 17.94h-8.64c-.663 0-1.172-.177-1.555-.543-.376-.359-.558-.849-.558-1.497 0-.338.01-.67.033-.99.021-.314.066-.658.131-1.025.065-.361.147-.7.245-1.008.094-.294.223-.586.382-.867a2.98 2.98 0 0 1 .52-.683c.18-.173.407-.315.674-.42.248-.1.526-.153.829-.161.036.02.102.057.208.127l.741.479c.31.198.71.377 1.188.532.489.159.987.24 1.482.24a4.8 4.8 0 0 0 1.481-.24 5.209 5.209 0 0 0 1.19-.533c.281-.18.524-.337.74-.478.106-.07.172-.107.208-.127.303.008.58.062.829.16.267.106.495.248.675.421.193.185.367.415.52.683.158.281.287.573.38.867.099.308.181.647.246 1.008.066.367.11.712.131 1.025.023.319.034.651.034.99 0 .648-.183 1.138-.558 1.497-.384.366-.892.543-1.556.543zM15.89 13.7a8.986 8.986 0 0 0-.279-1.143 5.659 5.659 0 0 0-.469-1.067 4.02 4.02 0 0 0-.706-.924 3.114 3.114 0 0 0-1.015-.64 3.499 3.499 0 0 0-1.296-.235c-.183 0-.36.076-.703.299-.21.138-.456.297-.731.473-.235.15-.554.291-.947.419a3.75 3.75 0 0 1-1.158.187c-.385 0-.774-.063-1.158-.187a4.174 4.174 0 0 1-.946-.419c-.273-.174-.52-.334-.733-.473-.342-.224-.519-.299-.702-.299-.467 0-.902.08-1.296.236a3.112 3.112 0 0 0-1.015.64 4.02 4.02 0 0 0-.706.923 5.668 5.668 0 0 0-.469 1.067 9.006 9.006 0 0 0-.279 1.143c-.072.404-.12.786-.145 1.138-.024.344-.036.701-.036 1.063 0 .94.298 1.7.885 2.261.58.554 1.347.834 2.28.834h8.64c.933 0 1.7-.28 2.28-.834.588-.56.886-1.322.886-2.261 0-.363-.013-.72-.037-1.064-.024-.35-.073-.733-.145-1.137z"/><path fill="none" stroke="#0db14b" stroke-miterlimit="20" stroke-width=".5" d="M12.905 17.94h-8.64c-.663 0-1.172-.177-1.555-.543-.376-.359-.558-.849-.558-1.497 0-.338.01-.67.033-.99.021-.314.066-.658.131-1.025.065-.361.147-.7.245-1.008.094-.294.223-.586.382-.867a2.98 2.98 0 0 1 .52-.683c.18-.173.407-.315.674-.42.248-.1.526-.153.829-.161.036.02.102.057.208.127l.741.479c.31.198.71.377 1.188.532.489.159.987.24 1.482.24a4.8 4.8 0 0 0 1.481-.24 5.209 5.209 0 0 0 1.19-.533c.281-.18.524-.337.74-.478.106-.07.172-.107.208-.127.303.008.58.062.829.16.267.106.495.248.675.421.193.185.367.415.52.683.158.281.287.573.38.867.099.308.181.647.246 1.008.066.367.11.712.131 1.025v0c.023.319.034.651.034.99 0 .648-.183 1.138-.558 1.497-.384.366-.892.543-1.556.543zM15.89 13.7a8.986 8.986 0 0 0-.279-1.143 5.659 5.659 0 0 0-.469-1.067 4.02 4.02 0 0 0-.706-.924 3.114 3.114 0 0 0-1.015-.64 3.499 3.499 0 0 0-1.296-.235c-.183 0-.36.076-.703.299-.21.138-.456.297-.731.473-.235.15-.554.291-.947.419a3.75 3.75 0 0 1-1.158.187c-.385 0-.774-.063-1.158-.187a4.174 4.174 0 0 1-.946-.419c-.273-.174-.52-.334-.733-.473-.342-.224-.519-.299-.702-.299-.467 0-.902.08-1.296.236a3.112 3.112 0 0 0-1.015.64 4.02 4.02 0 0 0-.706.923 5.668 5.668 0 0 0-.469 1.067 9.006 9.006 0 0 0-.279 1.143c-.072.404-.12.786-.145 1.138-.024.344-.036.701-.036 1.063 0 .94.298 1.7.885 2.261.58.554 1.347.834 2.28.834h8.64c.933 0 1.7-.28 2.28-.834.588-.56.886-1.322.886-2.261 0-.363-.013-.72-.037-1.064-.024-.35-.073-.733-.145-1.137z"/></g></g></svg>