<svg xmlns="http://www.w3.org/2000/svg" width="18" height="15" viewBox="0 0 18 15"><g><g><path fill="#fff" d="M12.822.098C12.33-.128 11.73.05 11.48.493L4.049 13.69c-.25.444-.054.987.437 1.213.146.066.3.098.452.098.364 0 .715-.18.892-.493L13.26 1.31c.25-.444.054-.987-.438-1.213z"/></g><g><path fill="#fff" d="M3.939 5.739c-.894 0-1.621-.707-1.621-1.576 0-.868.727-1.575 1.62-1.575.894 0 1.621.707 1.621 1.575 0 .87-.727 1.576-1.62 1.576zm3.428-1.576C7.367 2.325 5.83.83 3.94.83S.51 2.325.51 4.163s1.538 3.334 3.429 3.334c1.89 0 3.428-1.496 3.428-3.334z"/></g><g><path fill="#fff" d="M14.229 11.581c-.894 0-1.621-.708-1.621-1.578 0-.87.727-1.578 1.62-1.578.894 0 1.621.708 1.621 1.578 0 .87-.727 1.578-1.62 1.578zm0-4.911c-1.89 0-3.429 1.495-3.429 3.333s1.538 3.334 3.429 3.334c1.89 0 3.428-1.496 3.428-3.334S16.12 6.67 14.23 6.67z"/></g></g></svg>