<svg xmlns="http://www.w3.org/2000/svg" width="14" height="14" viewBox="0 0 14 14"><g><g><path fill="#fff" d="M11 14s.475 0 0 0c-1.914-.077-4.724-2.404-7-4C2.401 7.718.077 4.906 0 3-.025 1.718 2.018.222 2 0c.494-.11 1.106-.05 1 0 .52.522 2.08 2.891 2 3 .421.427.394.827 0 1 .057.467-.36 1.202-1 2 .65-.2 1.19.52 2 2 1.48.812 2.194 1.348 2 2 .79-.642 1.525-1.062 2-1 .152-.392.558-.423 1 0 .107-.088 2.47 1.485 3 2-.137-.24-.026-.03 0 0 .018.464-.058.73 0 1-.235-.021-1.71 2-3 2 .494 0 0 0 0 0z"/></g></g></svg>