<svg xmlns="http://www.w3.org/2000/svg" width="26" height="32" viewBox="0 0 26 32"><g><g><g><path d="M11.674 1.265a4.507 4.507 0 0 0 1.631.428 4.507 4.507 0 0 0 1.631-.427 2.661 2.661 0 0 1 1.467-.322c.42.112.776.564 1.151 1.043.31.453.702.844 1.156 1.152a4.44 4.44 0 0 0 1.597.435c.522.01 1.029.173 1.46.467.294.43.457.936.469 1.457.044.555.192 1.096.436 1.596.308.454.7.846 1.153 1.155.48.374.932.73 1.045 1.15a2.662 2.662 0 0 1-.323 1.466 4.497 4.497 0 0 0-.428 1.63c.038.566.183 1.12.428 1.63.246.448.358.957.323 1.466-.113.42-.566.775-1.046 1.15a4.36 4.36 0 0 0-1.154 1.155 4.416 4.416 0 0 0-.436 1.596 2.686 2.686 0 0 1-.467 1.457 2.69 2.69 0 0 1-1.459.467 4.434 4.434 0 0 0-1.597.435 4.372 4.372 0 0 0-1.156 1.152c-.374.48-.73.932-1.151 1.044a2.655 2.655 0 0 1-1.468-.323 4.507 4.507 0 0 0-1.631-.427 4.512 4.512 0 0 0-1.634.427 2.674 2.674 0 0 1-1.466.323c-.42-.112-.777-.565-1.152-1.044a4.37 4.37 0 0 0-1.156-1.151 4.436 4.436 0 0 0-1.598-.436 2.69 2.69 0 0 1-1.458-.466 2.683 2.683 0 0 1-.467-1.458 4.42 4.42 0 0 0-.436-1.596 4.362 4.362 0 0 0-1.152-1.154c-.48-.374-.933-.73-1.046-1.15a2.66 2.66 0 0 1 .323-1.466c.245-.512.39-1.065.428-1.63a4.497 4.497 0 0 0-.428-1.63A2.66 2.66 0 0 1 1.74 9.4c.113-.42.566-.776 1.046-1.15.454-.31.846-.701 1.155-1.155.244-.5.392-1.041.436-1.596.01-.52.173-1.027.467-1.458a2.69 2.69 0 0 1 1.458-.466 4.44 4.44 0 0 0 1.597-.436 4.37 4.37 0 0 0 1.155-1.15c.374-.48.73-.933 1.152-1.045a.89.89 0 0 1 .231-.028c.43.044.848.162 1.237.349zm.334 23.318a3.816 3.816 0 0 1 1.292-.362 3.82 3.82 0 0 1 1.293.36c.666.265 1.354.54 2.043.356.716-.191 1.183-.787 1.634-1.364.242-.358.544-.67.894-.924.4-.18.83-.29 1.269-.322.717-.104 1.46-.21 1.974-.725.515-.515.622-1.257.725-1.975.032-.438.14-.868.32-1.269.254-.349.567-.651.924-.893.576-.451 1.173-.918 1.364-1.635.184-.688-.09-1.376-.357-2.04a3.811 3.811 0 0 1-.362-1.293 3.82 3.82 0 0 1 .362-1.292c.266-.665.54-1.353.357-2.041-.191-.716-.787-1.183-1.364-1.634a3.7 3.7 0 0 1-.924-.894c-.18-.401-.29-.83-.322-1.27-.104-.717-.21-1.458-.725-1.973-.515-.515-1.257-.622-1.975-.726a3.75 3.75 0 0 1-1.269-.32 3.695 3.695 0 0 1-.893-.923C17.816.847 17.349.25 16.633.06c-.689-.184-1.376.09-2.041.357A3.815 3.815 0 0 1 13.3.779a3.815 3.815 0 0 1-1.292-.361c-.666-.266-1.353-.54-2.043-.357-.716.191-1.183.787-1.634 1.364-.242.357-.544.67-.894.923-.4.182-.83.29-1.269.323-.717.103-1.46.21-1.975.726-.515.514-.622 1.256-.725 1.974-.032.438-.14.868-.32 1.269-.254.35-.567.652-.924.893-.576.452-1.173.918-1.364 1.635-.184.688.09 1.376.357 2.041.196.406.318.843.362 1.292a3.821 3.821 0 0 1-.362 1.292c-.266.665-.54 1.353-.357 2.04.191.718.787 1.184 1.364 1.635a3.7 3.7 0 0 1 .924.894c.18.401.29.83.322 1.27.104.717.21 1.46.725 1.973.515.515 1.257.622 1.975.725a3.75 3.75 0 0 1 1.269.323c.35.253.652.566.893.924.452.576.919 1.172 1.635 1.364.153.04.31.06.467.059a4.392 4.392 0 0 0 1.574-.417z"/></g><g><path d="M13.3 4.92a7.588 7.588 0 0 1 7.58 7.58 7.58 7.58 0 1 1-7.58-7.58zm8.5 7.58a8.5 8.5 0 1 0-8.5 8.5 8.51 8.51 0 0 0 8.5-8.5z"/></g><g><path d="M17.016 32a.43.43 0 0 1-.402-.282l-2.786-7.438a.443.443 0 0 1-.028-.157.436.436 0 0 1 .37-.44.43.43 0 0 1 .475.317l2.473 6.604 1.481-2.296a.426.426 0 0 1 .47-.183l2.598.702-2.342-6.24a.442.442 0 0 1 .25-.558.428.428 0 0 1 .553.245l2.644 7.038a.446.446 0 0 1-.082.45.425.425 0 0 1-.43.13l-3.112-.838-1.772 2.748a.428.428 0 0 1-.36.198z"/></g><g><path d="M9.583 32a.428.428 0 0 1-.36-.197l-1.771-2.744-3.112.837a.425.425 0 0 1-.43-.131.445.445 0 0 1-.082-.45l2.638-7.022a.426.426 0 1 1 .743-.128c.097.125.12.294.06.441l-2.337 6.225 2.598-.702a.426.426 0 0 1 .47.183l1.48 2.293 2.483-6.615a.43.43 0 0 1 .476-.29.436.436 0 0 1 .333.59l-2.787 7.428a.43.43 0 0 1-.402.282z"/></g><g><path d="M9.275 17a.475.475 0 0 1-.336-.81l7.044-7.045a.475.475 0 1 1 .672.672L9.61 16.862a.475.475 0 0 1-.336.138z"/></g><g><path d="M16.03 15.503a.73.73 0 1 1-1.46 0 .73.73 0 0 1 1.46 0zM15.3 17a1.5 1.5 0 1 0 0-3 1.5 1.5 0 0 0 0 3z"/></g><g><path d="M11.3 8.772a.73.73 0 1 1 0 1.46.73.73 0 0 1 0-1.46zm0 2.228a1.5 1.5 0 1 0 0-3 1.5 1.5 0 0 0 0 3z"/></g></g></g></svg>