<svg xmlns="http://www.w3.org/2000/svg" width="36" height="32" viewBox="0 0 36 32"><g><g><g><path d="M34.85 13.996a.12.12 0 0 1 .121.118v2.764a.12.12 0 0 1-.12.115H1.15a.12.12 0 0 1-.121-.117v-2.762a.12.12 0 0 1 .12-.116zm0 4.004c.635 0 1.15-.5 1.15-1.114v-2.772c0-.615-.515-1.113-1.15-1.114H1.15C.515 13 0 13.5 0 14.114v2.773C.002 17.502.516 18 1.15 18z" fill="#fff"/></g><g><path d="M32.88 18.027l-1.86 11.638a1.538 1.538 0 0 1-1.528 1.298H7.509a1.538 1.538 0 0 1-1.53-1.299L4.12 18.027zM29.492 32a2.564 2.564 0 0 0 2.546-2.163l1.956-12.243a.512.512 0 0 0-.51-.594H3.517a.517.517 0 0 0-.51.596l1.956 12.239A2.564 2.564 0 0 0 7.51 32z" fill="#fff"/></g><g><path d="M24.52 29a.538.538 0 0 1-.514-.618l.96-6.91a.538.538 0 0 1 .32-.432.501.501 0 0 1 .519.078.553.553 0 0 1 .188.51l-.96 6.908a.526.526 0 0 1-.514.464z" fill="#fff"/></g><g><path d="M18.5 29c-.276 0-.5-.242-.5-.541V21.54c0-.299.224-.541.5-.541s.5.242.5.541v6.918c0 .299-.224.541-.5.541z" fill="#fff"/></g><g><path d="M11.481 29a.526.526 0 0 1-.512-.463l-.962-6.91a.553.553 0 0 1 .188-.509.501.501 0 0 1 .519-.078.538.538 0 0 1 .32.432l.96 6.91a.538.538 0 0 1-.513.618z" fill="#fff"/></g><g><path d="M31.49 14c-.198 0-.38-.118-.462-.303L25.71 1.877a1.398 1.398 0 0 0-1.869-.708 1.455 1.455 0 0 0-.693 1.91l4.589 10.185a.528.528 0 0 1-.048.517.505.505 0 0 1-.878-.084L22.222 3.513A2.5 2.5 0 0 1 23.413.226a2.384 2.384 0 0 1 1.858-.072 2.447 2.447 0 0 1 1.362 1.29l5.32 11.82c.073.161.06.348-.033.497a.507.507 0 0 1-.429.239z" fill="#fff"/></g><g><path d="M5.509 14a.507.507 0 0 1-.429-.239.528.528 0 0 1-.034-.497l5.32-11.82C10.923.202 12.363-.344 13.582.226a2.5 2.5 0 0 1 1.195 3.288l-4.59 10.183a.505.505 0 0 1-.674.255.523.523 0 0 1-.25-.688L13.851 3.08a1.455 1.455 0 0 0-.695-1.912 1.399 1.399 0 0 0-1.866.708L5.97 13.697A.509.509 0 0 1 5.51 14z" fill="#fff"/></g></g></g></svg>