<svg width="21" height="20" viewBox="0 0 21 20" fill="none" xmlns="http://www.w3.org/2000/svg">
<path fill-rule="evenodd" clip-rule="evenodd" d="M2.5916 1.29212C2.64199 1.22366 2.71737 1.12404 2.76199 1.07635C2.84198 0.990196 2.95545 0.901733 3.10699 0.806734C3.34275 0.660196 3.74891 0.56481 4.07275 0.580194C4.65545 0.607887 5.06545 0.738657 5.32583 0.980579C5.43083 1.07712 7.77237 3.64673 7.79083 3.66789L7.82814 3.71404L7.83433 3.72108C7.90867 3.80567 8.0586 3.97628 8.16891 4.2025C8.48737 4.85519 8.36314 5.69212 7.86275 6.2302L6.91699 7.25404C6.77852 7.40404 6.66775 7.55558 6.64429 7.60327C6.64337 7.60624 6.64199 7.60965 6.64047 7.61343C6.63884 7.61749 6.63704 7.62195 6.63545 7.62673C6.63968 7.63673 6.64737 7.65096 6.66275 7.66558L13.0774 13.6267C13.1051 13.626 13.1481 13.6229 13.2101 13.6113C13.2689 13.5971 13.4354 13.4975 13.5251 13.4013L14.4808 12.3783C14.6681 12.176 14.9108 12.0163 15.1804 11.9198C15.6047 11.7683 16.0689 11.7748 16.4881 11.939C16.6481 12.0017 16.8054 12.0921 16.9562 12.2079L16.9774 12.2217C16.9951 12.234 19.7762 14.4129 19.8993 14.5271C20.0654 14.6833 20.2043 14.9156 20.3254 15.2402C20.4139 15.4775 20.4274 15.7383 20.4274 15.8729C20.4274 15.9937 20.4166 16.174 20.367 16.3452C20.2697 16.6802 20.147 16.9244 19.992 17.0917C19.9304 17.1571 19.7708 17.2929 19.7708 17.2929C19.0297 17.9417 17.8628 18.8233 16.5701 19.2867C16.0101 19.4875 15.4651 19.5956 14.9508 19.6083C11.8662 19.6921 7.47237 15.8387 6.19891 14.6556C4.92583 13.4721 0.761985 9.37135 0.619677 6.28596C0.535831 4.44327 1.65506 2.53404 2.5916 1.29212ZM6.90237 4.40558C6.79083 4.28327 4.65968 1.94904 4.52852 1.81596L4.52726 1.8155C4.5076 1.80824 4.34938 1.74977 4.01737 1.73366C3.91814 1.72866 3.75929 1.76558 3.70814 1.79173L3.70245 1.79531C3.66924 1.81617 3.62926 1.8413 3.60198 1.86712C3.58909 1.88235 3.56705 1.91277 3.54929 1.93727C3.54373 1.94494 3.5386 1.95202 3.53429 1.95789L3.50314 1.99943C2.68968 3.07866 1.7016 4.71366 1.77237 6.23289C1.86929 8.34019 4.64045 11.6321 6.98468 13.8098C9.32852 15.9879 12.8139 18.5117 14.9212 18.4544C15.3135 18.4448 15.7366 18.3594 16.1804 18.2002C17.3031 17.7979 18.3447 17.0075 19.0212 16.4156C19.0231 16.414 19.0264 16.4112 19.0306 16.4077C19.0559 16.3864 19.1174 16.3348 19.1493 16.3029C19.1493 16.3027 19.1499 16.3017 19.151 16.2998C19.1602 16.284 19.2054 16.2066 19.2589 16.0229C19.2647 16.004 19.2735 15.9521 19.2735 15.8725C19.2735 15.7621 19.2558 15.6737 19.2447 15.6437C19.1689 15.4412 19.114 15.374 19.1086 15.3673C19.1083 15.367 19.1082 15.3668 19.1081 15.3667C18.9785 15.2575 16.587 13.3779 16.3204 13.1713C16.3031 13.1606 16.2839 13.1471 16.2601 13.1287C16.2351 13.109 16.1589 13.0494 16.0674 13.0137C15.9104 12.9521 15.7289 12.9494 15.5697 13.0063C15.4743 13.041 15.3897 13.0956 15.3258 13.1644L14.3685 14.1894C14.1608 14.4117 13.7751 14.681 13.4189 14.7467C12.9581 14.8317 12.5997 14.7587 12.3531 14.5298L5.87391 8.50866C5.62852 8.2775 5.48929 7.97135 5.47775 7.64289C5.47814 7.47096 5.5116 7.32289 5.58237 7.15289C5.68929 6.89789 5.95852 6.59173 6.06929 6.47212L7.01622 5.44712C7.20083 5.24827 7.24545 4.94366 7.1316 4.70981C7.08775 4.62058 7.01275 4.53635 6.98083 4.50058L6.90237 4.40558Z" fill="#DFE2E6"/>
</svg>
